<mxfile host="app.diagrams.net" modified="2021-02-21T11:21:42.827Z" agent="5.0 (Windows NT 10.0; Win64; x64) AppleWebKit/537.36 (KHTML, like Gecko) Chrome/88.0.4324.150 Safari/537.36" etag="JGFT2TlLCZUrd9lJCwbU" version="14.4.0" type="github">
  <diagram id="sjSLO70W8IcFegzjUKX5" name="第 1 页">
    <mxGraphModel dx="840" dy="327" grid="1" gridSize="10" guides="1" tooltips="1" connect="1" arrows="1" fold="1" page="1" pageScale="1" pageWidth="827" pageHeight="1169" math="0" shadow="0">
      <root>
        <mxCell id="0" />
        <mxCell id="1" parent="0" />
        <mxCell id="nyGkCvH6yq_HEILJswZV-1" value="" style="whiteSpace=wrap;html=1;aspect=fixed;" vertex="1" parent="1">
          <mxGeometry x="250" y="80" width="100" height="100" as="geometry" />
        </mxCell>
        <mxCell id="nyGkCvH6yq_HEILJswZV-2" value="" style="whiteSpace=wrap;html=1;aspect=fixed;" vertex="1" parent="1">
          <mxGeometry x="260" y="90" width="100" height="100" as="geometry" />
        </mxCell>
        <mxCell id="nyGkCvH6yq_HEILJswZV-3" value="" style="whiteSpace=wrap;html=1;aspect=fixed;" vertex="1" parent="1">
          <mxGeometry x="270" y="100" width="100" height="100" as="geometry" />
        </mxCell>
        <mxCell id="nyGkCvH6yq_HEILJswZV-4" value="" style="whiteSpace=wrap;html=1;aspect=fixed;" vertex="1" parent="1">
          <mxGeometry x="280" y="110" width="100" height="100" as="geometry" />
        </mxCell>
        <mxCell id="nyGkCvH6yq_HEILJswZV-5" value="" style="whiteSpace=wrap;html=1;aspect=fixed;" vertex="1" parent="1">
          <mxGeometry x="290" y="120" width="100" height="100" as="geometry" />
        </mxCell>
        <mxCell id="nyGkCvH6yq_HEILJswZV-6" value="" style="whiteSpace=wrap;html=1;aspect=fixed;" vertex="1" parent="1">
          <mxGeometry x="460" y="80" width="80" height="80" as="geometry" />
        </mxCell>
        <mxCell id="nyGkCvH6yq_HEILJswZV-8" value="" style="whiteSpace=wrap;html=1;aspect=fixed;" vertex="1" parent="1">
          <mxGeometry x="470" y="90" width="80" height="80" as="geometry" />
        </mxCell>
        <mxCell id="nyGkCvH6yq_HEILJswZV-9" value="" style="whiteSpace=wrap;html=1;aspect=fixed;" vertex="1" parent="1">
          <mxGeometry x="480" y="100" width="80" height="80" as="geometry" />
        </mxCell>
        <mxCell id="nyGkCvH6yq_HEILJswZV-10" value="" style="whiteSpace=wrap;html=1;aspect=fixed;" vertex="1" parent="1">
          <mxGeometry x="490" y="110" width="80" height="80" as="geometry" />
        </mxCell>
        <mxCell id="nyGkCvH6yq_HEILJswZV-11" value="" style="whiteSpace=wrap;html=1;aspect=fixed;" vertex="1" parent="1">
          <mxGeometry x="500" y="120" width="80" height="80" as="geometry" />
        </mxCell>
        <mxCell id="nyGkCvH6yq_HEILJswZV-14" style="edgeStyle=orthogonalEdgeStyle;rounded=0;orthogonalLoop=1;jettySize=auto;html=1;exitX=1;exitY=0.5;exitDx=0;exitDy=0;entryX=0;entryY=0.5;entryDx=0;entryDy=0;" edge="1" parent="1" source="nyGkCvH6yq_HEILJswZV-12" target="nyGkCvH6yq_HEILJswZV-13">
          <mxGeometry relative="1" as="geometry" />
        </mxCell>
        <mxCell id="nyGkCvH6yq_HEILJswZV-12" value="" style="whiteSpace=wrap;html=1;aspect=fixed;" vertex="1" parent="1">
          <mxGeometry x="330" y="130" width="20" height="20" as="geometry" />
        </mxCell>
        <mxCell id="nyGkCvH6yq_HEILJswZV-13" value="" style="whiteSpace=wrap;html=1;aspect=fixed;" vertex="1" parent="1">
          <mxGeometry x="530" y="130" width="20" height="20" as="geometry" />
        </mxCell>
        <mxCell id="nyGkCvH6yq_HEILJswZV-15" value="" style="shape=image;verticalLabelPosition=bottom;labelBackgroundColor=#ffffff;verticalAlign=top;aspect=fixed;imageAspect=0;image=data:image/jpeg,/9j/4AAQSkZJRgABAQAAAQABAAD/2wBDAAgGBgcGBQgHBwcJCQgKDBQNDAsLDBkSEw8UHRofHh0aHBwgJC4nICIsIxwcKDcpLDAxNDQ0Hyc5PTgyPC4zNDL/2wBDAQkJCQwLDBgNDRgyIRwhMjIyMjIyMjIyMjIyMjIyMjIyMjIyMjIyMjIyMjIyMjIyMjIyMjIyMjIyMjIyMjIyMjL/wAARCALtAfQDASIAAhEBAxEB/8QAHwAAAQUBAQEBAQEAAAAAAAAAAAECAwQFBgcICQoL/8QAtRAAAgEDAwIEAwUFBAQAAAF9AQIDAAQRBRIhMUEGE1FhByJxFDKBkaEII0KxwRVS0fAkM2JyggkKFhcYGRolJicoKSo0NTY3ODk6Q0RFRkdISUpTVFVWV1hZWmNkZWZnaGlqc3R1dnd4eXqDhIWGh4iJipKTlJWWl5iZmqKjpKWmp6ipqrKztLW2t7i5usLDxMXGx8jJytLT1NXW19jZ2uHi4+Tl5ufo6erx8vP09fb3+Pn6/8QAHwEAAwEBAQEBAQEBAQAAAAAAAAECAwQFBgcICQoL/8QAtREAAgECBAQDBAcFBAQAAQJ3AAECAxEEBSExBhJBUQdhcRMiMoEIFEKRobHBCSMzUvAVYnLRChYkNOEl8RcYGRomJygpKjU2Nzg5OkNERUZHSElKU1RVVldYWVpjZGVmZ2hpanN0dXZ3eHl6goOEhYaHiImKkpOUlZaXmJmaoqOkpaanqKmqsrO0tba3uLm6wsPExcbHyMnK0tPU1dbX2Nna4uPk5ebn6Onq8vP09fb3+Pn6/9oADAMBAAIRAxEAPwC7HcqwBzkEZBHpTbgvIYfswAnEg2kjIqCAIYYxux8o4/Cnj7THd2z2uxpPM4DjIPB4rmT1NeXWyLYhlXnajA8nbxzTwwH31dPqMinI80HElq+B0KHNTpe2xwrtsP8A00XFW7MLEIihk+6UJ6fKcU/7NjlHI7AMM81aEVrPyBG+e6EE0hswv3JZIx1wTkUWQuZlcwyegbpgqaUPg/Ou0HsRUvkXH8LxyfXg0hMycPBIB6rgijk7DUtLDIzk4ByuCAeuDipcN95TkdCD0IqLzIW4OAcYwQQacMKCQSPTByKnlYcysV5dLsbg+YIfKkzgSREoQfwpFi1WD5YruO8XHEd0Ocf7w5q2jddrIcnBBJFSE7gCVKt1B6ilaxV0yidUiiwt/Zz2THGG+8n5j+tXYnilXfBcB0PQggjFTgq0e1iCG4ZeorNk0i2ExaDfaTHJWSE4BPuOlJ3WqKaNJWcdgw9RThIuMMCv1rDmvr/S2jW/thdQu20XFvgMD15X/CtK1vre9jDW8wkxnKnqPwqlNk8kWXAQehBFKKhAVsfL6crmnAkfdkIxnhhWirdzN0exNtBwSMkdD3FWpNQu5bN7WW4eSJsAh+TjI71SDP3UN9Kd5qdOlWqiaM5U5ICM0bacMN0INLirTRk01uN2+lAFPwKXbVCsMx2ox6VIFpdlNCsRYzSbam2UuymmKxBt/wD1VG0Knkrz6jrVrZSFKpMTRUMbj7r59m5ppLDhl/Ec1bKUwpVX6CsVcI3APP5UhQ9jmrBjBHIFM8vHQ4o0DUrEEdQab1q1tbuM1G0antz+VGoESR75FQHG4456V1vhiyguo5ZeGt43ChD0ZxzuPr14rlDEecH8DWt4f1r+wkmgkt2lgllMhaMglCQAePTispp30N6ckkzuxaW4ZWEMYKnIIGMGvLNVgFvqV1D/AHJWHHpmu3PjDTTtMfmfe+behBAx1/pXE6ncJd6jPcICFkYsN3U0o3W4Saa0M1l5qFxxVlh71Gy1p5GNym6+tQkCrbCoHXrUSRSKrDt39aaR/KpmH50wj+VS0MVODU4I4qFR7VMo6UWsDk9heozS4pQM09RTSsFxAMU5RjtmnBacFpLsMYF7d6cBn8KeB+tOC8ZoEN29KcF7/lTgtOA/KkMaFp2KXFKSijLEAdyTimGg/AMAHGQ3Xn0puKVZozAQil8NnKAmmbpmHyw7f98gUBqPA5FLz6UwQ3MhADhfaNcn9asjSZm/1izt6+Y20Z/SgdmRZUdTiir66LgYC2/H40UXQ+VnIu6WturyypGgUcsQO1Q2mrpJdQz2hEghkDMHB2sMHiuBaZ5yHkd5H4wXJOK7vwhpzXWmzygZVWH8q8yrNwV0erSoqTbZ1dvqtsB88E8fJOUw4H9a0IrnSroY+0wFj/DKNpz+Nc1YeINPQ7Lm3ljxwTHhhXTWlz4d1EBPtVozH+CX5D+tTHENvccqCQ5tCtZl3onB5DRNUTaNcRcwXci46CQZFXH8NWmPMtZJI88hoJeP0qu9vqlpxFqLyKvRZlB4rX29t0Yui3sVmtdQi6xRSj1Bwaj+1yRcSxTx++MirB1TUI+J7WKT3jJU4/WlGsW7cSQzx+uRuArWNaL6mMqUl0Ky3qSfKWifPQOMGl22zcmApnvEasGXT7ngNBJ7N8pprWFsSCgdAehRq0TT1M2mQG3jf7lzg+kopfsVynKAMPWNqVrNh9yfPtItILe5TlQjY7xNg07rYNRheaPiRSvrvWnC4Bxwe5ODmni6uIvvmQD/AGxkU4ywTD95BE5/vJwalxRabKN0/nzW5Vx8km5g/HGKkuNJtLo+YUeOb7yTxcEf40SCNbqB7ZtmH/eCVdwIx2961lso9o8tiowMH2qZR00HGfcwhPfaaf8ASR9qtzjMiD5gPcVpw3EN3F5ttIHxnIHB/KrRtpl6FHHoazLnSiJPPtgbW4BzuT7rfUVDTW5Ss9i+qhwNvDAjp60gyx2nrjkHnjNR2pmEY+0tH5p4JTIBFWCrMNwHzDuOR1qNLljCgJ5XB5xg05dw4D/TdxUpUONvRuoHoacgD5DDkdc01JrYTSe6Gq7DqmR2K08Oh6nH1oWP5tpHzDoRxmnFcdTkHOCRnvVqrJGbpRew4KCOOfpTttReWBzjHXlaeC6n7+fZhjtWsa3czlQ7DtlG2lDsOqZ915pwdD3x9eK1jUT2MpU2iPbSbfWpsZ5FJitU0ZtMhK8U0rU+2k207iKxSmMn+FWduKYVppisVitNK1ZK1GUouKxWK47U0DFWClMK8cU+buFuxXdN3WqzwkdD+dXWWoyDRZCuzPZXXtkeoqIlTx3960WVfpUMkKsOcGjle4XKDAdf0qCRauvb91JH1qu8br1GfpUtDTKjL61GR834CpmHtTCPm/rU6lXBRUoHt9aRVqVVoAQLTwtJvRerDPoOTUg56KT6dqQAq98U8D/9VNAlPHyIPxJpwiY/elf6DAFAxcBeScfXim+bGOA24+igmpBEmACM4555qQLjoMewpDIgznhY3+rYApwSUgZZE9cDNShePbuakhhkuWKW8TyN32DIH9Kai3sAR6dM6qzsVRuQ0jAAirSaSAAzOhj/ANhSTirCLdWahbm5t0UDAjkxIwH4dPzqOM2YlLOZ3Y8gklVz9Bziq5Gtw50KkFkAVExcg5KEhaliSAkstmU7hmUkfrUscjRqRbQQMp7xYBH55NM84yMVWcknqsoLf/WpNRRSbew1bqc7h5G8Dr5eARSxtcHO/G3qVlbrQ2ASZFeMA9UYAZ+gpw8xxvKpMo6bVyR+dS5LoOz6jWtwD8yLn23H+tFSovHM08fP3dwoo5gsfPsa4Ar2b4bWgk8KXUn8XmN+i143GOB6V7P8NZ/J8IXRGP8AWMcHp92vOq26nrwuoOx5kbplkbacZY/zqZb3oGGfr0qU6dG4LAYJOTj61GdNcfcf8DXK6SZoqq2Zbt9QaEhoppImHIMbEfyrVh8S6kvC30jj0lw3865prK4U8AEDv0pv71PvKR+tYyptGilFs7NPEly/+tiif3XINTLrcD/fSSP16GuHW5Yccj68VOl6w75rNwkuponE7Zb22m/jjOezcGp02DlMqfWNuK4pb8H735VNHfKPusV/3SRQp1Y7MTpU5bo7dZpR0nJ7YkGalWSQgfLGx/2Dg1yEWrTqMLNu9nwauQ6+wxvhRvdDg1tHGVI7oyeDpy2OlNxJGct5kfsRkU37TFL99IpD9MGsqPXrZhy0kZPqMj9KnTUba44SW3kPoSAa2jmEXujGWAkvhZPL5LTwtGXgVWzJ3yMfpVLVPFN5pmuTWUUNvJBCqYDg5OQO9WWaIyRsYnjVeoQ5DdK53W7aW61m4u0UtG+3aR1wAB0qquLg4Xi9TTB4NOraqtDoLfxzakAXVlJEe5iYMPy4Nb+m6vYatuFnOZGUbmVlIIGa8s8h+cg8deOldb8P0/4mF77Qj+dPD4mU5Wvc6sZltGFJ1IdDtTAj/eQN+FMNjEeVyp9jVwLSlR0POa7nFM8BSa2KDWrjpKjDsGqJsx9UPr8laYjReiimzXENrC08zpHEo+Z2OAorN01uWqj2MNZrqTh/KjweDgk4/SnsbmUlXuDgjIEcQz+ta8Vza3gzFPBMP9lgTUb2kRu8lSpCdRx3qVG+zLbturGWsb4Ky3N2OoxgDiqtoC89zFNe3OxZSsWDjAwOtbzWjgfJLnthhXMT3tzY3V+UG4rcbTGYiQeP7w6Y4ocX1DmRpG0IYGPUbhQenIODT3gv0GUvo5F6fvYh/SsiPxLE+VubQgHqykHtV+DV9NlAQT7O2HyO1C8ieZExfUosE20Eg9Y3IP603+1nhOLm1nj9SVyKsxNuUhJw6djweMU4PJG2wruRumDWik0riaTI4dVtJjhZkJPbof1q4GRuh+lUZre0mfbPboQejEYOfrVdtLMXNrdSRjsG+Za2jUZnKmnsapHpTSKyjdXtkP8AS7cug482HkflVu21CG5H7meOQ/3Twa0VTuZOk+hYIphXmnb8cOpX9aMqehFUpJkODREVqNlqwV9qYVq0QyuVqMrVkr/+qoytAkVmTNRNHxVtl9qYye1O4mUWUjPcVDIPatBo81Xki9qd9RW7GTOVU4YHHrjioQoYgrg+taE8fGSKriMAjHTHQVk9y1sRrG3Utx6AYqQQJ1IJPuc1KqVIEpWGRpGF+6AufTipAtKFxTgKOgITbSgU7Hf05Jqe0spr0bo8RwjrPLwv4f3qai5bDK52qMsQB6mrBsbz7FLciERoqFlM52eYcdAOvNaccMFkc2qxyTf8/M/zEH/ZUcCqWokLBJc3M8s7rgD65qmoxWo1d7BEbGCJC8D3VzgF/NOEQ45GB1xTpL66nXyy/lx9o4htH6Vkf20rNiGwBb1diefoKnjfW7riGB41P/POILj8TSdR2sh+z11La27nlYjj1xSsI4/9ZPEh9CwJqu+i6g/zXl1HEvcyzZqMWOlQH97qm9x2gjz+vNZOTZSgkWftNmjZWWR2HeNSP1p76uDH5Zh8wdjKwz+lVxcaPCPktJ5fQyyYFWYL2eU7bHTIwexjhLmhKTHZIZDdXTZFtDjPURxk1OIL+TmTeB3LsFqxb2uv3zuiRygqcODiMKfSrNz4bureATX19bQ5IADMWJOaHGyux3RQW1AHzT24PoTmipjZ6cnD6g7n1ji4orLnRVzwdVxXqvgKUDw7JCeA8pBx9BXlgzXovgtytjEg/il6flXBXlax7FKN4tG5L4Pi/wCWNyR7OtUZvCd6n3Nkg/2TzXbkcmjbV8iRzc7POZtEvIc77eQD6E1Rks3DHKEeor1TBFMkt4pRiSGN/qopSg2NTXU8nezUjDR/mKqSadH/AAjH0NesyaNp8gw1qgz3XIqhN4UsZMlGkQ++CKhwaVi1NdDy1rBx9xvzqJoLhO273Br0efwaefJnRvrkVlXXhW/jHywlgO681nytOzRopvoziPMkT7wcY60q3jA9a3LrR7uLO+FwR6g1ky25U4ZMHpgiptF7lc8kN+3OOM1Ve73SZNE0AAOBg9c1nhXeQhScVrTpQepDryTsjWh1i6t/9XcyqPQMSK0LbxJfyHaVjlz13DBrHt7HnLnPtWpbwrGRtGKxrKklZI7KMakneR0FoWuLWaVkCE9QvIHFbPgJkS+vt7on7oY3EDv71naRHv02449f5VyniCFSIFb1PtXPg3y1DqrxcqEonr994u0HTspNqUckg/5Zw5kP6f41XsvGemahEZEiu44920M8Y5/KvJLaECAYAAxwBxXUaAm3TAMclya9SnXc58p4WIwiow5rnfJrltI5CSoy54ycH9apeJ7yOTwvfKM5ZQB3H3hWIFB6807y1MbIRlCOQeldMouUbHFSqKE1JnPcBtwyp7FTg1estT1CKeFI72cqzhdrNkEZ96vpp1tNKiMmAzAZUkHrWQkQXUxEhztn2qT1+9XkyozozTufVU69HFU5WWyPRjJcRMQc4/MVzz6hrEF7dvaiQQtMSR5YZWNbMst3bAvISiA8liAK5lJpLq8uZLa+icmUnEcuCOfyr1+aKWrPluSTbsi0dbWY7b/SbaU9yoMbU0r4eueCLuyc9zh1FRyTainE6mRf+mkQYfnTFuLd8iWyjz3MbEGrSTMndFiPQ953afqtvKewWTY1SFNesR8ySOg7kBx+lVfs9hJ8yvJET/z0UEfpViBL2Ef6Hfbh2CSkH8jT5EwU2h669KBsubUMDwcEg/rV2HWLCZdrs8ZPqKpyXmpp/wAfMSTL382EHP4ikW806TAudJ2Hu0DkH8jT5EP2nc2oLhJE2rMkg9VIzj6VBNp1ndsRLCFkHSRPlP8A9es/7Jo8x/cX8tux7TKQPzqcabqKjNrcpOg5BjkBo5GPnQ10v9MOVf7VACFwThx/jVq3vLe7yqkK46o/BFUZ59QiVUuUIAYMTIuMc+taEtta6iqyOAsrKCsiEhv/AK/40nGw4yvsTYYHAJU+nWjc3s36Gs55r7TDm6BuLYdJ1HKj/arSR0uIVliIYEZGKNVsDSe6G7l6EFfrSYB6EGpAuV3J09KaYxjd1FUpvqQ6SexGU9RTCntU20gZGQPzFHzA8gN+hqlURDpMrFP1pjR5q5hOjAr9RR5SsOOfpWqkmZODRlTQZBwPwqikTEkAEn0ArojAKsrbJ5alQAcdRUytuOCuc6lnMRkptHq5AFOS3jP3rmP6Jlq2JbEScEZ9zRZaC4iXeyIMnpyTzWbbNOVGakFsOglk/ICplSNeUtox7tya3F0iJB8zO/6Vl66j2dvGbY+WWfBI5OMH1pXY9BgJYqjqki54jxwfwFXBY316wP2eV/QbdoArBtvEWswK8UFxDEMhs+UC2SB3P+FRah4k1uJQP7TmOTyeF/litJy9lDmb0MsNUWJrqjBanXJ4fugMzGGBfV3FZutjTrPSJ995FdzE+WII+mc9z2x1riJdRv5yWlu5XPck0+0klMdwd2Rs3MXBYYrhjjac58qR7dbKq1Kk5trQ1LfWL9YUjsbKKNFUKGSIsSMetWYoPEOqMVM8iKOvmSCMYrMWbUGVVEzogUYVcDAx7Uv2SWUEzSyNnsxP9a6XOCW546hWk9jTm8P29qytqGuWCE9QjGRhU0S+E7YZeS/viP8Anmmxf6VjpaRR/dAH0wP5VJ5angYPqAM/zrJ4mmtjaOErPc3o/EWl2n/IP8NwKw6SXDgn+ppZPGesupCyWluvYrCScficfpWPHZvKNqQSP9MgfpSvp0sXzPbhT/tcmk8U38MWbLCW+KQT65N+8Z765YysS/lMRuP0WnWg+1xLccRKxwDcE7+/Y806CB3wAwQZ7VrWukWrjdI0jn04FKLxNTRKyG6VCGrZS2Ww+9qOD/sRHH86K3BpNgB/qM/VjRT+r1/IXPQPnnFd94NOBaqehmH8xXAjPeu38LDcLVMkAyduD1rzsVK1n5nq0VdM9YKgkkHvRs9KygJ0Pyzv9G5qRLq5X72xv0rZVF1OFxZo7DRtPpVVL5x9+I/UVMt6jdePrVKaZNmPK8Um2nLKh6EVINh6VWjDUh200rVgqOmaTZzQFys0e4EMMj3ANZ1xo9hck+bZxMfUDBrZ2VAU5qHFMqMmjlrvwXpVyDtEkRP905rgb3RE07UZ7dG8wI2AxGCeBXsbDrXmutru1y7/AN4fyFcuIfJG6OvCvmnqYSwFf8aspEVIzUoQZwanCgkY9K8+VRs9SOhtaIn/ABLZ+2Sf5Vy/iSPBth7mus0n5dMm+p/lXM+JMFrUD3/pWuG0dy170WRWkANqrH+6ea6LRo8aanGMkmsWz/49MegP8q6PS1xpsRHcn+ldeCd6zPPzXSiiwExT0XhuO1KF4qRV6j2Ir2kmfNi2i5vIAenmLn8xXI3jsl1dujEFZXKkcEHca7K2XFxER2cH9a4m7/5em9Wc/qa8vMd4n0OSaqZgz3dzdyFrm6nnP/TSQkV0Ph4hLG5YD7rZHbtXLr1rpNEJXSLxlGSCSPyrlrNtI6nCMU7I14dVdBwZE78HIq4uqJKMSCKX/fXBrl0u9uA4IPfIxVlblDwa2VGpHWMjglyS3R0itaPz5Tx/9c2yKX7PA/KXCZ7Bxg1z6SoDlG2n2NSfapV4WTcP9oA1p9YxEN9TF4alLY6RI72HmNnx/sMCKebyX7tzbxSepdCDXNrqzxHJQ+uY2Iq9D4nIG0zHHpKoIraGYJaSRjPAveLNbdYyctBLFnujBhTks7dzmC6RW7BsoapJqttPy0MRPUmJsGpxNZt955I/TeuRXTDF0pvc5p4WpHoXpo7+KDEssksG5cjIcE5GP1rbhurC9VUaa2M4ADxhgChx0/CsCOMAK9tcRyncMKjYOcjHBrkJ2Q6heFc/69jk9Sc8/rTr11BJrU6MDgnXk4t2PUWsVQHBcIRg9xiqkOkx2hdrZU2v1AJx/wDWri9G1C8TU7SFLqURtKqsu4kEZFelMoBOBjmqpTVRXQsXhpYaSjJ3Mwo8Z+aN1/DIpi4HAIOT0PFanNMaJH+8oP4c1bp9jlVRdTOA25Uj5T0oCg5Q8jqDVxrRP4CU+hqJrSTnBR/rwaTg0NST2IVQHgcNnkdqQRgjIH1xwae0bocsrr6EcjFCnLZBBPTHTmiwDNpHOfzGRV2NcxIfVc1ABg8jAPPPY1pQxjyY8dMDFUmyJIgSDJq4se1QPSlWPFTbaTYrEW0GsLxLFm2g95CP0NdJsrC8TAC0gPpKf5GpfmNI5GOzuGupEit5JCMD5FJ7Cqmu2N1ZiBrm3eIS52hxgnpXbRXt1HLcRQy+VH5hbCoAckCua8YvJLLZmWR3ba2C5z3FLGyXsHcvJsOo41T9TBktI4wpaUqGGSWwOakguba0D+VPuLABsAnIzU00SywKpGfTP0qgbYDcAMHnivncPScveufT16spXiy22pkkkCRixySSBk1taRYpf27TysVCttwpzXNfZ5sYVSeOwrtvCFpNNp1xblQkwk37XODtwBn869bC4eHP77ueViajhD3SxZ6XY+YN0AkI5+ck1pyQQW8f7uGJOP4VAqS009l1R7WaQI4QSKQMh1J5x9O9bLaNBKuJHkYdwuFr00qUfhR5jqVJbs522JcnHSq2pQExkgdK6O90aCLSLtbFTDP5TFJASSGx71wlpcz6ho2izNO7XJne3kbPJYEnJ/A0pYiMFsZttMjgmijkxJKibjgBjgk1tWZZ5hChG5umTjJrmbqGGPxXGboF47cFUCjOHAzk/SumskjmkDBdyDnI7ntUQxLkirX3F1DURpt19nlhlc7QwePGGH40Vg6xrU0+oyCzmXyI/kViudxHU/mTRWDxtna5FkeOKefxru/CQzJZ+pk/rXA7jniu78MJ5gtEYkBmxlSQfzrzcYrcvqfQ0H7sj0jHXNLtrPFvOnEeoXCj0fDj9akV9Qj6TW0o/wBtCh/TNXc4OYvBaXYD1qoLu6X79hu9TFMD+hxUq6lCP9ZDcR/78RI/TNO6DmJTEOaArr91iKRL+ylwFuot3ozYP61ZChhlCCPUHNNJMOYh8yZe4PrmnLcyj7y5HfFSeX69ad5VNJrYegxbsD7ykfhSG5jI61L5dVrlVAzjkd/xocmkNJXJWOcmvNdYA/tq8/38foK9Iboa821c/wDE5vDn/lof5CuXF/AdWE+Mo4G6pFHSod2WJ9D0qRCeM15rWh6aN3Tjt02T6n+Vcxr5zNbfj/SuksiP7MkOPWuX1tszwfQ4rfDu5tH4GTWrYt8HqRzXU6UV/suLJ9cCuThP7n8K7zw7bxPosLuCWLHgEAda7MCv3zsedm38JDfmPAUn3PFTC3nPJUgHj5Qa1UCKNyIi468ZNSRrJKRtb5QeXY4A/wAa9yMWz5t2RQt9OYtFK5JycgEnNee3X+ruPq38zXqdjMJFzJEkkhldM87QAcAgeteV3fC3APYt/M15eZRs4n0GRu6mc4uO/Wuu8MQma0kjT7zSADPriuTRSxwK7bwfHhByP9b/AErllq16nXW0iy7Lo8wzvt9w9sGqUulRfxRFD7ZFdwBzQ0YIw6gj0Ne1GSe58+21scA2kH/lnKR7MKrS2N1HnGH9gcV6A9hbv1hA9xkVTm0eFs7GdT+dTKEGXGrJHnc8lzFkSROD64qn9tBOTXc3miS4Oxkb2PFcxd6LcozE25K+wzXBXpxizsp1G0UUu07/AJ96jOrXMEpEVzIo9Ccj9ad/Z67gHR0556isrUbZ49QaOIkqADzzjilToRauxyrO9kjci8T3KEeakUg9cbTVxPEVhN/roHRj3ADVysdoxbMjfgK0La2XcABgVFVQSNaPPe60O10Aw3OpW8seSonQrnI7ivUmHzH6mvLvDCgXcOO06fzr1Ejk/WuvLXem2cOaSbmrjMUYp+KMV6Z5ZHtpQtSbc0oSgRGE4xR5COPmQH371Lj0pwXmgabK/wBiT+Bime3UVbjj2xKp6gAU5VzUqj5RUNWKu3uNVKdinAUveoYxFFYfiaPda249ZD/6Ca31FYniXItbYjr5p/8AQTUsaKFuheecgFiXPABPYVg+M4XiksS6OmVfG4YzyK6TTtQu1jmSGQIhlY/Kozk4rnPGsssk9k0sjOQjYJPbIqMZ/BZ25TriUU7aHzBz/D1qy9rGmXKlu5AHNMsvljI+lWydw4/CvFwtlBXPQxDfO7DUCBRhcZA47inSG901YfEFirSmzlMVzD2kiYD+RqPfnOfpmuj8O7TZXKOAyNIVYHoRtFejSblLQ8/Er3DYFzHq9ha39i6Fh+9t2/DlT9ehq/FdedEsikgHqD1B9Pwrh7R28JaybZ2J0e8bdE56Qv8A54rrHcw4mCkxSMA5UEgHs349K61zNanAmXvM5G7kdx7V5vpNubTVtT0zobLUorqMf7BJU/oRXoot5m/hx9TXLahYGz8f2Fw0kaJqNu8LgnugDVEqTkEnoc+1slzrOpr992uAHUHBQYGPwzWvJNpkMN3YIZY7tYvv5wWJU9O31rkL7UzZeM7gLFvS5n8tucFRkc/h1rQ1nXrVka2095Xi3MPPlIOU7hO4U471yyqqEBp9DGAk2gIpOBg49aK7/wAJWdnbeHoGvLLzLictMzFQeCflHP8AsgUVKwPMr3I1PneNcGu88Ltj7E3oxyB+NefLLuJ+td/4XyBZkAtyTgdaxxq+G/c9+g1yyt2O7E6k9CPwp4mT1rFnv71btPJhjFkrbZ5SCzofYDjArcsLe3vIJpjqVuiwjc4dQCEx94c+vFaQTlscLstxwdT3/CpVYjoaZp9kdRUywNH5CgF5CcbMrnOOuO1Uo7qE3C2rMYrh0LpGxyHHfB9vSqlFxSuTu7I0GVHHzqjj/aANRfYbU8iEIfWMlT+lKqurZz+dTAu/Cw5IBJ2ZJx9PaptcZq6LpENzBKzzXOA+FxKT2rROhogz9rk2jn5gKb4euIBp4BmjEhckqWAP5VeiWea5Z5gghXHlKrZOe5b39K9CEVymEpNSKVxo8pkDW7RhNoBV8g5rOutG1Aj5YEf/AHHHr74rfiunnvRGiERCLezMpU5J4H6HNXM469qJUovoCqSR58+oWiyPG9wkcikqVkyCCD7155qbq+r3bKwIMhwwOQRgV3PmLNCzko28ljnB6kmvP753W+uQAAokIGAMV5GK1jY9HCyanchXkn61Kikc1WVlU/Njn61K9wkMUbKXYv2AzXnuDa0PS9rbdG5aHGky/ia5TWDm4h+hrqLVi2jSORjOeO/UVymrH/Soh7VeHVpWOtP922WIv9WPpXpXhiFj4fgIXIJbP515xZqHYKxwMd69x8N6FHb6BZrLKXJQSfLwMNzXsYCgleq2eVm01yqJmR2rFi0hG1ScIOrfX2qSSJnUndlgDsHACnHArppLSxtbaSaSJSkal2J5wAMmuSu9ey8kVlpMSoyEb5WzkEDsP8a9Kc0la54cKTk9EYtgt0JI5Z76OHbKSYc5JOeeB6muIkhe689UByxbBPAzk16FZxabZaYjTWkkt2FO6ZnIUHJwQM+lcjJc+QMRgSMTw2O9eVjEptanrZdiFh4yutWc6mgajj5bZ2IPIHUiuk8K28lsP3qlCspJDDBHFL/at5EVCDe/bYP61bW+kuFBmiw/U7TgmuZpNrUueKlJNNHSRXEcjbFPPbNWGIAOeD2Fch9pmiy1uQwz9xjkGtaDU2mjiR8oVGW388V2e30POcWjoIpD5YKY3DjDdDVZ71Szi4hjAHBXGDj1zVQXQlUoflU9CDg1Xf7ZDcBmmSe2ZScnk/Q1m6z3KUO4+6kt/MVYpN4fhPUnHSs9wPNKA/OBkqeDj6VHqGnpfK9s42RbhIjJ6gg1w2o6Pq+n+IQ1lNFO8rbo2JJeMZ9OwHSrj761Lu4bHctCrnDKG+ozXE63Eo1edVXAGOB9K723LyxZki2OMAkHIJxziuK1tP8AicXGPUfyrOq2oHTh3zVNTI8rcRjir1tFtycdKbHH8wq3EnWvOqT0sehFHQeGVxex5/57J/OvTyPmP14rzTw0P9Ph95k/mK9OK8n617OWfwjxcy/iIZilC0/FGK9I82wgFLiilFAAAKeF70gFSqKYAo71IBwBQBT1Hyg1LGhAKTHNPxSYqWigXrWJ4mH+j2o9ZT/6Ca3B1rE8TEJaW7/3ZSf0NQyjN0mKWWKTZE7/AL08qpIzmsXxtBNBNYGWMqpRgN2OTkGug0jUrtLWRIpERPOdgNmTySf61zvjeaa4u7BppC5EbdcADkf4CpxbSou52ZV/vKsQWx2rz3NT7xg1S3FI19zSNKQMZ6187RnaB6daF5tlp29DgEV0/hW7igsLjfB5rmcnJxgDAxXH7jIuO3FWLTX10W9ijugfsVxkNIB/q39fpXp4OfvannYxcsDtdbni1PS7jTpYxGsycbQWIPaszRtSvo9OOk6i/mMiCNGhGH2AYwSe49RV0/vJFkRgyMgwwOQeapX1hLIwuYAd643YB/Ou+UpXujhjGL1Zfg1K+MfkTM7yxjDMz7dw7HiqGrwm8jgnnRGe0lEqFSSc/wCHtVqOGW4hW8jQkxAiTb0x3H4da0DpM80ZG0bHXqWA4xR70kO0U9TiZtPsH1B7l7WOSZmLeYxJ5wKkSC3VsLbQKo4OEGcVpCyQZyclSQSORkcVILVVXCjcxGce9cEqd3qja8Sa1UPbo7gkkf3iMUVaJEaRpDEWCoAxJxlu+Paiu1U3Yyuj5giPzYr0rwrE0ws41JUsDyoye9eZwHMn416f4UOxrIkkYBOR9DXnY5JuN+56mFfuSZ2iQpbqsaqUQcAHNIbaCUn9zHzwcAVAdWu11JLSFSsJHz3M0gCIewx1Oa27oTWmknUTcW93sA3Q+SASc/MMg9hWsY3TaONvuZs1tbRQmVlwyjhkJU/pSaXBdLO1zc7C23bEGUEhfetLTYX1FGn+yRkowDpIxjMeRuBxz1BxSQXljNN9naK4gudu/wApmBJX1HqPpRKLSTbFdJtEjugUs8MQAGSRkVVtJ9Rgka6tiiB2UiCUZOBnkH+HOeQc/hUwWO8lYCUrBG2071wXYf0FW2gwNyyxsPrg0436BZW1Ma8TdZSw29i0UzsWSSPAMRyehORt+tRRNJbRlLme73jDJOh2Z4GVO3gEHnPcVuG3cH5l/LBrPvBLKTbQd/8AWueij/H2o5pLW4cqZX0/XtRku7mMX0n2aIL5Uu7JY9wRyOPWr7+IdUjBRrlHQjBLxDOPwxVGOxitIfLiU4yWJPJJrMuGeabYjFY1OGI6sfQUOtJKzY1TTZegglvYH+zGykSKAyB3UgEL7qeteeXiX0ivM1s8cEkxAePkFsZ2g9+Oa7iKaWwDtaMIi2N2ACDggjNcdf3bPeS74kYNM0rhGKqXOeQucDGa56zg4o6cPdT2M0MEIDgqT03DHNTwx8hm5/lWbczT3M32YtlDy5AxxmrsF3E0/wBnTLFRycdK46lNpXR6NOom7NHRwHGjyD1z/OuT1X/j8j/3f611EL50ds98/wAxXK6qT9tjx/d/rWeG1kdz/hMswttUN3HQV6x4T1jVZ9EtrGz8uSSOM9Rl1XPuQMDpXkUZ+UfStG4Y+RbFS6HyzyrFT19q78PiHRbvqjz8wouqoxW56zrf9q2Wni4v7pzG58sxo4AJIPUAAYwOlclHrEs0zEKBGPlB7kZrnTq11BpjW81zPJGzAlZJWcfrnFLBeLeRiGOAtj7zscACli8U6sk46I8+lRdJOMjZ1DxebSIoiW0hxghiT/Kucs9VbWSz/Z47WMOSWj5z7DNMv40CvHbIMAHdJjjp2puhRxmxBY+XGpI92NZwbcLslxSehrmUBMR5UDjI6mqtwZkGcYU9S5xxUc9yg+SPO3pkE1nTpIwwpGWPAJyaI3egtDSGQVlS4CE9VNa0V65iCzgBWG0MOR1rmDHsKK7b2xk+gpBdzCYxHgfdAX6VTuUkmdc893BKoiXcjdTjIxVyGWfy9r8jPHOcVgaXqE9sqwOS9swIKdSK3bOGOONpFmDI3Q9DURiU0WOW5OAVUqcdG9DVO0sIYSbkKS75V5nOXxnofYHtV23BBJIyc8ilurKJ5DNDFskkxvIyd3Hp610wWhD0ZejhHkxHqWTJIHGcmvP9aUDWLnj+L+lekwW0ccaGIuUMajaTkAgc4rz3W0/4nF1/v0Yl2pGuE1qmbEo3fSrMYHNRouKlj6kGvIk7nq2Og8OsBqNspP3rhAPfmvSHuYknEWd0jZIROTivMtADf2xYkMRm4CnHcEc16POPL1OyEadUkUKuBnpXu5W37E8TMV+8RNm5c/Kkca/7ZJP5CmuHT/WXaR/8AA/nWNrd5di00+SGSSJLi33yBOBuyPxrnXYsctlz1JYk16Dm+iOBQ7s7XenQatg/8AqaNZWBMV+kmOfmiBGP+AkVwW8DnYK6HwhORqc0ajDtECF7MNw3fkMGkqjvqgdNbm2z6pEdxtbe5j/6YuVb8m4/WpLbVrSWbyZGe1n/AOeVypjJ+meD+BrW1C5gtIlDAb5mEcYxyzH+nesTcmp3NlHdWwkjaGQssigqxz1FaqaehDibGDmnJ90VUsbCDT1dLcyBGYEI8hYJx0XPQVcXhRTYkGP8KTFPoxSsMYKwfFX/AB524xwZCf0roccHiud8VMUtLdx95XLAjtxWTRSKWi2081qxjhkYGRuQOM5rC8c20tvd6eZk25jYAZBzyP8AGt3Rbu7+xkLcyKolcgLgcliT+prnfGzM9/ZGR3dvKOC5JONwqcXZUXc7sqv9ZVilJkhBjpSbfunH4mpGmSOIP9nMrZ4AJHerq3EYjTbDApI5BUkqa8TDYdVIJ3O/EV3GbSRWiQbTWpBb6dqelXel3FvvuSxkimwSI84Ax78cioUWFVGVBLdABkmuz8JYXSp8Lj/SX4A5IwK9fD0VS13PLxNRzVmYPhFbvQdLktru3nkdJmCBoWbbH/CV9ia3hq+qSjEemy7ehygUY/E1b1C4jtp5p52AWK3BA3YGdxqO8t7iYK0Mu0BAQ+SdpyDnHfI4rebtsc8IpqxXsrG8hs3IUxGWQgwlgRtx1JHc+lSpZXKxFZbiMMM7E+ZuO2eaZ9jvZpBPJdy+YjHaI0wo49D1qezsfKnM00kjuFIBlIGCT29KiM5I0cF1My6025iMaxTl2ZCziNANn8+KqWlsbm+giluJ3Rn+fLADGCe2K2tR1ZrKVYLa3Fw8iFmZGyVPTnGa5pZbiHIMCEsuwCTJIJI6D1ocVdMzdzqptH0xGA8mMcd2J/rRWdb+G7u6gWS+umSXoEX5tq9gT60Vtp3Iu+x4HqHhUWdl5tul20wYZB2shH1GCD9RXTeFo5We2jiYLMFIIbkrwe1S3H2r+zpGllQpuA2IuB19etXdIgimK+YgJHRhwR+I5r5qrXc2oyPoKcOWm2jpbeyjgiMYQMDkvuGdx75qX7KrKiK0iRqT8gY496m0meKK4WFpknjbOI5cNIf909SB71t3UNrb7w1myFMFn3EIoPcn0FejCF43R5knZ2ZgPLHprPcowjldPLORu3rnoasWAmeUXt9bW4uChVFjBARc/wAz7VoppNmZZJHLTyE5UcEAY44/rVs2UBheZLhCigsW9Bimoye4nZGVFLbQidvJKDeWIDZyxx/OrWn3T2s0q3kYe3lTKsFwyc/cbt+NLbaRIbhpXKE9UToVHr9atNZSIDla0g3HoJpNWMe5C2sdv9muVMiAebG5JWUE9ARyGA7iobNJvsbRm4ihmhkaMR7CcjqrHJycjnNa8lm7LypGcHOKztRt3u/3CKnHDyEAlB6VlJ31KXZFC3nub2A+dbeQyz+UWUhldcfeXvg9OaZJZI0yRqgUZGMcYqyloLOzWCEn5eSx6sc9azLu8nM/kwNhgfnc87B/jWUmluWm+hL9gNwZEtw7uhAZUGdpI4rz2/jIvZkcFGBJ5HGK9DhmNgxlgOx+pIH3zjAJ9xXJahfxvqM0htYgHkDSRqMI2MZGOwOOaivCDhe5vQnJT2OSu/MX9zb4LNwXB5Aq7YWa28QUDJPUnqTS30lle3M5ht3hJckJFysQz0B9BU9vPA0whjm8x1HzDaRj+lctbmULI7qMk5Xe5qqNulkfX+dcnqjH7dGP9n+tdfIP+JXkdCP61x+qZGoJ/u1jgtZNnoT/AITJUI8vJ9Oa2r+0ntrfTzLGVEtr5yYIbchPWsWNcrg9MVs6hfT3VvYpIwC29qII9gwdgPGfWultcrT3OXEX5o2MvU94aFD93k/hV231eDTrTYVDEjmqN6P9BV85KvgmuYlnee4K54zjFa0KXtEebiZcsjsLzWon05wqIpYbeOwrndEn3FnnmyQTsj5PFZt1chnWEsdoFXvDl+tixDwjcxOGYZrq9h7Omzj57zNiW+nYgNFJGnY7M8U0X20ERoS56yydatT6vc3AxH5bexAyKzZXuTktDGueDyAawikaMs2s5Rmmmk3DnAPcU+G7Esoc4wWyfXNZzQzS8bkz3AYAU5A6ZXGSO4OQDW3JFhG6OrtzG0m7GD7eta0MiiTb/wAszwB3BrjrTWra1IFw+OnTrW9Y6nZ3rLJDOCFILAgjArCVPlOiLTWp2djEXA+XOO9dLb2Fq9mr3SyRnkhlB4FcJYeN9M0x5MwyXe05KJGxAPrkA12Nr4+sbyyhujp1yqSECMj+I56DpXXRUEtWclVu9kWJ7ayt7QyW915ix437zggE15fqSteaxqBtEe4EMhEpjGQnHevTr7xFpGo6ZewyebbboyhkdABn0B7kGuVe1hntJPslk8KQxkrJnytwwfxescY4SSgjbCuUW5M4gSpllz869V7ipI8EZ9e9Fokb3XnvKkflpubPVhxwB37U2IoJJGVTGrsXEZ5K5NeVUppR5kz1IVG5WOg0Af8AE3sf+vpK9FucjVtLPrLIp/IV534dw2r2OP8An5WvRL3i+0ps/wDL0V/NTXsZWv3J5WZfxELZaTDq2lwGSSSOSBTGpQjGM9xiql34RuhkxPBcDsD8jf4Vj6zd3Nla2bWl1PbussyExtjI3HqOh/EUWfjjWLfCz/Z7xR/fXy3/ADHH6V6kZaaHnSI7rRri1J8+CWIerLuH5iq0AuLS4iubdgJY23Iw5GcHqPSustfHmnSqBd29xbE9TgSL+Y5/Sq97rfhC7yXMiSH+OKB1P6Cm+V7om9tmYdteXd5rlrPd3DyyeYBk8BRzwB0FdRYf8fWmD/pykb/x4Vy8F3a/21EtlI00OCu+WPaeQeg9R611VkuL+wH93Tc/+PCp0cim/dNUU9fugU0daev3KtkIXPelFJinKKQxQK57xT/x7Ig6sHA+uK6VRXPa8f8ATLJPWX/Cotd2HtqZmg2s8tkxihdwJGBIwADmsDxzBLBqFgJV2ZiPGQf4h/jXofh4KukqR95pZSxxjJ8xq4z4l86jpi4/5ZuSf+BLU4hKUJRZ35W7YiLMNeIwaUDA+Ud/60yQusY2AEnJ5qva6kl75lt5UlvOnDRuQTj1HtXj4Re5ZHdiXaTNJVSRgzAsyf3SQAfwrqtHgtrzw3qD3M8ludzh5g5jMagfK3GOg5rkbW2cKqPM+1egXgEe9dRpljbS6fIZIt5d/nUsdrAdMjocV7VBaHj4iRQ8P2NqY7e2k1aLVA90XluSSccDCHcSeSK67WJo0tjLBe+XJGP9XGwO8emOuay5dItbyyns5E8tHxtZBhkOeCD7GptJhubey+zXxja4hJUSL/y0Xs35VrKKb1ZzxdtilDqEsVxF9oFyySOoErZHlEZPAxznpim39zNqAgZrQhxHtmkf5CxB4x/M/lWvNGjKUcg5wcE9KoSMu/a55JCqf73/ANespWSsWrt3KVp9vg3C3kSEsfmZCMkZNS30Wp299BrUTPdNApQwnnCd2wOpq/BGEBdlO1eScGtGFzv2qmSCAWzgKfT60QSsOVxEnvJ0WWO5Uo4DLtjA4/GipmtJSco3l56getFa6EWZ4lqep2iaO4/el965jCEPjPoateHZ2llhZFdwykhFHJNU7trk6c4dY0UsBhSSw/GtPw7bKZlkR5IJe0kTYP8Agfxr5RuN13PoYp8judXFBcNNFcXQjlnjOUPlgbR3XPoa1LjVLhgyNbRNAQFAcndjHQn86TTIrp54/PuoprZjtDSIEcnH8JHB/KtS4srOROJSSuQQoDEfhXqQUnHQ8ydk9TE066jsDKYYSglUKwEhzjsfqBxS/wBpWepXUkcc88RhjZJSqBlGQMA+uKlezhklaGG5GejMyEBDj9alttBjs4BDA0W3kk7sFj6mhc/yFpuy9Dfx8uJ02nnkEHFQjWBdWjxlvIunLfZwCCJBnjkjGSO35VTl0udmW3QcdXKkHC//AF6dNYSlNskeU4+VlyAa1hNxvdEuN+pbvb2W2ZbWGeMxuDEPNBHzgZOGA/mPpVeDWbi80lbxLO3DtuV7fzCHV1OGXJGDz64qG308JNuVMHpiqk1leX2qSfYGe2gGBLcRtxKcc/KeOOmaiVR7jjDSxaGo215Y291GpjE0gQiVNrIc4OQf51EbOxM0cKqVDNgEHPNTvaSW0CRJkovQycnr71kXQa5BQ20TwngsykE/TBH51jKStdmsb30J73SkjjlYTgIn3yeQv1rza7MclxIsbktuIyRx1r0OLWX0+yNsYfOQKFHmHOV54Pr9a4tJLOOVy9iso8toxvO4gn+MH+8O1YYhRlFWZ04dtSd0c5dxzxKIoMMzctIO1aOl6aLeMcZJ5Y9yamFvazXG5Loqc85hIBHvV+B7fzhBFcxSuuNwTORXBWlPksj0aXIpX6j7tCmkgHjIH864rUjjUVz12iu+1RQukqw9B/OvP9SOdRX/AHRTwF7u51Tf7r5k8ZwvvVy5Y+VF6iIA/nVNeI81YuGJCf7g/pXQzCp8cSeKFZ9AvyR8yYZfrzXERkYeQdjt/HNeg6SN2mXi4zl1GK4vUrE2Uxh+6GkLe+K6cFUV5RZ5uOh710Zc1sxZLluEZsE1qQuREVUJJGxzjIBBq6kcd3oU1kOJAN8Z7hga5ZLl0lZJRtOcEe9ehF+0Vn0PNfus2pJFwDHPx12Srn9RVi3uEB+aGNnAyDzjNZlvsfD+aCOwPXNbFrbBiGGDWc0o7mtNOWxa0nbcTE5RdrAkBcCtN4I55ZLdVQRxEbW96ytKtntNSLSOCJSMAdK30tZLZZicPHI2cjgr9a46j5ZXR3Qj7quVI9OtkfftjbnJJHU1t2NrbsNoUR5GMpxWaI9ygL2NW7WUo209RWfO29TSMEkaml2UGkTag8j7ppEDwBc5k6fL6VdRzHZNpkb+ZFIpLhhxESOzD0POKqz3v2e1iuhceW8ThRGwyJQR0+tWprhPKgtbGPYJEDFIwMx5zwfet5SskkzCVO+ppWbpBMY5ovt10MMgP8A9eeFJ7AVZF7dsbiDUbd7bzQywyQsHRQQfvk9/0pdIMKxhdOgku7lgC7DgAnuzHp/Orc2n3Atro313iTy3by4DsReD3+8f0rmSluNtbHlg0121L7NAUkJIUXWCV6f4UyJRE0kR4eNyr85yR/SowsohDs3lRtgg55I/pUsGSAEHyDuc5NY1pRa2O2jGSZ0nhoE6pZD/AKeRn8q7zUARcabz0u15+oNcP4aXGqWXH/LyP5V3GqEj7G3pdx/zNetlS/c6HlZp/FRzviQYt1XqVu5h+tc6pI6V0niMExzA9VvH/lXPKvpXW9ziFUmn8/WlVfbnvUip7UXESaduXUImPHXH5GvQbQf8TO2Hppi/+hCuCtl2zqfQE/oa761x/bKj+7psQ/8AHjWkBS2NNetPT7opg9acn3RWrM0PxzTl4pgpwqWMkFc5r2DqVgP+mmP1FdGK5vWvm1axA7Pn9RRHcb2NTQSo0WNiTgSS/wDoxq474lgf2npfvG4/8eWu00JkfRomQYUs+ATn+Nq4f4jZfXNPQZysJOe33h/hWdZ+7L5ndlivWiZYhLgH0qlfaOLmRJUfyLhCCkq9R9fatErIFARtpIPPWqdrqbzTmzuokguV5CgnEg9Qa8jCqLjqd+JbUnY27a0zAqysS4AJIGOav2dtq9359tp91BbIkYcPJDuLEk4BHbpWdbxqNpAfzASwYsT/AJxXRafZpJaxu6JsJO8nqTnj9a9qlpseNX21KehXs8G6y1+4LXc7Opl2BBDgDapI4yQc5rb0u9jitGjui26KUqshU/vBngj1qnd2kd9avb3K5D5YMOCp9RV+NnaBYppd0i4JcYG4Cq9TLpoVbu4SW6WdIyZ4yVk+UrkZ+UjPqKqu5ZpEVMBxjDN2rSuQHBKnEi5AI5OPT6VnwwvJIQylWUAkd8HofxrGaTZpFtIt2ZlWzlVQIy5Cq7MCVUAfmTzQJijLp01xHGZQWi8uPG8Zzge4qa3tXWBrgLgYJ92FJcWyXVom/iVWDxY6xsD1zWkbRRLu9h00Fy8pdLxxu5I4HNFSQvPMZNsaDY5Q5Y8kUUe1iLkZ41qV3bR6O0rP+7MqqGTDZPOOnNXvD189tcxlLVbklDiJhkH3PsK5rUFgjtVm+wIjbxycDj6CtHTtYPnwJplrcG5XAAQB0IxznNfNqCdppnuKbUHFnodhaWqar/an2aDzZ1CTiNmKD/aQHoR7Vb1OKDUV8jyrmLDcXETYKf7Sng/nVbw/aanM0099GI4G+YHGNox6c5/OumXS8rw4IIz3r0Ic01scEuVM5y0htYVcXLXMhZi/nSKJMnHIOPT1q3pzR/a7k21759phQIpFJVH5ztbr+HanX+l3d3by2mnyRo5by5Js/wCr4BPHc81cs9E/s2yjt4hlYxksSMse5NFpX0QrxtuETLHeTF0i8uRFYYYg5GQfwxinxTWl0FdjNEqkhskjHp9QeuahlspbqTZtdIVOHOOZB6D296mKywkFMpgYGBxirjKz1QmtB4kPm2zks0DHaQhGcltoJ/2atRXVvLa7oITsUsoXAGSpIIH41QhgYKGPLDofQVn6lG8e5LCH/SpOTgnYg7sw/wAKt1IpXsTyNs0kurDVZRFDKGUBhKmcMjKR8rDqOtSS6fbs6AMACcAcelZFtZtahXdg0vO+TABxj164qvcSNfjYvmJCGH74MVYn/Yx/OspTT1saRi1sxda0WKGGSQzIFVSx9RXnU1kLpiVuvLjbkq6EH8+a9Jmu/s1kYrlRdplNxIALgHOW9+lcLLIrW8dvHnEcplffgiQn+XFcmJUbJo68LJqTTMe+tZ7aJLayEcjSdZIzkRir+jaUbSFQBukf5nc9TUs2nxwTW7OZ7a4kbcIyAQ8ffI+ver9vf2nnmGK6SSVB86KD8o/lXnVYvlt0PRpyV7oj1mMpoyjHTbXnWo/8hIZ/uivSteYNo6sO5X+tea6l/wAhM+yitsFbmaR0Nv2XzJlb93j6VPccFQeyD+lVlyV/Kprhs4P+wBn8q3aMqv8AEiaullf7Ju/9qRR/OsbWrPzIY5IxlkyCOpxWzpOP7LmyODKo/Sh57ZGZJFdc55bGKyouSqto5sUk9GcWszRSArkEHmqt3Aksu4qMNyOxrspPDqXBMkKyqTz9wkYrGu9N+xSGOXDp1x0Ir14VFe55kqTaMaC3VSMYwK27QlV56iqPkqkm5H3DsO9aUEbJGu/77fN+FTXlzIqlDlZbijaYDBwQQQRWp57PYsjp856kHjOetVLJNrYP+RV148fKOjZrgbvudqfRiW3AXPfr2qcRDzN6j61GEIAx+dWbXPmAGhItd0bekhkieQDJJGAVzxWtaXVrb2st9LkliFRhjDnJznjPBrFllvLMQi1mMcZAZ9vercU73OHlO+RejEDg1potOpzzcm/I6uwjuC7rZKYEfDMUXbuOOuOw9B1PfFSXSnTfMSPUVAcO0sVwocycclccj+VcbLquuWkjRJqcvluwAC7c8kA84/Wu6t4tOghuLW1i8mVo3AWYHdLx13Hlhk46mt6EXKLZy1NJWZ5HZ2JvL24uobWIxlGkkRvljUAZ4/lio7aArGDjC+n932q1a/bpozpMUMrsAZjBkYcjuCO1SW1pMSHn4YHAjU5Cc/qa8jEyfLqezQik9Ga3h6PbqVmf+ngZ/Kuw1b/UQt/duIj/AOPVzukQ7L2zOP8Al4B/Sui1j/jxz/dkRv8Ax4V7mUfwDx80/ioxPEQ/eXS/9PIP/jorBC10PiLCz3ZPTzEbj/dFc95qg9M/jXVJ+8cXREqqKmVOlVTeIhwwAPoTS/2lGvRUP4mgltF1RtO4ehH6Gu6t+Nbl/wBmwhH6mvPIb8XEojCgYBJxn0r0KD/kO3Y/u2sK/wA62pik9NDSU+v409PuqPYVFng59D/KnKcbfcCtWjNElOFQvKkS73YKgIBJ6Dmpeh5qWh3JQa5rV3Ua5ZbjhQSxJ6dq17xym12lMa5KgAgDOO5rx3xR4oRtSkW3ublkB2rK3/LM57eoqHJQs2aRg56HpOn+JNI0TRFivLyNZ4zIzQry5y7Hgd+tef8AirxYusalHd20TLDGmwCTAI5yfxrj7vV7hGJuZXnjblZVIP41nzXNwPnidJEPQkZzUVZxaaXU3w8ZUpJp7HYPr1/PskhuYEjYfKFiB/nUFzqs87RtdLE+w5R1X7p/pXPadNDdsYEbyHbkxk5GfUehrXt43S6+zyriXBOOzivMkow0R6cU6mp1Gm+IFbEV1BgdNwPFdYPEIsfDha1Xz7p5nEKspcBeuWA7AHFcNbWbCMsxAAGRu7rnn8q6TRhPYzt5DY3cFf7w/wAa2w+LadpbGWJwalG8WbunyTQWJGqyvJdyXDM5KDABC7QMcAVojafLLRTj5gcBOowaRLxZYseUSpUbgeaWBp3PlqkjhdzAsRkH0/CuuVm73PN5XFWEkuZJA0SWsqSxsQQCMMpHBz7+lD293LOs6RpEWQRyKz5JQHgemRyfxp6PJPHHNEuQR8rZ4YVKrXGCGj27QCTkYx/9aobV7FJOxdkUS2XkRZiAwBnnjI9KoW88sd8dPnlKS4LQyGIESr9fUelTSyPbwedJKixDALkkAEnH86ilgnvLaDenJcMgzgxnn5s1baJSexYW0HzMbqZSzFiAQKKhRjukWSUhkbaSoyDwD/WiovEdpHimuhItNhdztSRxtYqTmt/wd9nsbtDcgMPK3LGvBY9q5WaKyEKtJFO9tvGMltoPtmun0y7EFwk1nJAI8eUY5oySB7beTXkJLRxPTi/daZ3SSXgupXuXluIJAPLiCqPK/wBk4xke9aFxNNcWieTG8UokUBlbaUTIJ68cjIrD0K5urtis0KInJEhcbVGfu+tdEIpOAPLb6OK7oSla6OOajsyCxuPs8Mi3FvI5MrP5qYIYEk5+o6VBZajLqFzqDRyf6CsWyOMglt/PPsCO1WDbzSlk2MIumVIJYf4VYghW2jMaQeWpHIVcA1XPO+uxDjGxcS5tiiHzApwODkdqqf2xZPqZsVl3TKocjBA2+ueh57VGJpJIxFExSNeDJjJPsv8AjTJYIP3OwbDESUIAPUc9euap1USoO5b1G+htIlDMI1Y4aXjCLxkn+X1p6yWklt9qtwksTkHfGMhucZqg2nw3BzKkbJuDYVQMnOfyzVSeNbKYraZcyyl/JVyNhb7xHt3xTlVjvYagzRe2t795kVleKPblUbqecg/4U6XT4cAjKnBwMe1ULO0a1nupTKVmuXEsjRnAJACjr7Cmz3V27iC2unaQH5mYDEY+uOvtWTlB9ClGZBqGmstqzFSTtyABya89b7K8jLHO68ZZmiIC/wD169Aht7nRhNNJcyX+SXSa6Bd0/wBnjgDuMCuBuLHBkktbmcOXMkyGMYlJJPHoeo4rjxcItKx24NvmaZW1b7e8gjtpfNlmUCS4YnKLjjrV3RtGWytxg7mc7mbu1SyaXE1vHPBqItnlJIDgkOAfuMp5B9CK0UuraNvLjuYpJE4KI2SvFcFWMuTU9GEorSJT19dmjqPQoD+teaaiM6of90CvTfEJ36SrdMlD+hrzS+GdTb6CtcIkm7HRa9L5kg/1foeKknxnpxsHFIF+X8qWbO7pwFA/WtkyKq/eI29EAXTDIcFRcoSD0xXpEbrHIdtvAM9P3QrgPD8Hn6MiYzvvFX8MV6YYScDeiIowAFzxXTgY3cmeZmMrSSIlmmddr8A+gwKqXunRXcfzpG/1UHNaPlIRy7sPoKTyyeEYgevFeny6Hl81nuclN4M064Y79Oiz1LR5X+RqpL4D0x3LJfSwSdQMhgPwrvVtUkj2s7qR0Oe9Nk0/djzkSQDoQMGodKMt0Uq0lseev4M1CDDW09vdqOwJRv14qjeWtzYD/SraWLbzllOPzr0d9IkT5rZ+nRHP9aiF1LCxiuEI9Q4rF4WPQ3jin1PMo7qOZhsO7PpV1ZYrUB5DyeAACSfyFd1JpGjXp3yWUSSZ4kiGw/pWPe+F3tI5LmyuTOFBZo5MBwvse+PSueeHnDU6YYmEtDm59euWjKw6TPIqA/vJiIxj2zzWSniW/MqKggtgX2tLuL7eOOOBXTQTpNGEfkHoTzSXGhxXC5RS0ikMrAAgHPpWcZJsqUbEdjM83k/aSnnPIjIV6SDcOfY+1eqOL2WxkCRRLBGjFXYb3c4PQcAenNeZw2TpdwyTpEjrKgQJkn7w/L6V69bj/iVp/wBcsk/hXfQSVNnBWuqh5nLplpDZRp9qll1FwsiNCxCxqR0yOxH51FFEgYwrsLqBuCAYTnp9azk1C4vYobCx3xq2N0ncj+grobazS2hWGMZAOSx6sc9TXzdaXO7Huwi6cbvdlixixcWhx0nrV1YE6fJ+B/8AHhVW3TEluf8AptVzUwTp83+7n9RX0GVaUWkeJmLvUTMfxIMm69zGf0rmQvNdXr67luD/ANM42/nXNhK9BW1R51VPSxmXCZnJH+eKaI/Src8f78/QU0IBQcjvcdYLi6B9Rj9RXpsP/Ie1H2hgH6GvOLVdt1H9QP1FeiwH/ifaqfRYR/46aqGrOmPwIvk4B+hpA2Ng9OKYx+Vj7GkB5HtirGWGVJomjlUPG6lXU9CD1rI0S/eC/uNAvXLXNqN0EjdZof4T9R0Nayn5a5vxfbzQRWmvWQ/0rTnBcD+OMnkVMtBXa2NnWLQ6jCLRiRA2TIFOCwx0+leB6xpst1e3UMeQkPIA54zgV9CWtzDqNhHe253RzR7l9uDx+dedzWkct/dtYxtO8jgN5SlsYGK5sS7Rujuwlm2meSGxe3g2jJXqV6ikVdsfmRkjIyccg/hXca1pMVixlvI5bdT/AH0I5rHtbO13F4smFjyGBBz7Vx+1bWp6CoLdGI0Ud5sOfs1wo/dyg5Umugsbl9Rt/s1x+61i2+aJsgCcD0PrVWeytI5BGJdu/kAZJX6qKw7+7ksroohdwpyA+Qf95TUpe00LuqSud1aeIt8HnyQ4eP5ZVA4U9M/Q9DV+y8QJERasT8g+RlPzNH2KnuRXnv8AajmIXzM53/LIyDCuPRvQ1IlxE4CQPvTh4CTynPIrN0ZIuNWLPaNM8QLFJulwQcJKnZgfuuPY/oa6y2kzGHityV6gu4Brwmz1hlskEhJeElcN/EhPIr0nw54g82y2OxZwoxgEk06VV35ZGGJo2XPE6W0mnCmIW8ZeNiMsxAPJOenSrMkM+xX3QhlYk7VOCSOe/SslLxxdPiGdmHACxHgVajv55JhE1pcJltuXTAx6/TPFdUWjga6mkIpGtpIJZlZXj2ZC8g881VsILi0QW810WRQPLZcAZ9Ocmq4uNSw2NOl4BJ3MKdOurBkRLaJwybiWfAB9OlW5MlJFtbclnJnkXLE9aKy4rnWGeVDa2b+W+3IuD6A8+/NFZOcS7M8k1tUSxjR5kjIkBw5xkYNaegO1k0Vx5UcpwCAScH8etZV3HHqVrDbPfbljkDbSAOcf3qbd2bNdRxJexSWijI+YqXGPT19K8upTbiuRnp0pw15j0seJ5ZIfJ/s5I1P9xu35VauPEcV3aSQiykiZ12lwQcDv+OM14Xqkmo6LPKYtQkMAfEX70h2XscVBF4y1mPpqFx+LZ/nW0aOJteMjJ/Vr6o+go9Z01FVFt3SNeAMD5VxxjBqxPqtjLautvNMrnHBBHGa8Cj+IGtRgZut/+/Epq9F8SNVX7wtH/wB6HH8jVWxUdNBeyoS2Z72NQsmkbF9tXgrk4H60k0kLruS7SQ8cAjJrxKP4m3P/AC0sbN/XBYVcj+JkJ/1mljP+xPj+Yoc61tYi+rwvpI9oKqzwwxyr8wLEgdhj/GmrpkMEhZAnmNnDNycV5NF8SdLON9hcp/uOp/wq5F8RtGOMm+jI6HaDj8jVe2dtYB9Vl0kekXUMqtHEBjzG2lgeRwT/AEqH7M8JVBGVTPXgj61xCfEDRXKk6pMmDkGSJuDVyPxzpknA12Eg9nBX+YrP2vVxY1h5rqdPesfs7KWBUqT+FcA9xbXEZMN9GmWI/exsMVu/2/p91GU/tOzkVhjHnAHFZ66TpDpthaIrjA2XOf61z4io5pcqOjD0+RvmZz+qX14XihinFxJs2pMpyI1/xNaGj6Stpb7mO6R8sx7mtJfD9umTF5uT3yGq2ts0KgbHAAxyK5Jc0tJI7E4RVomX4gGNJUe6/wAjXnF4udTf6D+Vej6//wAg0D0Ycfga87uRnU5T6ED9K3w70Z0U1en8yXb8o+oqGfgsPYHNWgvy/Qg0l1bSS3wtol3yPtVAO5Na09SK2lRHaeBLZZ9HWRufLuCw+uOK7hQZCB2HWs/RNGXSNJgsoxlkGXP95+9ayJgdOe9exhqXs4+p87jK3tKja2EIJwij61IIhjb3pcqgz3qJ53PCDrXQchIQkf33CimDUIxJsizITxgDg1AbYsd9w+F9KVZQPktYto7tjk0agWvOERwVAc87V521Jv8AtEe0xI2OoYDFVEtnALSOEB6knFN+029uTscyN+lMC0un2okEhiClRygJK1bkRNgKxRbcYIZRisv7aNpkZsDHQ1W8xLkMz30SI3RS2CtGg9SrfeEtHkLPaT/Y5eu1MlCfoen4VkSaNqmnAyeULiAdXhO4AfTqK6PztOhwHufMI4+QZq1bahbBswxye5LYrmnhoSd1obwxM46PU4fyJvt0FylzuheaMPFjocjHNehnXbC3szaySss6r5Wzy25bHQcYNZV/pmlajdx3IT7Pdq4YSRsQrEEH5l6H69an1NS32YnG4AgHr2FFvY0pMaarVEctoul/YLRN4AnKjf3INa2wYyKVUI/z71MEJHTvXzbV2evKTY+3X95D/wBdas6kP9Bm/wBw1Hbp++gH/TXNWNQX/QpR6qf5V9DlitSseTjfiRlauhkhkAGS1vGQPfmuYMLryUI/CurveVT3tl5/GswKQODXTKN3c5G7JI5ieJ2vDjOMD1x0rQtbMsRlc/hWXqulS3GvzT/aZ0jZVCxqSB07fWtCy8I3UoDyXMsER53SSkE/h1oclBanL7OUpOyL89uIZLMhcbpgM49xXY2wY61q5wcb4lz/AMBrmbTTdK0lg4llvLheRJcOSF/3V6D61JP4lCMWZnIJyTmoWLSO6GFk1ZnWyBvKfg/dP16Uq8D8q811LxjNb3CNZTFnbK7evFXdH1TxVqU+yKzuI1yC0sy7EA+pHP4U44yLdmjSeBlFXuegxnPFRTz2zLJby4dHUq69iCKktY5EiAmkWSXHJVcDNZupFSxwAZMEjsKdbEpL3SaOGvL3hLWWw0TT/senpshDFsMxJyevWsm51Rtm2Cf7PtPCw4Ga53WLzb+8R9snRiW4x9KwTqJySjuzdsV5ssRJ6HpU8Oo7Hqllqd0+jLJdxrcLuKNhNxx7jvXA+Lbm3tdRiOmQxiIj9/Eg+62eoHYGp9C8YX+mWk7i38+2Rl8xycFCeMCrl/4lsNdsiZLZlu42BSQx4IHcE1TqKcbX1HCnKE7paHIIqne6rtDEsSBjJrJ1jRY9QgJJ8uRfmRwM4NdM+2YlUxuOSMVmTTDy3XocEVNOTi9DedPmiedw38mn3D4PmQ9HUYIf6qaWa5sHkWewmEbEgtAwK7T/ALP/AOup7rSZzcOI8eWxyCa0bDSYLeKX9zBOwUFzIMn6D0r0JVIWueZCjUbaILfUc3TR7jhsYLc9q9K8AauLbX44SQ5OYQQcEkgEfnjFeP3N35dw9qF+WGQiNx1Az0Ndd4YvXj1KCdPviRCfrkc1zVqaVpo2p1HJOnI+jhd3UyqESJecMxJyozz260Svd74XR41bkONpIIPT/GoBNLIC6BAwOMMevSoRqDyFk8raysVOTnB/+uOa09ppqcnIi9IL52DLdqm0jCiIYaiOVpy6i+lLIcOoCgqfyqp9puRGrbABg8knmoZIigm1EqUuo4yGQE7ZFzxmn7VvQXIW0sFJd/NkVnYs2Mcnpk++AKKri4uyAdqjPODmisueJfKzxrVET+z4kJCYk4GQM8HpmqmqPJYaKk8GwOxCg4yfrV/VrWfWre3hWG33I+53Vjhhj+6fu49c1Ff2s91CNPEIKRgM0hOBgDqDXnuDUo2O+Djyyuef3Ek91M0twzySN1Z+SaZ5ftXTLoU80bOkXyKPmJzxXR6L4P0O58uDVru9F1OQsS2SgrHk4BZiCPw7V6cKqbsjlnTSV2zzbZ7U4KOldpfeC/Ju5EttStJYll8sGU+W/UjO3nI75BqlqPhiewuJIUdbryzgyQKSh47HuKJVUtwVO+qOa8sUeWMc1rf2XcDkwvjtkVNaeHtQvnVIbcjc4QPJ8qbieBk8UlWi3ZF+y0uYWxuxpAr9M10Go+GNV0q8a2vrR45AoYbSHUg5wcjI5warXWhahaHFxZyxMQCFcAEgjg49Kv2ivZk+zk1dGOWkH8R/OommnU/eNXmtX9KrzWkmOnJqoygyZQqLYqNeTjgtn8Kat/OrYDfTilkt3Xtz61AYnDDP41qlF9DBzqJ7l+PVr5PuXDr9GIrZ0rW9YuLpIUv7ldxAGJmrmQOcV1vhG0DXDTnoq5H1rlxahCk5WOvByqVKqjc9L1Uk6NBuJZvkyTyTxXBP897Mw/vnFd3qZ/4lEA7fL/KuDjGZXb1YnP414tF+62fRQty28y5j91iuv8C6c9/qU+rTwpthURxHGAXxjP4CuTVSyqo6kgAe9exaNYJpejW1oowyoGf3Y8muzA0+eTbODNKnIlbdlsK685QD0wTTt7Dsh/MU1m4xULMxPHavaPnGTko33kK+45FG1APlYD3NQKkjH0FR386rdQWCnLPmSU+iDt+JoESsqHJZt341E9y6DbEoFNKwudpVAexxUElq6EupJHorUajVuoySO5uG+djipbe0RHGQXOelUZJrxDlHJX0cA1H/AGnM4MEuF3cEqDU311HZ9CTUZZ76Ux26HylO0Ed6hh0O5fBZT9AKbJqFzArLYqCi8ZNZ8ur6s2d8sqj/AGeBSckUovodHDo0kXPkk/7xFT/ZfL+80ceOuWFcWb66Y/O0jH/aY0qTTuewoU10Q+Rnao9nGcyXEZPovNWXu7CaNIwjttO4HpXHQh8je+e+BWzaFFwQcrjH0ptc6s0JLkd0bn2WCdBsTY3Y9RUT2bxxhSOc/pSxXOcIPzqXzzDkuCyd/SuSrg4S20NoYiS0ZDbJ/pUIx/GTVi8geS3dEQsxBAA78Gpop4/7QSJVBjdNyOvVT3p7T77qS1OPtMeGUkffWt8NTdKPKzOvNTd0Y76bezpb7LZ8iDa27Awc9KafD1wIHdriLeqlhGuSScdM1urKmS6qcHGRuPy0XBWBlmVcxN0IONprZmVrnH/ZLSwvjcRQSyXVzEkivICTsI4AXovPHFSPZateHItJQp6lyF/nXQmTgLDKFYDaAwxgZ9fSq2oRXNuEZ542V84IBIzXPKjzO7ZtGpyqyRQi8GJdBGvLjaRyUhYE9PWrqeB9CHE9hNP/ALUspP8AWq8DPK211xjuDkYrbg1CZLXcB5nlNhx1O3HFXCnCPQUqk31ItO8J6HpU5nsNNt4nPViuSPpnpWxGyyR5CkdirDBFZ0Wu2p/1jeWe5OSKuC7t5wDDPHIRjIRgeK1SVtDOTk3qUL3/AEeXaOhBI+tZ10izREuflHXHUVd15wunM2MPG4wfxxXn91qt9PqSWFtdJBKykrkbmc9lA6ZPqa4Ksffsjuo25OZ9DnNejNnq1zCsvmoGypz2xmsWW7dOBgegx1r0yHwDYf2dK1209zfspYyeaQN/U4A7VyF7p/8AZs6/ZIYysi7t0pyV9s0qmEnThzHVRxlOpLkW5Fpk98tlJBIscdrIyyMCPnYg8UXV8CCAeOT+NVJ5dSI+V4h+ZqD7NcCF5Ll42LEYCA1zttI7IJJ6gl66zBkOD6058Mpwcgg9Kh2pxg4PQU7eqjAOPWlGTvYufkM2rHGWCb2A4XuTWbcH+yrWe6uXQOy4AB6nsPwpdR1EWoyoDHng1xGp6lPqM+6ZvlUkKnQLXbSpOTu9jz8TXjTVluVvPZmd2PLtuP1rpfDOpC3vY0c4TcG9d2CK5dF3MB05xk1ttHBHHGLYbtmN8hzy1dVWHNHlPLpScZcx9Hnxrp8Soz6laQMyhgu3kDFVH8d6Srs51ZSzYyVhbnHTtXlun2w1mxhMgKbMhpVYjI7YrnJ/NiuZELnCkqOa876rUcfekejzUVsj2yX4haVjBv7lwOwgOP6VVf4i6RknzL1z0J2AZH514yGkJ+8aQh85PPpSWE/vMXtoLaJ683xJ0wN/qr0/8CUf1oryApk8mij6lHuP26/lO/uYjbWoa3PlqH3FskYGKsrNJDbxSn55MgqT83P070sbrdeQLqa2jZZCryHJAXHYdc1ZRn8iX7OCCMlQmAcA/wAP1HPFc7jJOLixKUeWVytBf38e7ZcS28bMWMUfGT71ctNXubNgUKOgbcUkGQTSRXLv0nuY3UdJeMVdtI5ruV0N2iFYmcNIBhsDOPxrZXezOZpFdtYlkYMYrdFUk7VjBGc0RatchCkcFu0ZHLSIMgelQyu9xcMsk0aRQgKQVUbm+o7CrawvEQmyMjufKBoXN3FuiM6miIB/Z9mxUAf6sjP5VZ07WrWCRUuLCOOHzklzGXbYw7hScZqH7JumbdFGMKGA2nHJNM/s9yrOtuWRcFiisQv19Kacnqh67Et5f2iCf7M/m/aSd6DcoXknJzwc56CoPtmlXU8b38MgAQIBneVCjgDPb27U250y6tpo4ZrNkeRQylicMOOR61BLaeVkPE6uM5Dkgim5SvqCulZEdyukvPLIsMgRmyPMjBxVSCTS7O8juI7SCYLnMc8RKNxwetTpZvPCkvlEKwBAyDimHSpZJABE/wAxAycYrO93dGkXJdS5rV9pWt3kAma3htURY9yQhMDjJI74Oa5y6sdCE84sZdPki84pG0gcvtA+9tPHNT6rphtYZHkbG1ckAZNcuUiwXM7tnoPLIAraDk7gpW0Rc1Hw5bwsGiv7NGYkGNiRgcc98Ct3QbaG3syiXMEsmTvETA4rjXjkkmEcDb93UjNdnoVmLOy2nlm5JrDHytRs2deATdRyS0Oo1Z9ujIf7qgn/AL5NcRADgH15rrvET7PDpI7qq/mK5OEDG30FcND+Hc9ePRHXeDdKXUtWDyjMFtiRvc54Femsx59TXI+AIhFo1xPjmabA+gFdS717eDgo00+58/mNV1KzXYUt1NOVkFVg/HPfvSb+a7Eec0W2nSKN5XIWNBuNc3pdy17dXV+5yZWwmey9qta7Mf7LMSnmTINUNOIt7dUPGBSb1BI0pssPlOG7VFDqJjbZLwR0JqCSc9c1UuHWZc5+YVLbWxSXc2nvrdV3OPl74qsbrS5xtLp9e4rHhuCp8t+R05p0tlC8gcNsDdSKTk2tB8tmRXU5ScQRPujUn5l+tSrcxkbZMn/aqjcN9lmZFbzEJ4YVAlwQSOx6Co5mmact0bX2SCQBjMkat0J6GpU0eN+UuoyPrWKsxxjOQeqnkGm+cA2EbavoT0puaQKDOjTR0Tk3sQ+pqeO2s4mDPqMSkemTXMLvbndn161NbrNM2yKIt74p8/ZC5O7OthutNh+ZZ5Jj6KpAq9b6xb+aqi3IU8E4ya5+10x1G+6mEaei8mrL38cA8u0Taehc8mrT0uzNrWyNyOWMXEjiJI5GJUBTnj19ifSnyxrdSRXAH76HhtvXHr+Fc9FO6EPnJ7nvVoau6yq0fEg7inddQ5X0Ne4laKVJEIVnBJ9M8Z/OrFteQ3MTQSRhM8MAcj6isKW+e4idnYM0TqSQMDnIpDceW6v6jBxxxRfsPl7mjPAbabawJHY9iKZqEjPYoOyvx+VWLO8SQeRcEMh+43daNSsmW0LIC4BDfLzkUB5GVZt87D+9WnZS+Rfxn+FgVNZVv/rPp1q4zFZonHZgaBep0jRQt8zRxtnuVBpkyqkaqkShS2CABgVBdanZ2ERe5mVMDOD1P0rJTWLq/Uzxx/Z7YAhA3LSHjn2A/WlzJuyEovdmR4h1WOGCNbuadbNpsT3McZYRgDofTJ4z2ry/xVYXui6jFdRSu1rcN51tcxybsnrjd6ivX0RZIyjqHjIIZWGQw968o8V28+mX9/okEpjsi4mhhblQCMjHcenFOrQUVcxnWclZbHo/gzxTF4l0weYVXUIFAnjH8Xo49jXO62sLmeAnEkchKAccGvPPDniC40DV47635eMlJYj0dM8qf513Y8nxJroS0uHjS6TdG+MlT7jvV87qU3DqLDzUKqcjDdlhGCoY+uc1XlnieIru5zzWZqt/9ivWtvttvOR0kiJ2n8/TpVE3TvzuBz0xXjTpSWjR9RTnCesWaE0yg8HjpxVR52Y4XvVcygfeNVJ9QSHlmwoHU1VOm5OyKrVowWpom1juIpPM6kYz6Vx02kyS6i0UABTd94ngep/CtiOW/wBWmS2tiYbf70kmfmI/p9K1haw6ddwxwMHPKuByU47epr0KMXF8p51WHtY+1askc5q+gLptnHNHcpNG3BI45/wp2mo1zarDChlkDD93GMkj39K6aWCzngD6jMjEEkbwACPcA1NZXkYh8vRbFJCTtLqoUZrtVM8+SV7o1NK82yshHcRIHPIjj5wK5++sZb69MthazyLIT8iRknOeRitBrbWopVmeezjPXbJJg5rufCl1I2j3CwIIrozrI8kTAkED+E+lOtTThYv2jied3nhTVrKMu9qXQYG+IEgnGTjgEgdz0zVIaRfuu5bSUg9Dt4r2q+N7fxLHeXEksa5wHwcms2K3dJfKlijwR8jAABvwrgcUmV7dtbHlY8P6m5OLJ+Dg5IHNFeumzkONspQY6BFP86KXKu4vbPscVd26W6xrEqRgkk4IBIxWjZ48sKOBjJJ5NR3NlBrUlupsZI4jIFAlIIXI67vY9qv6WbWGWaGSCCUI3lIJlYhcHGc+leV7Od42O5SjySb3JTcvNB5A8vyvunMSnIqS2nktiTb+UoZSpBQHjHb0p6apBLO6pYaW7ISCghIHX69KmS8ST/mE2fHGUDgZ/OulJx3ZxPXUgkitnj8sWsUYYfOYxguc+v8AWpjqX75LaDTbQsQFJjLA4x1Y+tMku4nl8tdOgQjlisr+tPFzbWkLyfYgAoLEicjPFJu+zDWw2c21kiL9jDMF2gCRiTzUEDSwCcxTXMInA8xBcFlPHQD056VaQwzRrLJbP5jgMcTE4GOnSo5BbR/fSRBjJJlFNO2qDlbGSXk11ciWYyFlwAFlICAAfd/u+tRztJLK8rySyySEh1dwQR6gnnP6VHBdW12x+yQ3MkSkhp8qEB9Bn7x+lONshk3ymVyD8uAABQ5O+oJMY7WzyD7MHRI1CuByGI9/X1qsmoRxXGUhSdV+Vw+QAfUHpkelWJkSV2gR5UC4LnYOh9OahNpGQER9oHABU1D1dy02iXWpdPvWsIZI7dEWE75FOCXY9WYenoa5iC00uDTL1XlsppncLA7MQYsHn5T1BHetS/05VhdzcIu1SxJjJ4rlvJtZMMmrW+09S0bg/wAq0529kVC66lyKwsmMM9tdWiyYKyJ5h+961tRRxrH8lxBJt+UiOQEg471x14XikFtaTRSBgCZIs4Htzjmug0OzFrZHoXbknua4salyc0j0sFKfNyrY1/FUhGj2sY/5aSoPwxmufUBcnFbviYBrKwHpKD/46ax7eIzzxxD+Nwv6iufDu9NI707XZ6z4btvsnh+yjIwzJvP1JzV6VjtJHc8U8ARKEX7qKFA9sVFIeFGOvNfRU48sUj5erLmm5DS2FFR+ZzSyEDAqBiQD+VX0M0Jcqs5jDc4pyQRsuxxg9jVeRzHKh6joauArJHlTzRF3FJNFOfSpAcxtlfSqjaXcD7w+mK0zcSQn1xS/bz/EM0cqGpMwLmwljBZecdqSzu1J8mYfKeOeordZ1mPXFZl7pjP+8h++OcetQ4taopSTVmVry3iWQqhyhxg1lzR+Wcjkd60iHwN6FW6EH1qRLLzRl+hocVJFJ8u5kqScD9alhtEkbbIxAPp3rVTTY05/Wp/ssZAHap5O43PsVbbSWQ7vN+X04rQBkgAVSn0xg1EqNFwCSO1OBUnLnOPWq06Eu7FLyTNsLFT6NTSqxnBPtTZp12lB0PWq/m46nIHrSbSKjFsnMhPC/jUysFiyPv8AamWbJJMq9C3Y1IU3MT0GeKW5TskTW6EWN23faG/8eFIrMwyfpVi0HmQ3cS8loWwPwqnF0HuKrYllhJNpGeRWtYar9mG3cdnoTWEzYB5qsZW9aHKwKHMdhMttqAD2hRZ15MYwN4/xrOup/IUP91l5GeuawEaTcCrFSOhBwRWtbeRlbq/led+scIOSx9W9B9aFJy0QOChqyOzsXuroXN4rurZZVbq/19q2pjGbaKBFxtBLEdM+grNa9eeRyoEYOMhTnjPrVsMqRM7HCqCT9K6KNCzuznrV+ZWQiuwby4lRpiM7WOABnqa4H4l6bfqLXVphbNGo8hng3A9yuQf5g16BbQeVvlfmaZgzn044A9gOKwPGkc+qLpOg2rhZr64MhLcgJGpbn8cV0VI8yscpwc9mni3w5Je29ui69piqbjy1wbuDH3sf3hXOabrM9tBJGkzxoRkvGSHC/wAQU9iemaksddvvDerO1uyJdKHSUSjKhDwcj61z9xrga6uHGEEg3EJECHOc/VR9K5HB8vN1NaUU3aWxR1K8a6vri5MQjiVsJCOQPQe+KrWGqNFdeVIf3bcDPY1BcahJcE7gPLznZ70zbbSjc5kiAODJgMDTcU1ZnRzuMvdNy51JIwQDuPovNYNxcS3lwqgFmJwFHP6VpW1toY2K97c3EjnGwAQqD7sc0XN2+mArZQR2ylivmo4kdv8AgXYfQClGKjoi5yctZM6LTyNMsVgYhLo8vnqpqHULLUGuo57eWMBTuHzAH6471x0l7LIdxc59e9MNzcPx5rkf7xqoJRLrYqVSKh0R00txYW0pmu50uLgksYoo/kzVy31vVb5QyH7HadAsKjfIPb0+tc9pOjyahNk8Ip+ZiCcV3NrbQWMKhRgKMEt1NdEE5a7HPFMl0pr9ASsNvCWORJPliB+pJrobSTUrSQzx3wklYbSY4VjBH61x954kt7M7Ih503QKvPNaGmPr0s0c91L5asci2Cjp/tVq7PQpNbHolnr0k2m+TdWiJeq5YTlhskT+79fwpq6o8m4OifLlh6g1hq0x+XbnB5PQVu6MiXweMhDIgGOOSK5K9H7SBqxGNVuwo/dg5ANFbq2G0EfZg/PBzj+lFctvMNTziaOSERiN5W3E7izGtLT0cthpS2Bk9gBWXdPaakYjbTSuVbaUO6PAOPmJ/uit/Tre1t76SxundH2AJLG4UAZ689a8pQqJxPSvBxkydhHI2Y0dWXq4kyM+nvWhaXcixyo5nfeu0AMAB0qC1awSNkkivJNjFBJFImHAPXHrVxDpLglV1FT3HyHiupORx2IQkcUp+TepYlmyCdv8AiKrboJpTBD5qyA5LAggD0q7nTJC6QvqCqrBSzRpzxzjmnQxabEdsL3KjJ5aEZ/nQ5LqFmQkJGpZiQF6k4FQ6fPNHd/6a6PZyMG2SQDEeDlemTV/yLa6uvs3mSYVRJymN3NNngiVsGU5/3CaSdndBr1M+WT7bJNcPM63JIZiMAy9iPQcVWZreGULcj5s4MmTlh65/Q1ekMJl8lJnaQJuI2HAHv9aiFshw0s/mMeoKnAocm3ew1dIoxxSLcSSPMjK6/KACCBk4+vHeoprsQyIkflvJkEqzEYXvWhIVeRoo5k3rjcSpwoNVnsE+7HKm8nknOWqGluNXIdVmsriziSJo45JYdsu6blTkjJHbjmuQl0P7PeSxR3ME0MLhWdZAMDON30zXR6npoitnmnmt40Ucu54A/KuTNmrSELd2xTqArH5qJT02NKV76Gp/Y5tL10Wa2kOSMiZeB7VoRwmJduY2A4yjhv5Vy12ZYWFpB5eSoyytuwPStbRLP7LasMYdjknufrXFiork5mephZzcuW2hs6+M2dofR84/4DVPQYvO1+xjAzmZSR7A5q7rY/0OAehH8qk8FwCXxIr9oY2b8cYrLBLmsjprS5abZ6UxJLepNMODJTumM1LFGh+Y96+lR8tIrm3LtnHFSLZZGSPen3uo22nQ+ZKfmPRR1Nctf+MZjkRBI17Z5NKU4x3CKctjdubZIhvdgB6e9ZK3ywykA/J2rlrzXLy5Of3j57scCqJnvZOd4XPbGTWPtlfQ1VJ9T0EXsUo+ZgDUcksXZh+dcBuvc/8AHw4+mKdvvRyLl/0o9u77B7HzO0a4RT8rfhULai6D5G5rkhNejrPn6qKDfXKf3G+oIodV9ClSOilvpJGV5DnbViLU4sYY4Ncqmqzsdr2ufcNg099WtYDiQSK3UhRnFJVGV7JdTrP7ShPU59Ka2oIelc3banbXALRiUgd2jxVu3uY55AiB9x4GRxUusylQRrm/YjAH51C1yzcdPWnxadNIQqlMk45NOn0+W0meOXZuU4JU5FTKq1qy4009EQByT9acDkYNWHsmi8oNNCGlXeAHBIXGcn0FVLKeDULiW3s380xZ3yAEJ17N3/Cs5VktWy40m9ixDL5Z5GR05qUzP1Vjj0bmrVrol3dTLEjQhmUkZY4wK0f+EP1FRlprYYyepP8AStYSlNXiZzUIu0jMsL97W8jmK5weQejDvV6drF232khCnJ8t+CtZ5tWSwu7wsNttIImTByxIB/rXLXviyCxuJLc2UkjoVBIlAGWOBVqco6MlxhLVM6iQszEelRO6RAu7BVAySfSrem6dPcZ+3qkbsFZI4nLBgQTycDpjtWB4mnbTftRWKP7OhKuXcjYDwMdc0OLepEq0YKyNCx1K2vdTjsogZA/JkB4AxVzTmJsdxOcyuMnrjca5bwlPHP4kRoWLxjIAZcbflrp9K50kN6ySH/x4114WN6ab3OPEVG3YvWpyze2P51psQ8sUHY/vXH+yDwPxP8qyrJvmfnHSr9lJ5ge4PBmOVHog4X/H8a7ktDk6mioJz3zXEaz4ht9G8WanrFwvmJpVmlnbRg48yeT5iPy6mu5jZEVpZCFjQbmLEAAV86eJdYbU72V04jaaSZzk5d2PXr2GAKzk7GkI33Oa1nUri7vrq+nfdcXTl3I4Gc/yrKjDyR5J/eM2B9MVNdFprnYDwKhZkATZ1GVOPrWEndm6IZVXzGVe3AqPcwVl7HqPenPvEhx69KhdievFSBJECSXxkJyc9KYcHJHHNSRhlgdwflJCmmovc0ANC9zVmCDLAHueajUbm9hVpTtGR270AaM2uSWtqlpYsYz/ABuvWqrahf3hSATPI54AzyaNO0e71JjNjyoQfmkfgY9vWuo0m30ewlKwSpJc7cl5SM49q2ipSeow0bQRYkTzYkuSMhjyI/p7+9dTbeeI9wKF+MjdyaoC9CQbwE8tT83qP/rVYGpK0ZYEFMdQM5rayjojWKSNKOC5ujsMxUKcu7dPoK0bSSTTruOeBjiMggg/eHcfiKxbW53N+8DxhhlfQirrZLb1+Yk4J5wB7U91ZjaueitrPnKksNpH5bqGHzUVyml+JJNLtDbeVA67iymRNxAPb6UVxPCzvuTc5SWS6hCKJXkDcEbRjGP5Vp6dG95N+/lRFABJK54rn/EU0tv9l8mZ4wzEHY2MjFdV4at1upijzCNfKySQSD+XNfP804uK7nqKMXCT7GtBDZ25k8pPOUqFWVQy7Tnnj+IVou6SadbqgBcF8uMDPIx+Ap/2CFDgajAVHT904/pSiwhbO2/t299rj+ldiuuhwt3M9GCRopiRVbAJQEDdnr+PvUUryjUoobdo/KAInDZLhvbt+Oa0xao23y7y3dGJG4BgOvuKlFjBbRsUmt1UZJK5Gf0qeR9UDlqN03H9rQSNDK0YjdWCrk84x+tODo0kn2i2KsEbaJTgZwf19Ks6eskF7HIXjb5sbVJyeal1myeJhvAQsS3J961StG5MmzmrYlLeeWZHjleTI/dk8dAPwqzGok+Uo7MoJ+QHDHvUzROSE3o7nO0buTVKOzvJJvMuH8pA3yQo2D+JrNtJ7FatFSIiK6vHlDqXlGAFJ+UAAf1pJb+2gk4EkrnkIgAIGOvNaLRO5ZYyhYHDHOdp/wAartpjhiY1BdupJBJqGnfQpN9Tn9VzqUEJWUBQrO1uynKv0XJ6cda5n7LJDceUVLpvKiXGAeM/UfjXaXum3KRu5VAFBJLEYFcnLc6mZJ3iuLdlusLKQyEEA8fT8KiWujOig2m2hgsxDqDj/WOw3JImMYxWpEjpEN4x2J9652+luYQlpEkYbAYyLg/rWlotoYLRmYHe5yS3U1y4iK5LtnoYecpSt0NnWjm1g+o/lWn4BVTqN43fygB9M1lawcwQjrz/AEq74MnFvqV05PHkHj8RUZe7SiaYtfuZI9ClPPHaqwuWU47Co4L5LhmAPIHAqOXIya+hb6o+ctrZmdqFm+o3bOznH3QPQVUHh5TgmQ1pRzeXKTVn7Tk4FLljLcOZx0RhS6KkaE5Oe1Z01mFPyc11jxLPw5/CmrpSH7vSjkXQFUaepxxtnHGPpSC2k7KfyrtP7MhHuaRrSCMbiOKTpdSvanHLZTN0Q0GzZPv/AK1vXd7BECsQBPr2rDurpnyo5J44pciRXO2Url1jBjTAPdqq2ulNdP5kgPl5yAf4q27TQ3fEt2Co6rH3P1qa9ZYAsMXEjjjH8I9aXJ1KUzOaJYx5cQGAcEir+l2+2UOexz+NQRxAFVXoK1YU8lY88bjScVe5op6WNK1Y/bIlB4LgfrTNUnea+1FvKaS0t5THIwj43ZyffjgcVNp6k6nbr/01XP50upvLZ3960TKyMzgh0zjJNYYpJx952RpQk1LRGBcPY3NqiugFqDulWKIqHPZM9eO9dHZ2yW1uAkSxhgDsQYCjHArnpbl7a2nkuz5FrLIHO6IF3bGOPr6Vd03UdTvrp5JIEtrJU2pG65lY9iT247V5c0krp3O5NtWsdVoR/wCJzAPSJ/5iusYZGPYiuQ8OsTrMOf8Ang5/UV156ivXwD/cnlYz+IeeSDOg+IU/uzI36V55ci5a6lKEFc5AMYOK9GYZ07xOg7CM/oa4OQMSxCkg9wCaWNbUU0VhUm3czo73VNwZb2VGUbQVlYED069KJXvr2N4prqWVG++Hywbnvmrcdqcco5P+6cV6TAXt7KCJE2hYgpwvJGK5KanPROxtUjGOtjivDFith4gtVWQuZIDKT6Eg10ujDOjRf7Rf/wBCNUFZj44UsMbYMYxjjaa0ND50W299x/8AHjXv4VWppHkYj4gAYwyIONzbSfQd/wDCtW33CPftcoB1CkgCsS9v0iuDZ2kX2q96mNThIuert2+nWn+JtfbQfhRc/absfb7sSW8PlfJudmOdvfAGea3nPlWhjCPMzzrx34xfxBemytZpF0uA4SMZHnN3dv6A1wVxK0khYHGOAKZ9oXaRnoMVC7YiB/vVlKVzaMbFWe4MYKjG48bqrkgBOzDrSE7pMn1p8xBkQAYIxn3rIocJPLZmKh9wwd1VJBluKsMMsfQVC/3h9aAJRE6wAE9WwR+FMYhelSOCqq2c7s5qEHfIFFAEyLgKO7c1KWEY6Dkjg0kYyQx9cVFctyAPXimBpR6tP5TRoxG5do9hUELqk6u5+6Ofeq0YKgf3j19qkWPdg4yB2707tgbdlrYa4xMHZOm0HAxV23vI4bqTfODax4KHPX2rItdMkulQW7oFY4cHgrW+3h6zjsd6Q+ZNEN2BIQJP8DWkXLcpX6GzZ6il5a7QhjH8BcY5rQ0yd7o73yqrlSp45rirK9mlbybQbOcEsSdgrsbEiK3DpOZGUYkjJBJ961UrouMrrU0WcZ5OaKiYeZhhtAI70VqUbbeCroqB9usMg5z9mIzVm18I3MRG97B+2RGQa66F0nUsnzKGKnII5qwsSNyYsj1xXgvDQepoqskrGbZaAbYAwrF84AcgkcfTmp7vTJ4NOeTZHhYsP5ZOc5OT+XpWlbzxGc2yN+8TqmDkcVblXzLKdezRsM9uhp+ySWgnJs5KG8tywVThFUADymGD/hUOo35G2G2h8xJE5lY8Ic+g5qdLec7Rvi2YyH80c/SpYrFoEONiJgsTu6+9YavQH3JLXUbFbiFzLJ8rbj+5c9/pVvU9bstTmSMb0gTcUldSoYgdckdO1UVtp3kG47Y/QHlv/rVYuBI8ew8KBgDPApqUkrA0m7mNa6has0k4lk3OQCDCx2Jn/JqSPVbSRcTSyQuGK4aFhxnhuexqfyWjKsSF3HA55JqK/wBOe+h8ib5YiRkAjLDP6VGpRDa31pm6LvhTOShVSdy4Hp0qX+0rCOYFpyT12iM5qWK0McQSFQka/KAppps2DEKvzHqc5JpO4zN1a8tZdNmSGUmR4zlSMc+x+nrXEHS/KnEe4rbgAh2ALY+ldxfafP8AZJGfYigdXIAFcLdQXDs6Lfx4cDcyy5BFRVae6N8PzJuwjWKRXDHO/Jwp9u1aCp5MYDEc8cEHmuduprmMfY4ZNwIBaTOR/wDrq/pNkILdjnLs2WY9TXFiIRUOZs9ChOblboauqjdbxsOzY/Sp/CJP9uHAyTC647dqi1Jc2X0YYrpvh/piGyvL9uZJMwp7AYJ/M0sui5ySRpjJqNJtk8dtNb3A2rlAQCR2FXmPmR479x71rrbDygrD5m5P1rJdGgmIbpmvoOTlPnnPmM+QOCQQfrThNt47ir023aTjmqHkPI3A6+lFmmF0w+0c5zU0Ju7+TyYCQvcjjAqeLTIoI/Ou3EaDsepqjfa3+6NvZr5MHQkdWqtVuTo9i3eXlppkZt7c+dP/AByZzzXO3WoTTN8zk+w6VGwklPAIXPJ9ans9HmvXLZ8uFT80hH6D1NJNyHZRKMUVxfTiGBS7nqOwHv6V0VhpEFj85Pm3J6yHovsv+NXbW2igi+z2qbI+56lj7068ljsbdnc4IFUo21E5X0RnaldJaxE/efsPU1kW1s5VriX5nkOcmkg83U74s/3ey+gzWuIt0oRei8ULVj2RHY2G6Tcwp17gXCoOij+tbMMQiiz3xWNc83DMe9RJWNIO7NPS8f2nauf4mX881ngDUdf1ZLeZEaFnXDZZmIJJ44wOf0q7YNt1HTV7tOi/zNZesSw3GtXQiUvPFIy71UqV5PG+uPG8vIuY6sM5c75SjbM15eyIqRteJzGjyF9/PJXHTHvW3alDaQujcNnOefmzz+tc7cloo444oIri6zuQKSBH754xU+k2MqTvd3U5lmxsQLwijvtHp2zXjVORK6PSjzvc7Tw02dciH/Tux/8AHhXZE8iuH8Lt/wAT6Mf9O7/+hCu3Y8g+9ezl0r0EePjl++PMNU1M2Wo6rpy+WrXyhTJISAgGfT61zxtMcvrMS8Y4Vj/Wr/jXw1q2tahdT6faGWOInL+YqgHJz1rg7nw5r1iqXFzabLdZAHPmocDPoK0qU5TbOnDVqFOFpLVnSSRID/yGUYeoVqhbyhwdXP02muca0MnnMzbdshAA9M1aTSjNmOIbpHYKgzjnHSojTk+p1SxGHS2Ogsb6PT7xblNQjmZQQEkUgMPw5rp9Mgub3SYE3fZbNlJAhYmSUZP8X8C/Tk+1cQvg7VYvv2keOnE6kiu/0SB7eysLZgQ6QbSOvOa6qFVwep52NjSqpOCsSPFHY2myK3McS4xHEhJJ/mSfevHPGGqT6rrU3mttFr+6ijzkRjPzfiT1rrPGvxOubC7l0rw9OkbxgrPekBju7hO3Hr+VeRm6OHdiXY5JYkkk12+05lqeaqai9CCR/wDSnVBgHr6ZqaRyEYe3AqnG2Zdx+tWHIIb1xzUFFeMc5NJK26RCRgDp704fcz+dR78qoPRTwaQEw+ZcYwTUEgxKKnUnGagn+WQY6UAOn2gKQf4eR702BSSW9elNn2jG05yBn61NCNsYHfFAEwG0dc1DwZ+R93mpmIUbTxVRmxOD2PFMC2rqecYqRLgQMHRju9KvaPocmoYlnBjtQCQcgFz6D/GtxLJ4WAttPsI4wACJZQS/XrjOKuMG9QMqPU3ijSdfKDSMA+wDirstvrDQ/b7S8gvIjyAmQVH+7Ul3p+mShjMYrWcnpC25f5DirOkW1pZq/l6lLMndVgIVf+BVcU27MaTKlnpF/dEsXitDMdzgMC5+grch0Ww0hTJFA894efMnJyn0HQVBcX+mQDdApLnq6cuf+BdvwrH/ALauLyV4oy+1m2oD1zV+7FlaI6J74LIfnAPGcn2opNPgs0tQZyJpXO5mIxz6D24orbmfYfMz05dNv1DB0lkJBwY5lGRkZ69z2q/NY3L3SzrvkdUG0l9u3rwccH61fDJu2+Ym703DNTqCOSMV47SfU0s+xkwaffjLGKRQwIIWQZxzgdf61radb3Md0u+ArGyvuxJlQCCcY9yRz9anj5PFTQzq8uyMhyp+cjov/wBf2pNIetrHOytGPkSVCwAwdwAxmpJLqGOze1mmjIdSYxuGScj7tYup2tx9smSztQ1wsjAF1IUDP60afpU9uDJdx+dKw5bysKo9ga4ueztY15dLnSyvbIS32mAoMkneOKppd215aySx3UYRV3KdwznI6g1nfZGujgWnl26nBPlANIc/oKdNZIzFvsu18Yyq4OKOZkeQJeos8kjPE/kAKB5mDz1wO/4VNe39tbQO6XUU0ijckasPnH9PqaqLE8X3LYyS9QFAJ6/y96ik0SLzDc3NqGkHzH5cItSpPoi7GnHd2wgQNdQB2+Zl80HaT2/CmxajYTajFbfa49xcAsCCq/jx6VS+x3MxKpalI+hbywC309vekNg6xhBafJ6FeKjnl0RSiTarewvFcFZ4HjVDgK3JJyM/hXBWWm3l2zxIoEix+YVJA3DHYnGfwrotXia2t2cxCJFGCTwBXF3MVxdYBuAEXofN5Az29Kmo1J2kb4fminykkEBeZjLGUKnGG4ya0o1McYDDaKwJnuI2FvFzwMybs4/+vWhptsbeFiSWZjksxzXJXguW9z0KLk3Zmrdky2TbBnkHFekeFrT7F4asoyu2Rk3sO+Sc1y3hvSm1G7EjLtgjwzHsT6V37sI/ZQMACu7K6LhFzZw5lWTtTQY5qvd2YmG8DnvQ97GnPU1Qu9aMSnZge1eu2rankJPoNbT5CcudiDqW4qCW+tLH5IMSSf3mrJudSvLxiF34PSoo9OuHO51IrPm10NOXuOurqa7kLOS/PA7U2K1B+ZwB61bis381Y0Uu56AdTWiDDp4GdklyPTlUP9TVJdxN9EVItORFEl0NidVi6Fvr6CrSB7khFXZGvAA4ApIYpbuXfJkg85NaoSO0hLtwAKpIlvuVpDHZW5d+MCuN1G+k1C62r9wHCj1NW9Z1Rr2ZkQ/u1ODjvRpVic+fIOnQUnrohpW1Za060FtCx/jI5PvVqyi3SFuvNDHIcDvgD9av2UIVV49zR5CfcLoiK3JPHFYMhLMreoFbWpN+72evFY0i7dg9M/zqZGtPYuWn/IZ0T3uSP/HDVGVIZdRvLZZJYZ2mfy3YgIp3Ekt6g1ct2x4g0FM9J2P/AI4aw9SaO61S6QqSFmYE985PTivNx01GKbO3CRcptRK90Ba7kNwBJIxVWQjYSOOT1xV+C+s4zFZxzI0qpkquTWJdwCQeVajyyMCSdsEgegq5pVjBZxs0anc5ALtyW968apKCjc9aMZt6nYeEnLeIk/69n/8AQhXdMeRXA+DznxEB6WzD/wAeFdzI/PFezljvQueLjl++ZiKw8jWU/uyE/pXB+Ij/AMSGU+jIf1FdxGcy62n+1n/x2uQurOPUbE20jukbYJKYyMGvUSbi0jhbSauefAhlmOP+WhPNaemnGoQD/psKydUaXT9SurKCJJI0c4Z8gn8q3/C1kdRMs9xmOSF1ZFj6E89c1jCLbstzonJJXOxuG4/GsvxRNeQ+FL6WxnMMq24JkU4ITcN2D2OK5nxJ8RI7C7ms9OszPJCxV7iXPlgjrtA5P1rl774haxqGnz2Fz9iNvPH5TbYCCBnPHPWqVJ31JdRKNjkprd1k67h0znjFViQoKAdOKuSMhPD8HoD0xVKXZnj866WcxDH/AK3A6VOGOT3z1qGPmXBqfjB4pARscDjp3qEFiHx0GCakPSol3Evj05/OgCeN8Yz0qOcgsCPSkQ8Ckc/MKALOoWQtmtwG3eZEr5xjrSLywqMTSysgkcuEUKoPYelOyKEA6U55/A0yNFaTkZPahjRE+0k+tAHW2XlxQIGJZdvQ5xn39BTH1C8NwLeO2ihDHiTBA/Oo9C1GVJUT+H7oOMEVvXc5uoTbGWNXyGUSggZ/z3rqi21oNK6MN5oVmf7QgknVsEn7ufpRPdTXcTCPGFU8DgD8KytSNxb6i6XBQyDr5ZyDTrK4ldnwNiEbWkOcJWXNrYREly8IZZVdZF5B6V0Gh2f2eWKeblnTcgPUGoZNKgW3Nw9z9plBGD0XrV7zppL63jhTzGCZLHgKPetIRs7sa7komVWcD5cMeM4oqZIIlL/uwWLEsTk5NFaO5pqezzaHpVyMTadbuf723DfmOapr4cubWXdpWtXdrH/zyl/eqPpmtPyHII845Kov4g/1q4vXOePSvIlTi90bQqyjsVLXTb18f2jq090v/POJRCp+u3k/nW3CqRqqIoRF4CqMAVRWImQNuxiQPgd8Cp7eERlDuJ2qV575OaOVR2CU3Lc57UhINXulLPt37gNx44FVdS502XiUuSoARzk/MO1aOs4TVpO25Fb9Kp+dt4ziuaUdSk9C65fkrdTrzxk5qhPLN5oQzySA92JFOMwA68ntUE0haUMD0oa0BbhaQTLfXlw4MakJFEQTyuMk/maNQEslnco0sjAxHALE9qsJMPX8KY0hLEjNQ4aFJkSh2t42LOrFASNx9B71NZxFrqNWJYEMcMSRUUjueQp/KpbRnW4V2BChSKnkSdy+ZtGZ4uQvAkKKSoBmc44wOg/E1waKAoPrXpGtyb9MnU/3a80D5XrWFdNvQ6sHs7j4owzEnmtGMbYz7VTgAK9OvFXgPlP0riqPVI9SMdLo9S0KNLLQrbaoUsgdiO5NR3d6expYcvplqqfd8pf5VXa1dj04r6OkrU0kfL1HzVG2VJLlznHWoBG87fN0960xp7E9MCrMWnngAfU1XK2S5JbFW1tyvKgVbMbPnBAC9WPQVO6R20e5ztC8471jT3c+oyiC3G1B2HSrVloRq2SzXqRAwWmSzcPIerf/AFqdaWDP88v15qxaWEdsu9+W75q5GfObC8IOpppML9h8KJGpboq965XXtYNxIbeE4QcEirniDVwim0t2wehIrBtLNpmDMOOvNDfQEurHadYNO4Zh8vbNb8gW3t8AdulSWtusUfTp1NU7uQyy7R0pWsDdyWyjLxu7f3s/pWzCmyIE1T0+DdGoPQHJH4Vp4+XH4U1oDOf1OT9+ifXNUZ/vJg9v61Y1WQNq7ovRFC/jiq8/3k9dv9amTNoEtu3/ABVOij0dv/QDWTOvk3dwR8waaQgnkkljVyG4SDxbpbSOiRqzkliAPu+9ebW639/4m1LzVkjje5cxMIyE+8efTGK8zG0lUg7vY7cDPlqep1JheSQBshWYHArYACgAcAdB7VCtrIJhueLCgY+Ycmp/KcAZaP8A7+CvnqieyPbujZ8IHHiDr/y7N/6EK7WRq4bwrmDWXlcqF8hhkuOuRXWS39uv3poh/wBtQK9/Lmo0UmeJjYt1m0UYT/xMdYT1UH9K5aNsAVujULWLUL+ZrmDZKgUDzVyCBXN+fbr1u7bj/pqK9SFWC6nnzozeyOJ1Qj+3b7j/AJaf4VtaJeCz0zUrknBij3A++DWRdW7zaveTK0Zjd9yt5g5pl9cpZeGdRikKFp9kSAOM89/wqKNaPtbXNa1KSp7Hn015cG4dIl8x2O449TSNAvl7rhURz0A61O00VpEWA5zgdyxqnHIL24Ly8IvYcV2M5CNILd5NrXJjwOjrkg0+50eSOMyw3MEyBdxCtg4+lWTcvdXSWVhYJPIxCqqRbmJ9h1rpJPh94wa2Etz4bmRWU7WgVS6/VQf6VLlFaDUWzz9GIk+btU+8DtVjUtKv9OkK3thc2synBEsLLn86zy7dxST7Caa3JDzUSg7mx6Uokzx61p6bor3uXlkMMQ6EjlvpTUW9gM1aa55rrpNC0uOxZ4y8kg6EscZrmZLcAhD94ngCnKDiBBEc5/KpEPU1cvdKm0+OJn2P5oLDYcim2Fl9sl8rciN0y5wBSs72AqYLn5T061NHbq4+9gg1oSaetjFIsjIZN+MKcgjFZxco2V5HQ0NW3A0LS+S0t3Rk3ybgVYHtWisd/eRh5ZxaQ9VycnH0rA68jnvmrFtcOkyhmOwjkZpxl0A0JPsLT+TfyvIygATxnBP4GkluraSzkihQBVwN2CDjNUdUKyXjP6gcdO1JaQ+YAjyeXHIwUsRnFO+ugGzbrJe26W1t/rCQXYnAA9a3Ix/Z5jtoiWQqCWbkk1QkWCxt7ZLb7u4/N3Y4FWH3vdwBVJB++ey10QVtSkS3txcwThYo0dSu7ODRUjKkZCnc5xyxGaKNTbQ9wIufMPlmIJ23ZJpyx3eBmWIH2U15OPH2uZ51WMfSJB/SlPjvWj11nH+6sY/pXiuuuzOhUH3R6+sVwY8GcBs/eVeAKvRK2ADk9ifWvD28eat316QD22D+lMbx5qP8Wu3J+jf/AFqn2z/lY/YL+ZHrHiCFhfQuIy26LBOQOc1ivHeieLy7aJojkSCWQhunGMehrzibxpNOQZtWupCOhLHiq7eKYznN1dt/wI/41zVPayd0jeEKUV70j1R7aXqBz2rNuk1aI5toreRjjHmMAF57/wD1q85PiiA9TcN9WNRnxJAekDn6sKj2de97Gl6G1z0n7Z4gLkumlqAoUFZgvam/bNVUjfc6chxz+/B5rzb/AISNM/LaD6FqT/hJXHC20Y/EmqdLEPYXNh11PU01Jgw+0alYhADnBLEn8Kk/taxHXVbfH+zExryU+J7nPywxD8DUL+Jr7sIx/wABpRw2I6hKrhj1S91DT7iGSP8AtIncMHZAa5s6XpS8/b7sjsFhAriG8SajyRIg+ij/AAqjN4q1dW+W52j2UU/qNaT3COMoU1oelRwaUg+Wa9OO+1ak3WOCFN2T7ha8ti8T6vJMitfHDEA4AFNbxDqvmkfb5flJHB96Ty2o3qy/7UhskfS2hzLcaRauucbNoB68GtZQgHauA+GupSXnhoxyuXmhk5LdcEZrsGkYd69aldRSfQ8irrNtGlmMckiq816EBVO3eqRkY9TVO9mKrtU8mqcjNRK95cvdzCFCeTg1dCSWloUs4t8mOmcFvxqKwtRGvnSffPQelWWlGDg4pLuN9hyl52RGHzYG4A5APpTNZv49LtAiczEHHPQ4qcyx6bZG4cfvGHyA9a49pJdU1BncllBpt6CSuxbKFrmUzTc5Oee9dBaW6kgKOPWq9vb5IRRwK1CEtoT2NCG2R3Uoii2rWbEnmTDPQGpJ5C5ye9PtEzIDimxGzar5cJA+83SrLAIo/wBkc0yAcEfSichsIRlWODjsKGJK7ONkcyajK7dWYt+FTzrmSP6AfrT7y1a3vQrDBUlT7jtTJzjY6jPHH1qJLQ2izBk0+HXfEtpY3EsiRySSEsmCRhfeuWub0w3c9uolZYpGjBZuoBIrf1G08QR32nnRD5epO8hiOUHG35vvcdK4G4u9QF3MJjmYOwk+UElsnPT39K5KlCM9zajWlB6HS2bNeTrF/qwerHnFdPF4TikXcb9wTzxEK84tL7WEkBtkkZv9mEGuht9T8dvGPItpynQEWiD+dZxwlLqbSxVV7Hcad8P7O+glkl1GcbHC4WNcHj3q0fhvpY63923/AAFB/SuX0y5+KL28osrZtu4bw0MIOce9WHT4vv0i2/UW4rWOFproZPEVX1NJfAmmtqk9p9ruQqRBwdqZJ/KuBvUFt4X/ALWUgyBypjKjB+Yj+lbRtPiw2rSKrlLposk7oANn5Vxd1D4hGgF7ln/ssSEFTIhG7cc8DnrWscNT7GbxNTuQx+ILmSIuIYuDjGDiq15qst5GEnCKqndhBjJqG1i3Wku0cbwQMdKpXx8tyG644HtWkKFOMrpETr1JKzZDezs5GF4AzmolkPlLFEu53wBjrmopZNwA9qm065S31G2ncbkjkDMB1wK2be5gld2Z7R4C02Lwtp6yLDG19MMzTsMkD+6D2Fd+NZlit3uifMVQDtQ968/sdRjvLVJ7aQSRsOCDTTdyxSu6O4zwQvPFeNUryjJ3PbpYeLWh29v4msNYtXstXt4p4JMqySqGBHv6fWvO/G/wft0sLjWPC85eGMF5LJjuKDvsPfHoa0ZZI7gCZAkc56yx9H+oq3p3iTULC5CCbjuhwQR7UU8XOL94dTAqovdPBY7UxzYmBQr/AAkYOa2ZNSkltVh3YZANoHevQvHXggawn9v+GYA4bJvbNOsbAcsoz09hXk5ZkPXkV7FKopRujx6lN05WZs2+qmLAk4A6jtmi4SxuYGvS8jTOxwzAAYx0wKxmO4epoDHywueB2rXmdtTI2tLvUNxHDdqJY/4d4ztNU9Xs49P1MpExeNxuB6Y9qpLI0TBh26VLdXRugu8kleASc4FHNdARblc8k7uwz3pjqVbjvQQAwOfxpd46GpAj3lD04qUDJUA43Y5H1pMIx/QULgHjkCkBfiW2hnYzoZVABBY4OKffpbRxo9q5KM24L028Vnu5Zi2e1T2hheeJLgkxrzjNVfoBrW63GoNboziKFTuDHqfpW011a2UwRnKR7SMkEljmsG+uV+0WsccoEYz07DNSaldpKI4I3ztJyRyK2UuVMpOxNdawizkA54orHS5tI9yzWolbcfnPcUVHtGLmZanjVAdvAHJNQKGIbAJJAxgE1bu+FbjPAP604XyYOGLYH5VhYrXuVFgnY5WJz9FNSLaXTceS4PuQKnN8CcKkrZ9jSi5cjC2shHbPFIpIi/s65PO1F/3nFSf2dMMl5Yh/wImpBLdEfLbYB/vGnZvinCxJ6jOTSdwSQxdOfvPH+AJqT+zgoyZ8/SM0mLwgZljUd8A0pWfq9yfwFK+g7IUWcQAzLJnvgCpFs4QOfMz/ALwFRCMfxTuaUxR5wzOR9aRViX7JbDqDn3lxSGC1B/1aE+7k1EYYc9CR35oMNuBkoOPU0MCXGngYKQD6knmo/tGlRHLm0B7fICaP9EUYKRD64zTTc6ZGfma2B6Z25NNLUTY4ajp2VVHiySAAsIHP5U6XVbPayIJM4KnbEQCaaup2A+VGBJ4G2I1ai1CK4nS2ihuXZmCH90SM5qgWp694K09dN8I2TBcSTgTOfY9P0roWOetJFCsNpHABhY4wgH0Apm792D36fjWaVgm7sXIAqjIDJMBVqQ4FQRf6wsabJRO/yxhc5xU1nbqxMsv+rX5jmoFRpZR7mma5ei2gWyiPzt94iqXcRl6vfSaleeXH93O1AOwqe0s1gjVFGT3pNPtPKjMjj527+1a1tDgb34A5pJN6sb00RJDGlvFvb61mT3TXU+1fuqaTUr5pZPJjPHTipbaAW8G9/vdTmm30RPmyGUhcKfvHqKv6fHuKms1N00+T61u2Ue0ChIGXIyAxPpjH1pIySssv3lVxx6UwNtkYDk44quNW03TrgQ6hdx24uUxHvONxBOabstWOCb2NK6sbXUYtsyDLL8si8FT2rjtXsbiztQkp2MoHzDoRnqDXV2mqWE0hjhvreRegCygkGofE2nHV9AubRF3yFcqB1zg1nP4dDVJp6nC6ZZ/aNdtC5MiqHyD83b36VauYEEhAsoupwPJH+Fec5dCSN6kHBwSMGnLdXK8rcXCj2lYV5NSUpKx6UKcY6o7d0RSNttGh9ogKs2zIwKNCPXGDXCx6rqCEbL65GOmXJqxF4j1eP7uoy/iFP9KxtJO9zoXLsenaTp9jJK4a1Tay7iAWAJz7Grk/hvRZeX0/k9ds8g/k1eZ23jjX7Zsrext2w8Cnj9KvL8SddH3hZSfWAg/oa7adZRVmzkq4dyldG9c+D9CkE8ps7gOMqGS8lBx/31XNXXgXQVXclvepzxsuWIz+NTL8QNSdGR7SyO45yA4P86D4wmlHz2MXrlZSKp4lLqQsM3uZB8G2UaukLXqqxzywJ/lXMeJtBtrO2KQm8kug3y70GMV3w8Tp/HZSAd9soNPE8WrRvJEsilCFIfHHBqVi2ndF/U4yVmeFyW1ymd8LgeuDUJVxwFI/Cvb5dOc/eAYehANUn0S2lP7y0ib324qv7SS+KJLyx9JHnPhnXpNHvQkrObWT5XX0PrXeRakhJeOYOh5APUj2NXI/Culyn57BPUkEipR4Z0xThLZ0/wB2UiueviKNV32Z14ehVpe63dGdPqkRBaNtkncdjTU1CCZQjttkHI9Qfar8nhbT2zlZ8H0lOaanhXTxIrgXGR/elJrHno23OyLqJ7FnTNZOkypcy3IhQn5zkgMvoeO9eP6nNBJqt09rn7O0rNGG67c17K2h2wgCKHkUEkiVtw6e9ZraHpbZD6fbN7lADWmGxlOjdO5hjcLLENONkeRLLhgWAKg5IPQ1ZIQbjjKFCykHGDXpz+GNFkOW02If7rEVRm8KaebyJYLCV7VlIlCSEBeRg5/oK76eY0ps8qeW1Y66Hm5fJ45PoK1tK02SbzLuawuJ7aIDEaI2JD7kdh1OK9M8PR+GvCN+b/7POs6rsjMqFgQTyQDXoNt4k07xBaTW8Nx5kckRVxESpCMCPwreNdSV0c0qLpu0jxWTSND1LwpNcRwrputwODDCjllvUJAI2nJVh696y9F8P2k0wTWmvYEZwpNtGCUGPvHPXnsK9gt/hv4NiJZE1FM9cXpH9KmbwJ4ODcpqkh9Tfuar2l1oQ1qeGah4c1CyuZlggku7VGIjuYoztkXs2Ooz71Amh6w0PnLpGoNGeQ4tnII/Kvfk8GeDhx/Z+ovjn5r5/wDGtuBtO0ywitbSG8jt4yQiNOSBk+p5p+1ZPLqfO2jeEdV17clgIGnUEm2kkKy7cjnbjOM0up+CPE2lN/pmj3CAnAMYDj9OR+Ir6FefS5iGktXkYDALEZA+vWqUGm6BBqJvYLK5iuGBV3W4Lbx/tBshh7GhVV1DkZ84SWd4spR7W4V0+UhoiMGlCzxSYeGQY65U8ivpGaytroJHe3MlxArbjCLWGMMfcgZ/I0iaR4ZiiA/shyy9/NOMZpuqr6AoHzYJoWH7wjKnAyO1FfRMvh/wfNIXk0IFj1PmYope2Qch4beNtBbb0A4NAmiAOWQd8DFLdOoDu43AKMjpxkUqeQMsqwRqRnHB4/GqYWGfbIlHEufpnrS/a1J+USN/uqal+02yj5riAHH8Ipf7TskP/Hy5/wB1SaTKXqIJ5mUlbWdseoxTgb45xZkD/aIFNOuWa/dWeQH6CmHxBHz5doTjoWejV9CtO5N5d8/8MCAf7RNOFvcDl54h/uqTVM69OeI7OMH3yaet/qc5+S23f7sRNS9tSkuxaERzhpiT3woFBiRfvNI34gU1LPXJ8BbSQ/8AAMVbTQNckwWtQB/tMBWbqwitWi1Tm9kyqVhHVTnH8TcUAWw+8iY7biTWonhbU3++sCj/AH81MfB14wwJoAfTmo+s0k9y/q1V62MbzLNeNkAH+7mj+0LCLG4xD6RA/wBK038F6oBlESQ/7MgH86xdQ8J63F8x06UouckEEfzrWFWEnozKdKpBaonOu2QIAeQ4/ux4rT0HV7e816xtoxKS8yLngDqK4UKe/UcGuj8GfL4r0xumJ1NaySSuZwm3JI+io5N80i/iKgc4lZffIqISbJkkU8AlT9KW6bZJu7DH5VlfQpodKRg0QLnmo3bcAKtQoVjGByarch6Ini2wRSXDcBFJGfWsGCN7+9ad+QTwK0dRmDKtqrD5vvntTUubWziCJ8xA5Ip6XEi0sIJCdFXrVXU9QEaeTEeTxkVEdRllhZli8uMfxE1SsoHvZjIRiME8nvRdPYLPqWtOtC581/wqxfS5IjToKsMyQQ4X6Cq8MBlfe/5VQvMktIAoBPWtaFcL9KqLtGAPwq2T5cGT1NMRErr9owTjKnNKun2WqwItzCkoyQMgZU1Qik8y7JPI6Gr1vI8bsVG0DBUfjUySa1Lg2ndF6y0jT4Ifs7WNuyoCqAxA8HtUsKxaZMsaEraFclnbIiPpkngGsqHW2M5SVdkinBFb1ssdzE7gB0kGGVuR9KnQu76nlXxP8FSQTt4g0o+XDKw+2RLnCN/z0Hse/vzXmjQ6gnKyhvbca+qJreOeFo3QNE6FGRhkMMYxXh3jDws/hvUxGgLWM2Tbuew7ofcfyrlr3j7yWh0YeSl7rZwxOpKfmXd68g1WfU5UJQjEinBBFb7J83euUu/+P2X/AHjSoONR2aLrc1NXTLi6tLj5kQ/nTxq57wj8CayyQBmmb+M10PDwfQ5/rFRdTaGuRKctA/HowqwniKyHDpKPpg1zJOQeKiYgjFTLCUpbof1uojsR4g0xwf30i+xSuw8Kyw3ekTzQtvRrjbnBHRR/jXjHT2rufCWu3lhopghMTR+aWw6ZOcDvWNXDU6a5kb0cVOpLlZ6IYxTfJG4Z/GudXxXc/wAVtbt9NwqZfFhP37Af8Al/xFctoM7eeSOkEYXoOKjK4zxWQvi60KYeyuF9wyn/AAqQeJdLk+8LhCf70QI/SspUk9UXGo1uX2A71FuGcDpVX+29Lfj7XtHo0TCpFv8ATiC6X1vIw6KZMfzrmnQe6N41l1J5HWCMO5xn7ijuazC4JJ9e9E0r3DF1eOQnsjggCoTFcY/1Mn4KTWDpNFqqh7O45hERfqPNyRmk0nVBpgln1KzW9vN5ZZLhnaKJfRY1+X8ahDyRuNylSPVSK9C8CXn2nTbm2VYjLFJuBZMnBrvwV1PkOPGzXJc8r8XalP4kWJrS1t8WwJYWFv8ANgkcsBzjjrT/AIarNBrmrxTRGOXy48rIpBAya9r1C11WeznjtZLeKVkIV1gXINec6fovjRb6TfcQXCqMhZ4mjYjPTcoNew1aLieLKXM7nRtI4B4B/Eiq7O5ONv61DMNct4yZvD167DvbukgP6g/pVRpNVSMP/YGssSM7RACR+tc9mirpmgGkz939aDvYYK9/WsvztXdNyeHNb5HH7kD+tOhOtyoceGtYBHB3BBz+LU7uwro0TkfeGPctRvAPUcdPmrMkTxBEpVfDOqvuPUshx/49StZeKCmV8NXhPvNH/jVLYLo0vOJPb67qPOzxkfnWRDF4nZtj+F71ecZ3xgZ/OrEtn4nVcr4YuT7efH/jTtqF0X96+3/fVFYZTxTn/kWLz/v9H/jRU8ornkV/JiIgfxACsnnvWnqA4A6e1Z9dyMXuCgZArXsLXT5mVJ4Z888o4FZ0agnmrsEbPKqo5jYkAMOSKmexdPc3otP0ZOtlK/8AvPVyIaZFwulRe24k1hvpl2pwNSnPp8oFQPp953vpyB74rhcOb7Z6Cny/YOtTUYoseVp8CemAKm/tyccCGNcfWuH/ALPue9xOfcuaBprk5ZpCfeQ0nhIveRSxUltE7c6/c+tutMPiKVT81zbp+VcWNLXPK/mSakGlp/dpfU6fVj+t1ekTqn8TIPvanGv+7iq8niiD+LUpH9lzWCulJ2UD8BVmPTkB5HFL6tQjuNYmvLZFx/Ets5OHuZPoDTf7Ta4iYx2M7AA/fIHanRWqL0FXkhX7PKSB9w4/Kok6UGrI0tWmnzM4Ejcd3qegrc8NMIdfsHJwFnTJ/EVjomAT75rq/A62w8Vae93GZI0kDbB/E3b9a9OXwnkQXvHsUpeKRg3KEkGkFw0oKMfmAK59asR3EN4GKMDycg9Qay71Htm3gEAHrXO7pXN1Z6MuW04faG6jg1dmvDH8qdexrn7eUhueuat+YWPBpxm7EyhqSnLOWY5J6k00RGVwp6E4peVUsx+lWbSPygbmXgKPlBql5ksZqAyIrGLgcbyKuRhLWBY84wKxjqirO7InmSscA9hVu2t57jMkzYLdvamnroS07alrzTMSwHyrwKtwqwXe5/CmxxKoCDoOpqdgG+UdBVohjoFMku7+EdKdfTbUIp6ERpx+dZ11KXOKpvQQWh+8e56CrjXEfnpE8qI7qVXceM1Wt1CR5PH1q5ZolxBKjrGdpzlgM4qXexS3KOtWrxTpcoPkkUEn0NGlatdWM2VO6NuqnpiujgWK5tdjDdg4APTFRjw/aM28LgnsKhp9DRNbMvWms29wvK7W7iotX0uz8R6RNYT52PyrfxRt2YfSnW+iwQyB1zx2rSWJEBCjBx1p2clZktpO6PnLVtOuNG1SawvE2TRHqOjjsw9jXEXYzeSnP8RP619LeP8AwqfEOjm4tYwdStQWhxwXXun49vevmq4B+0SbgVbcQQwwQc1hSpOnNm9SrzwVyvUZ5GOlPYHpUWR3rrRzMaTgGos9qcTyaZ7nvVEjGI3HHSt7RtRtLay8qaUI+4nGD0rAJ54GKaev8qipTU1ysqnUcJcyO1XU7Fvu3MefckVKtxBJ9yWNvo2a4In0rX01c2ZJ67jiuSeDildM7IYuUnZo6fg85B+hzQM1glWUZBINBmmTlZXH41n9VfRmn1m26N7Jzgk/jSlifesIXtyMfvnP15p66lcDqyH6gUnhZFfWomzgYzt/SlDMPukj6EisldUl6FEP0yKeNVI+9F+tS8PNFrEwNhL25jHyXM6/SU1Mmr6lGPkv7hfUBqxF1WMjlH/SnrqVueCXB+man2M072H7WEtGzoE8RaqmM30h/wB7mr0PjbXIFCpdAp6HP+Ncmb63I+/j6ginrcQt0mQ/jTtUWuov3b00OzX4g6uv3zn/AHZmB/rViP4hX/8AH9oH+7OD/MVxG9TgBgfxFOwCM1LnUXUPZ030O7Hj2Q/euNQX1IKGpF8bhuTqt+ns8eR+ma4Higt6UvaT7j9jT7HpEfjZCMHVk+ssTA1KvihZeRqdsfbfjFeZ5/8A1UZo9pPuJ0Idj1NdXll+5fRsf9m4z/WnmfUjyuozx+24Y/WvJ8DuB+VVpmyxyParjJydmyJUox1PYBdaqo41l/xKUV46OnSitOXzI5ImBqHI+n8qoAflV2+J4GOOvNU1/wAivSWx5r3Jo/1rQtRieM+4qjGP/rVfth+9T2I/nUT2NKfxI6KQDINRkDpU5OR0qM5zjGK8dM9trS5Bs5PFPigjkYh7iCBcfelJA/TNOIJpkkO5dr9D2rWM9dSJR00GPGgk2LPE43YDoSQR6/SrN1b6favIsWqx3UakBXjhZN+QM8NzxVH7Gq/d7dqf5CscNzW3NGxioTHI8csh8rzPLHALgAmpwoB60IiKMAfnUnHHGK5pzTeh0whZahGqlsVaYKsDrj+E/wAqbGAozjk09n/dOMfwn+VYXbkja1os4SJOR+Va2lowm3LkMvII6g1RtY0adVfld3P0ruLae0MKxxokajoAMV7NSVlZHi0afM7lu2115N093dxW8y4G/BzIfcDj8a04vFCTRGOSa3uEPGUkB4/nWFLbo/OwEdjWRe6dA2Sq4J644rGEVbU2qRe6O1W/QEbM7Txz1q7bXDSEFTXl0cmoaaSbecyJn/Vycitey8UxuRFOXtJTwck4P41UqbWqMueL0Z6O1xFCd9xKOOQo6mqd1qk1/wDu0Xy4gcYHU1zkdwrfNu356HOavwT54WsudvRlci3N/T4Y4QG27m961xcYHQD2rnIboIAMn8qsJeISPmzW8ZWRk4tm+s/Yde9SrLWRFN3HT1qdZyfpVqZm4mi8xK4FV8ZbJ5FRiQevFODgc1RNiZnyNop9rMIZwzLuQ8EVXDg9PzqQgMMA8jkYoYI39P1G2nlZYkMbrw0bDGR7e4rYG4AMAdp6GuX+020nlTOxjuF4Mka85rUtdQbPlidH4yNucMPakvMpmuJWX3FOE2761UE5PJBANSZBGRTuKxbjYMNvQg8V418W/AIi87xPpcZ2k7r6FRwP+mo/9m/P1r11HPXvU7LHPC0cihkdSrKwyCCOlGjB3Tuj40b/APUagI5yK774i+BZvCmtbrSF5NKu2JtyoJ8o94z/AE9q4sadev8AdtZOfUYFOLuD1KLAEmmZBGO9aqaBqUmSIY0z03OARTW8P3MfLyxDJxgEkirIsY78GmE881rDSf8AWb5+UbbgDrVF4EW6MRJIBxmi6E0yoa2dMB+xZ/2jUkGmWzZLR59Mk1fW2jhiVI1CrzwPWsZ1FsdFKk73Ft7C9vxKtlZXF00SeZIIYyxRc9TjtWfM3lEpNHJGw4IkUqc/jW3p+qahotw1zpt3JbXDKUZlwdy+hBBBFK3iXWxO8zX7s7ghsqCCD16g9aUWraFyi76mCssZHDg44605lU4I610EXimZWU3Om6dc7YzGnm26EKvPsOfes6a/tp23NYQIcABY4gB/+unfUnl0M9MA+lSbQR0qeaSzmz5dkkDnGCgJA/AnvTFQBcAcds0NhFXIccfXvTAv5Va2gCoyo/xoUgcSuw6UhB5qVgMgDvSEZX3zVXIsRHIHWnCR1+65z9TSuoxSbeaLJhdrYet5OOkr/nmnrqFyOr578gVWHWlAyaHCL6Apy7l0apcAc7D9RSjVpe6J+GapEYHNIBUeyh2K9rNdTSXVmz80Q/A0yTUgTnyv1qjs60bfWhUoJ3SKdabWrLv2/POz9aKphOKKfJEXtJkF8OB6+tUhgEZq9ec/gOaoqegNbLY5mWo+avW5xIn1FUoh2/WrkQyRg4OR/Os57GsN0zpVPShwScgVAqA9Wlb/AIFineSh/hJ+rE15Dikz21JtbCEkdTj6mmmZMcugx7ihrWPfkRJ19M0qxAZCqB6YAFX7tifeuRiaI8BwT7AmniVRyBI30Q4qUIfWjZ3zScogoyGCViOIJCffAqaMTHBEKAf7TihYy3PapgCoFRKa2SNIwe7YfviP+WS4+ppGWba26ZPun7sdPJxxSMf3bfQ/yqIt3KlHRnHxNtkz/tcVejvWXv8AWs5TlyP9o/zqzJYuwDRNz1wa9vS2p4UXK7sbFvqbr9xiPbtV1byOZf3g2k9SvFcoXmhIDxkHue1SJfEdz680uRdC412tGdI1rvBeMhx696z57JJAVdAccEEc1BBqO3ndg+1aMOppINswEinv0IpWcdinKE9zIjW7sW3Wk5Cg/wCrfkVrWXijyyEvIjAe7jlae0MFwCYXGeyt1rPmtuqOPwNO0ZLUi0o/CdxZ6p5kaujRTRnkFDg1rQXtseqFW9+leSxi50+XzLKYxkclSMg/hXRaV4ztiwt9VtxC/wDz1XgGs3Ta1Q1NPRnoiSRy8iUKPSp1cDgNn+tYkS2tyokt7jIbkHineXNH0mP0I4qOZx6DcUza+0Huaes+TWKsz5wz1Mk7ZAz+VUpkSgbAcv8AdO09+ajaC7eQCGcA56MKpoxI65PrmrKzCNcOSp9j1q7p7k7Gla/a48x3HlmM4JdWz+VaVq2nrtEInjkU5QsQTmuavnc6HdyWgkNwkRliB5yV+b9cYostQOoaXb6lpzEQzIHUN0B7j8DxTuI7yO6iONxeI+kmcZ9jVhCc7g25evykHiuJsfFb2/7u5T8TW7bapomp4Vj5UnqhKHP4UuZFcrN0XMafODwOoqdJHHQEqfUYqnFYxgh7ebLYxknJYVJHJc2xKzKGj5JJ7CmroRX8SwWmo6M+n3qBvtHCg9VI/iHuK8J1fTLnR9TezufmI+ZJBkCVOxH+FezahqKXkwdM7E4QH09aw9f0eDxBpxgPyzpl4JO6N/gehrRLqZ3PLE4HNUbvqvsavNHLbzPBOhSWNirqexqlcHLAe5zV6NCvqZI+9cDr8461iTEDUDj+9/WtonDXAHJ31hP/AMhBv97p+NZx3KfQ3bc4Bq11C496q24wCauAfKMe9clTRnoUtYkDg49M1Cw7GrTAbagkHFVBhOIwgYBxSbFByRTjnHFISPpVmbSGhBnI/Kgg54pVHcGnMeMii+orKwwrgVGO9S/wkd6YMU0JojbqBSFTjj1p5A3cUfw/SquZ2InGB0poAxmpDypx3pMDbTE0RKvfpSquPrTgMZoXnNO5KQFePemhalC4FMCgEk96LjaF2gcmk20/HGaQrSuFgCAjpmipFQleKKLjsZ94eMeoqknXFXbv1NUk4PT/APVWq2Od7luLFXo/4PrWfDxV+MYK/hUTNae50SDinDv+lQg8DntS5APWvIlF3Pci1YmB+bmnxPYxszX0s8cYBwYYw5z+OOKgD84Apsylo8Y60orXUJN20NHz9ANvKwbUGm3KsK7FCsv8RY84wOgFPl1HSreaQ6ZYyyxDGxr9VLnjnOOOtZAiGBTtgHetW4bJGUYSvdssyanNf3BP2W3t4xwFiXFKS30xVeIAZOamLDuaxnq7m8LpWY4bj1PFIfuEZ7H+VJuFMZhg/Q0orUcmrHHoT57D/bP86145SOO1ZMIzdH/fP860lIFevJXSPDg2m2WmdWGGANRvZW84+7tPqvFMLA4PtUsZHas9UtDo0k9SnJpUmV8mXdk4w3FNuba/05Q9zbSJGekgGVP4jitRSSyAEj5hyOtdNp9wLZmSQvJC4wQ5yM/SoliXBpSD6qppuJwcV73Vsf1q6mpByEkO4DuetdFqfhrS7yF7iEfZ5jyDF90n3WuOvNNudOOZVBRjgSDoTW8KsJ6JnNKnUpq7NN9kibkOc1n3MCSghhz+tVI7h4zlSdvoasi8R12twa1SaIclIjstW1DQpQbeUtFnJjbkGvRNB8V2WrxhGPlTKOUY8157KgkXg5zVErJaTJLAdrryCKmUFIIzcd9j3AorDcpBOKZ9w8gDHeuP8M+KPtMYhlP7xB8yE8/Ueorr0mjlVXBDKf0rmty6M33V0WFcqAWO39KngUysWc/KvX0qr+7GGz160SSs6hIyFUd6afclo14p0eZk+d1xtKpwMelcF4P1KXRfEeo+FrgHaZ3a2DHG05zj8RzXW2921mBHACztySeleb/EO3u7LxJa6uD5ctyodXU8h0/yK0g7uxnJNanp9xZtISXUAD06iq32Fxyn5UvhzX4vEGhxXWQrn5JkByVcdfz6iteayeKATQN5idyOo+tEoJjUminZ6nqVgw2SkqOxrdXxe80HkSLgtwxPcVhCQykKwwf50Nak9vypJOOw3JM3vOgulyjBW9KgaWSCRS45B4I6EVisHt8FW96sW+pM37uT51/OtVPXUz5exS8ZaOLuEavbD94gxMB/Evr+Fec3DAsO/NexrPbPaPGrAqwPytXlGvWBsNR2AfumJZD7en4VV9CdbnOgj9+e+/rWHIf9OJ/2q2k5E5HTfWHIR9tP+9UwKlsjetz8vPrV1P8AVCs6BtqkngCr8DiSAEepFclZPc76D0sKRxUDj2qy33eKhcVMGazRER0x+NMYjOKmYYFM25PvWqZjJajR9KRuOafjBx2prY700JrQa3So15FSsOPrTF4FUtiGtSNs7uKU9MDpQeSaGHy0yCEnqRTgcioye1PXpVkIOpoUf5FKOpx6UL/KkA8babtA5p4GRRtOKVyrAFJWjacc9acoOPSpNmBk1LZajcFjO2ipl4HWio5ma+zRh3P3c9eKpJ6Vduf9VkdMVRXiutbHnPctRen5Vfi52+1Z8J7VoQjICmomaU9zbGMAdeKN6qcEgfUimi3hwMqSSB1YmpVhiH3Yox/wEV5jcT2IqTGGZBx5gz7c0rSBlOA7fRTUwOOAQB7cUA7s5NRzIvlZXRnIwIX/AOBYFDeb2VPxkzUqttOMipY4Jbhh5UTyH0QZpuVtbC5elyFIpdoJZAfQKTTxHnhncf7qgf41Zntri12ieGSMt03jGah35qHJs0UVYb5Knhi7D0Lf4Yo8mNQSsSd/U/zpwYdBQW4NJN3BpWOTgH+lOOm1j/Orakc1WiKiaU5xlyB+dWQQa9d7HixFzUqEg/0qDNTIeQalouL1LMZPmJ9RW8MgdeawU+8h/wBoYrbBAxzXnYpao9LDbMlB561k+I7dptNDof8AVtuOOTitIEcVBf7n0+dEUszRkADuaxotqaZdeCdNo89FzghX59DUmdwyvQ96qzRSJgujgdiQRWpY2fl2KX0sZaNZcODxuSveulueAot7FdJ3jPBNP+0LLhWGMdK0r3Roo1aW2uY9hG4I7c1hlGHBGKUZKWw5RcdGT5aKUSQsUdTlWXgg123hvxL9rYW1wdlzjgdBJ9PeuB3svegSsGDAkMvIYcHNKcFJBCbiz2hb1RgMcVMLhMgKfqa8007xY8aql+ryEYAlTk49xXWWeoQ3cQeCZJFPdTyPrXHKM4nVGUZHTpelMbCMn15xXP8Aje3/ALS8Ps6LJJNat5oc5xt6Gl852k+U4q6k80kDRO/7t1KOAOoxSVSzCULo8/8ABniBdE1lftBP2OfCyjJwp7P+H8q9007VLZJtjOWjbGXTkEV846nZvpupz2j8+W2FJ7r2/Su88F+MkWxj0m7+SVMrDL/z0H90+9dc19pHPB62Z6jdCIzs9uP3ZPH0qt9r28H86qWmrwsdkgCk9AeM0/db3MnR436AFSR+fSo5r7FcrT1JLiSNow7naD0NUii5Vo23K3YVoT6bNMERCNifMT7U8WVvbgMxJYA5C8DPajVsE7GW10/nLGATgjkCqet6VPqGmSqkJ85GLxhuucdPxFbU86WtuZZmgtYgMmSZgo/XrXJ6j8QNEhbZHcy3jDnMEZAB+rY/SrimJtHERkrHLkYO7kHqDWFJ/wAfp92rpL3UbLUrqe5soZYVkIZ45cE59RjsawHUfapH7Dp9acE09SZapE81ztBQcn2rY0rL6fESe5/nXLs2ck11Oig/2dD7k/zrHE6QOnCNuepadTuqJgatMOp/GmbOOtcUJ2PQcLlVwemKbg5z6VcKH2pPL9Vq1VRDpu5S5zTWGat+UuSMdqjMIJrRVEZSpsrt0poXIqy8HGBTfJIGB2q1NWJcHcpleTQwOP0qdoWGeKaytjpWikjJwaKrLxnvTgOOlK4+baRUijjGOtVfQzUdSIAgUqgc1LsGDxSKqjkUrj5WIBxxRzkVKqjGc89KFAxjqfWlcvlHKvFKwOKcOAKQ4xWd9TW1kKvTpmikHSigdzHuh+6/pWeuTzV+74irOB/CuxbHmPctRda0oRkCsyPAxzmtOI4UfSomaU9zaBGBz2H8qdx0zmokztHPanj615jiezF6D8j0qxa30dhMJ20+3vQoIENwTszjrxzxVXv1pHHy4xSirO45O6sbH/CVp9meNPD2ixs4AEhgLFACTxk9T0zVa91+5vZ2ljtrK03IFC2kPlqMd+p5PrWcFXHPalAHTFbOeljFU9bgsk007TTyu7HuxzU4J+lRqABn/wDVT9ygZaRF+prCXvPRG8LRVgy1GGNQtd2ydZgT7Gom1KBYi5YlBn7opxpzb2JlVglucu+RcuM4+cj9atRSMMc/hVZ2hfDo7l2diQQMAZ45qRCOoIx3r1ktDw23fQtCQrzwTUi3IX7ymq24fWo2kAPWlyplKbRrR3cR2YPQjitA6tbKcDe34YrnrZg0gHuTVhlzIR+tYVKEJPU6YYmcVoaz60P4IPxLVBNq92Yj5UG49MIpJqiq4/xrS0oETEg46c0vY04K9g9vUm7NmDqOovJBFEYZFZQQQ6kEGqb3tx9jK4fy84zzj6V2uvEtOdxycDg9elc9CgbT49wyv2huDyOldEGpI5ZJxZixXrxkK/zR+noK0VCSKGX5lPINSvZ2xYt5KZPXFNkKwwkrgY4A7U79hWfUo3IRW2qPmHU1UZgOSKWWcE/KM+pqEuW6iqJJPMU9f1qW2u5LOYTW8xjdehWqmRQPyoA7fTvGEUrKl6oic8eav3Sfcdq6y2upGUOjRSIwypTkEV48GIre8N3upJqEVrZzbUlbBRgGXHc4rmq0Va6OinVd7M2/HenTEQ6qV64ikI6ex/pXGhmByDhhyCOxr0LX72aDTJ4NRsDJbyrtWeCTgN/DlT0rzxVGcufyrSi7wVyKsbT0PcfDep2Oq+HbS5nUNIy7JY16bx1JPXJ6109o0K7VtkCRqBwTwK+ebDXr/SYZYbC4MKS4LHAJz7Z6VFea1qeoLsu9QuZk6bXkOPy6UlTs7oHNNHumreOvDmjBo59QFxOuQILQeYc+56D86881f4paneB4tLto7GNukjfvJfzPA/KuAz26elORWY8dK1UUiHJk93eXWoTma8uJLiQnJaVix/WoA/pSSFQcA7sdfSkVXk6fn2pklu2uTFIG/AjtippJtwcDGWOTiqDMi/Kp3EdT71JG6Dk8MwxQO47NdZoxJ02D8f51yfNdXox/4lkH4/zrlxfwHXgvjNAkEU3oDSE0c151j02Pp+eeKYM9+9OB+bGKllIbgbjx2prgccU5TliDQwp3dxW0GsilaTyxjNPbhRQPu0czsKyuVzHycdO9I0f5VMMDOac3StPaNE8iZQaIebkil8oVMT8/tTyBjIrZ1GjNU1crGIY4pqwdatlQRShBil7VpB7NXKphIHFMERGavGPgmmbDnjmhVROmittYf1prDirmw+lMZM9RTVRXB09CuMY70VYEYx0op+0QuRnPXpxCfUcZrKDHvWrff6k8Y9qxgc13x2PJluW45kyM1qwujRjaQfpWFmrFqczKPUiiSuhxlZnWLKiIu5gOB1IpDe2ydZQfpzWPPH82Mn25pgQCub2EXqzs+tSWiRrNqluv3QT9BUbasMELCfqTWeFHGKXuapUIIh4moy0dSmP3VRR+dRtfXLD7+B/sgDFQYpf8irVOK6GbqzfUeZpWGDK/PXmoyD3JNKcZyDmiqSS6EOTfUFUGib5dMlPcE/zoyelTJbvd2rQIQGckAt07UpNLUaTbsjn1c7fTFSCRvXirc+h39tkCHzEH8UfOaplPLbbKrxt6OCKuM4y2ZMoST1RL5hxigOe4z7UqKjLkEEdzUioP8M0ySawA83cWw24YXGeMVeYfvCeoqtaoBID71Yf/AFh9KzluaRVkPBrQ07Hmn3x/OszPIFaOnZ84546VFRe6XB+8XNc+afPc4/lWBER/Z8a9xcE/pW9rB/f8DsD+lYEe8aeAkTyN9oOAvU8VVH4CKnxitWXqUhyEBxxk1r/Y9QkBZbLy1AJLSyAACueuXZ5WLHk88VcGnsTJNblYik6UpNNJqyBc02gcdaKAHBc49+ld14D00eVPqD8t/qkHp6n+lcbZ20t3OsMK7nILY9gMmvQ/AyufD5KkYMzcfgK5cXNxpNo6MLFSqG3dQR3NvJbzqGicYdT6V5tregXGjyFgfOtWPySjt7N6GvTyh/jA/Kl8tXBQxlw3BGMg152Hxbpu3Q7q1BVFfqeL4OOOaNr9xj61v+KrH7Hr0qxJHEkihgkZHy8dwOlYLRupwyuxr2Yy5kmeVKLi7Cbo1HzHcR2HSn7nkXkhE/KmM3ljO0KfpTPnbBz1qhD8xqf7/wClNeVyMA4X0FPMQjXc/U9BUBOTxQAoJpWOMe9Crjk9ewprnLfSgC1BLvG09RXYaRxpkPrzz+NcIrspDA813OjMW0u3bGMg1zYr4Dswfxl7OSaWk7fWlXJYV5zPT6jsnOBS5wSTSEZPH50HPPvUjFHJ4pHPNEfc0jZ3UW1Ae5wB60mciiQ/KMUg6e9AdRg6mnE5FNUjmlPTNV1F0IQByacfu0nIFOPSrZmhxPFKowOaYTxTlPy1LWhXUcQdmaTIPagtximgmkloN7kuMYpGGTzS5OBSMfSoW5QcCil4HWincLHKX5/cN9OtYYY1uX4/cN7LWBya9uOx4EtyUNU9qx85D6MKq1ZtJXjmBQ4J4OO4piN6f7wqMegqaYcgjpUeByc1mjQOvPekpcUf0oEIV9qBkYxz7Upz3pDzj1NMYhPJozQFPfpQflxuIUe5xQIK0NI5nRemWPNZT3ECHBmTn0Oa1NIYGVXVhjOQO9Y1vgZth/4iOk8hO53VHJbwOp3qGX0YA/zpDMxHp6ZoVyTlhz6146clrc92Si9GjOn8P2FxllhCse6ZWsyTww6/8e9yV9nwRXSNtYA8/gcU30O046dK3hiakepzTw1KXQ5ePStVt2BW2E4z1Q4q3/Y+rSclbaHPUFtx/St1STzn8Dmp1J9cfQ1csbO2iMVgodzDj8OTN/x8ahIf9mJQoq3HpkGnMvkmRi/3jI2TmtMHc38efXtUN3jzYeev/wBapjiak5WbHLDwgrpFTVh++Gehx/KsrR+RBg9Lo8d+hrX1RSbgA/3R79qydEUb4GA/5eiCfwNd8dKTOC371Gnr0j2ukyuDgudg7V59Mcnpiuu8Y3B82C29FLGuPds/ypYSPLTTfUeLlepZEZNNNKaSus5QoooB4zQB0HhUD+0LhvS1lx+Vdf4GdV8NjGQxmbp+Fc14SjX7VcH/AKcpSa6XwWGXw4oBwDM/P4iuHHP90ztwa986Bp26AAn/AGuaydY8TLpUZjh2SXfZFBwnu3+FTaxqUel2TTg7pm+WIYIy3/1q89JeaZ5ZWLuxLMzdSa5MHheZ88tjoxOI5PdjuQTNPdXMlw53SSsWY+pzUEqsWwc7hwasTXKx5VcZ6cVRM7ZLdSe9eyeV5iN5i9ORTPNde36U/wA9+wFIWc8nAoAjZnkOTk+9IAE68mlZjnrTRyaAFz1Y9ulRmnvwAKZQAV3Oi8aPbn/Zx+prhq7rRv8AkD23uM/rXNifgOvB/GXv/wBVOTqKZ/8Arp6DnntXny2PTW44H56TOe1Gec5oHepKHDj/ABpjH5qcBzjtSEfPSW4nsKx4HpSL0zSScAUoHyjFOwdRoNDHAP5UnIobPT3q7CvoNIOKCfl9TmhzxSdqrpqSOz/+qnLwvFN/GjjAqWNMeTgYIpODQeRjtSdKSQ2S9uvpSHH40ZOKa9QlqN7Dx0opF6UUWA5i9/493/3a57Y47ZroGkiuRsWeMFht+YmpIdBdxyyD0617HOoLU8RQc3oc2D6gg1YgH7xfqK6L/hHOcMw/DNTL4SikwVnMbDuMk1DxFJbstYeo9kRyo2BkdKgMkafflRfqwrWXwpGx3XF7dzeozgVat/DelRfetkY+rkk1jLF0o9TVYWrJ7HO/bLReDOG9AuSTQJzJ/qbK7lHqEIFdnFZWNvzFbxIfVUAqXcMcHHoSaxlj4/ZRtHBPqzixbatLgR6VIgPQyHFWItB1ubBd7eBfTgmutNxs46nuRSGVyfT2NYvH1HsrGiwUOrOci8IyOu651GU/7MYxViLwlYIw8wSP6mVyB+lbe6Q9Dt+lMYFTkn8zWTxVaXU2jhqUehSTQ9PgGUtoMj2z/Op/LRRhUAA4A6UrMv8AewfegynyyA2c+gGahznLdmsYwjsiKSNmwQMe4JNIYSp6/nT8luMdfelO/pyfwp8z2G+4gCgfe/Kl+UDk8U3LdCmKChPIzjvmkHQkUoR16dB2qQELwB9DTFCL/FUmE9c1DGhwLY56e1Q3p+aIjjrVhB7EVBqGAYgDnmqo/wAREVfhKeon/Sh7ge3asvQgWkgVh8puyf0NaepKfOz3wMflWHZ3H2OyNwhyUnJH1wa9mC5qdjx5S5alyh4hu/ter3EinKBtq/QViN1qzcNukOTn1qq3et4R5YpGMpOTuxh6UdqCaKokQUoGaQVatLV7mR1QfdjaQ/QCgDo/ChLSXhGAVspB+GRXT+DDt8PqvT96/PPrXM+Gx5VlqszfLstivvyRXTeEmEPhRLh8BEaRySfeuHG6wt5o7sJpK77GL4ruDPrAiB+SBQuB0yeTXOXEpPyKTmrF5cvPNLM5JeVixJ61S6H39a6qMOSCRy1Z803Ii8rJyeacIFzzwKUuF/CoZJWb6VoZjmMSZHUioHk3dOlGKQgigBuKVR39KOtW9OsJNSuxbQyQxswJDTSiNP8AvonFAFFutJV3UtOl0y7ktbgxNImMmKQSKfowJBqiOlACniu60jH9lWuP7lcJXd6QMaTanvsrmxPwnXg/jZdHTBPanLwaaf6UqYwa4Htc9JCg8kY4pVNAPU0gwQakocOp70Ny1NU804/eBpWswWw2T9B0pc/LQ/ajjbTF1GZoz0z9aODSHrxV2JYznn3pw+7Q3p7Uq9PWqb0F1E5pRnAoHvSgjFJjsKTSZNKwOOKae1JAyXPFManZ+WmnoKhblPYkU5FFR4oosFzLsfD9tEd8+ZGHQDgCtkBEGFTaB2FWWACDaB7g1Gyn0QfjSnWlN3ZEKMYKyIstnipYzICCTxTBntj8KdvI5HX3qHroarQss3bdQCByTn1qMODyf0oZ/wC6vHqc1ly9B3JPM3cADP0pxCldpqtvYdhj/Zoy+N2SPyp8ocxYXYvytyPcCgui/wBMVEC5X7wPrxzTgm7B6/SpaDURp1U5AP1qMz7zhQOehPWpGQjqox7nmgKuf7tUrILMZtK5+YEHrTlXjaeQe1S4U8kE+nal4HYCk5D5dSH7P/c4HuacEdOuW+h4p27JyKXEjHgg/hSbY7ICSRyv65puzrjinBQTtddp9TmlMIByDgelK62HYAqdGz9AKfhf4RQoJGAHB7Z6VIsLg8cZqW+4xuPUkZqrfHmLnODWiELDDHdjsKo6nGU8pgMckcVeHknNIyrL3GylqWfNBH90fyrmeujTegn5/Kun1Jcn22j+VcuMnRbj/ruP5V7tD4TxavxGLL15qAnrU0nXHeoG61uYjT0pBmk70uD1oAB3rc0bKWt/cY5WExjju1Yg/lXQWSeV4enfPMjAE+2RUydkVFXZas5hHp2rxfxSKPyzV6O8e18BWsKkg3DuMZxwDzWPasZItQYZ5iyPzqr9qeS0t4m4WFSqj8c1E6ala5cajjewxpCQcnPuahZ+PrSuaiY1qZCE560wnmlJppbFABk9qaSc9aCxIpO9ADh0pylPmD7/AFG3FNB4qPdkk0APlKH7mcY53Y61HRxgevOalWOM27uz7XBAVcfeoAhrvNL/AOQRbf7orgzXeaX/AMg20/3BXNifhOvCfGy56mgcg009DQo7iuK2h6PUlTO09xTWI9MUZwMUuT25qLal30Dpj3peM4oPOPakPWluGwP2/Sj+HNI/J60p/wBXTF1GDml/nSLxig9avqT0GnsaUdKRjwMUoPy/zpvYXUSlXpikzSg9Kb2EKc44oJx1oY8UueOKkodnjn1pp4px6GmnpUobEzRSHJNFVYVy1vcYDGlDKx5X8SacI125Oc0wBVPOPfHNc+j2KVxrKqt8uQfenZ5A6n0pDtLZU1NHErcnmhuy1Gl2G7gDjHI/OpUO4d/XpUqxv/CmAO5604juxB+tYua6FIiwmfu7j+lNKZHynb7VMUMhGw7R3xgZpyxR7cMQT3x1FLmSGitsJ4PI9KdtIxtBHbtUjoo+4wP51DtIOTVJ3DYlKZx+vvT9hxgZ/Cojjb97b9TSeYU6Px3Oc0rN7DTQ8oR97j1oEYbGM896YkryttQFwO4q2iOvUgenepk3HcE09SFbRhyGwPepUtQOhLEenAp+zHJYuaXzdh6DJ6DNQ5N7FaITywGw7c+nU1MkSgHaMH35NPgikm+7BIxPcDA/Wr8Ol3b43QxxAjIMj5/PH+NTyVJLRCdSC3ZnpHk7s59PapjHn7wIrUOkKsau92gUkDMagD+tP+xWkUoUkS9ABISQT9Kr6tUbuzN4iC2MhVj6KfwHNUdcgeOG3Z4nRWY4LDGeK6qEhJFSKHyUPUvGBn8u1Y3i192n2xPLecece1dNHDOElJs56mI5lZI5i/5+m0fyrlxj+xboj/nuMH8K6W+II9iB/KuYyRod1jr5oP6GvZofCebV+IxJTzzVc57U55CTyKbuB9q3MRtHtVzT9MvNVuDBY27zyAZ2pjOK0JvCOvwff0i7yOu1d38qV0BihWrr7y0Nn4fSB+HVFY/U81V8N+HLq616CO8s7iKGPMkhkiKjAGcc1t+KsLBMfVQc1lOXvJI2gtGzn9P/AOPe8b1j/rWcTwPbnFTQzGKzdF6uACfaqzMTwa2MRrHmmH60rHB68UzvQAh5pvenCkNACHnigCkzRk0ADHaOKYOnvQ5yfpSCgBaM5AHvzSe1HTigArvNMGNOtP8AcH54rgzXe6b/AMg229lH8q5sT8J14T42We1KMbeKT/OaUZxXEz0UOJ49qToRij+CjvSGx2eaOppvOfxoGCaVh3B6Un5etNfrSk4WmlsK+ogOMUh6fhSUEkD8Kq2pN9BGPIFKCcVGDk/SpB0qmrEp31EPFKOBxSHvQDxR0HfUU8gcUelOAFIRk/jUp9AaJDzxTD3pT0NJ2qYlPUTOKKMmiqEaRhfH38ewGagMUzHAOPcVc80KOFz71JG2RnIrg52jVxuQQWuwbiuT6mrA+U5YgY96D3zn6k4FMJT1/KobcndlKKWhJ5qd23fSm7lPKgY96jyuOFJ7UilyemPwo5UPQkbc3TGPpTcBQeQPpRlcZIJpDLGONwBppMB+VPbPv0ppCHqD+FNBVuQTmnEvjAxiiw7ChEPSLntnmmyRA9RgCmksOCTSqC33+nrT1WordCSxiM8nlwYLd1LAH8utaKaZOWKyMigcgpyD+JrKkRMYwGqWG+u7fhZyU6bZcsP8RWkVB6synGfRmzb6ZGZcuDIOweTAI/DFTxRKGGyCKMKTkgdvrWVHrSEkPC6MRgtHll/xFaEFzHMAiXMcgPZTnHHp1rdQja8Tklz7MtCUKpkkVFAO0F3BH1xUQeR5mfc8qDBCxkbSPxoijePLCGKNB/y04JI+lNWdwCrTBjj+HIAHr7fSrVkZl1ZAVwkOyQgkbgNoPrSxh2Zk2gYHDgkf5+lUQz4C7ncDrjoRTgHWQO4kWPGchxyPxodg8y8v8ZITJGAxBGaxfFUe3TLZzkhpsj06Vpi5GQUMikEDlQSRWJ4muXltERmc7ZeuAB0PSqg7sVjn74DywT3UfhxXL9dGvP8AroP5Gulu3zGvrtH8q5cN/wASi7HbzAf0Nd9HY5qu5z7cGk6UrEE00VsZHd/DWFv7SurrajLFEFy3QEn/AOtXpzyNsRwxQ/8ATNcH8zXhug69daDeefbEMrYEkTjKuPevUtL8U6frcGVm23AH/Hs/BB9j3FctWEubmRvCUbWN95VEG4tKx5yzdjj8q888URh9OmfklQBn2yK7ubz5bdleJ1UqQDwAv+fWvNPEl7cWfm6VLNbXm9RieJ8lRno2OM1MINu45NJWObyRGn+yB+dMJp7cAD04qFj1rsOcaxyabnNKTTelAC9KQU402gBtL0GaT61atYlcF3BKdOKAKJyaStK4s0U5T7p7EYOaqNbPngYx60AQUVL5L9xil8g4zQBF2rvNNBXToB/sA/pXClCK7uxP+gwf7gH6Vz4n4TrwnxssdOlKPu5po5p2flriZ6CHDpRkbqTIIx6UDOfUVNh3Fz8340Ajd0po6/jSg/PTaBMVxzmmnhc0rHnFDYxQgdhopGOATSimsc8H8fpVpakt6DAfnqSo8AGnmqZKBqVegFIelKOmKT2H1FPBoByRSUDls1Nh3Hmk7Up603ikhikZNFNop2A1iSedgA9WpyOMcv8AgtQMpc53YpQGHQ1wcqsaJu5MZIx1P5mk+0JnAGfoKrOCvJIP0oRy/wApwPenyKxXN0J2nfoqgdsnmlG8nDP+AqPCD+IGn8tgLSslsO4MgPTkdM0gUE8cUpyB8xA+tRrImcZppOwEwQZzk04ID1zULSOhyBkeuaT7QdwwCPXFLlbGmWMkD+WaTeTgE8ewqLcjN8x/A0/Yo5U/lU2S3HcRpUU42uT6ngUvmjHAxmmseeTzSZQ9OfWnZCuKyORkNx7cVA8QJ+Ybj696sbT/AHTg+9G0d2wKpSa2E4p7joLu8tGV4ZjIF6RzfOP8f1rQTxApG65t5Y37mH5kb8OtZpUfwkmm/MOikj2rSNV7MylRizVk1WyEC3BuY8FsEchh7Y/xpo8VaUhCO06ocDLRHP51yuszm2jLrhGHID/xCsqDVkmZUe3KuxxmI5BP0ruhT5o8xwVJqMuU9Lt9StLja1rcxvub7u4kis7xMDHaJklv3mctjrjtXLi1RpAgTMjdBGDuz+Fatpbjatte21+27Jj4O9fwPUUlBRegPUoXBzENxwdvFc0CP7IuwOvmDH05rv8AV9EtbGeOB59QZmQEoLPLqD/sj0rmbCzsJLm4sU+0LKquwkuCkaZUE8g9Aa7KWxyzd2cQaK3z4S1eaPzUs3G4B1jb5WZGHDgHqp9atx/DvxFINwtY1XjJaZcVr5GZywBzT0doyGBwV6Gu0h+Gup/KLh7eInqTKSP0FXk+G0IwZdVgX2UOT/Kq5WFziP7RuZOJJ5X9Nzk0kTrJJhQeOTXeH4daSD82tunstuST+ZrD8RaBpmgmFbHUJ7uSUEuJIQm0D86VrBqc9IxqDOafJkmmdOKQCZNKMUlLg0AIaQ07B603PNADgu44A69K6C2tVSKNASMDke9UNEtvPu/MJQCIbvnzgntXRJZeZuIX951wuMYqJStoNK5jSZK7BwAeSaYFR8kMWPXkVtSWMcgCZcvgkgAH/OKqpYEglJRwSWGB8tNSVgsZZj3Rl3BJ+mBTURG+8Oowc9qvfYnYlFyxHXHepGs2jhG8Jszw2Oad0Io/Y4ydoOT7V0luNtvGv90AfpWWbQ+SXDOcc4GMH8a0rcnyhnrxXPX1R14bRko7inDO0UzPNOXpXNJHatxw5GaQ4yBz9aUGkBBIFQixVBz1zzS9+aOmKBnPNJ66gI3Wg9KRutK33KYhBTG9RThTSelWtyW9BuTup/GRTPU070psSFz+VL2pjU4Nx0pWGmGT0pQOR2pvvTgfUUmC8xzHmmjr7UNyaBSS0H1FHf60Uw9aKdgNoRluWFRyxbQdo/WlEjZwME+lRSNzyCfcdK8+KdzfS1xu0Y+dsH2poKjpk/pTsg9yo+lIUHX+daLzEIJwp4X9aBM0jcvtHYUqRIehGfSnLGFOdv4024oEmKyDrkZ+lIFzzmnGPecj8ulSLEFx/So5rIqwi46daQwg9GH0NS7R3Ye1NIIPTNTcdhgR04HI+lODOOwNNdnQ/c49aSORpZPKjhkkkxnbEpYgfhTs5bCcox3JQCeoA+tKETOd34dqv23h3W7sRummzojDcrSKcEev0q9/wiclsA+pajaWadxJMiEfqTVqhN9DN4imupgsccAD6k1GWLkKuCfRRk/pW6D4PsG3TambyRe0EDSDP/AsCkbxlo1sSdO0S4kdRgPcTCMY/wB1B/Wto4WS3MZYpdEZdvpt/dSKlvbStuGQXAjGPqcCrK+DPEGpNsgZIkztIQNIxP8AwHjH41E/jbXrl9mnadbwDoDDbBiP+BPmuf13xR4njkEWpajqeH6Is+xD/wB84H4V1UsPFO9zmqYiTR0Vz8MrS0G/W9S8vHOJrhIR+WS36VXS38C6SR5Usdw47wI8x/M4Feb3OoZkJMQZ88s5JJNWtE83UNTjhd444AQ0pbgbc8j+ldbjocqlqel23jXStMZWtNEkZFO5RNOkIJ9woJx7Zq/pOszavqUuu6jBHsYMsSW5IAf1HfA/WsSy0XR7y8jijsIN8zhEHO3r1JJ6d81sJ5MFo0cLeXYQj5F6DA7/AI9a5XOL0idEYu95G74l8U/vbCCDUbmSMLJLMLSFbYqdv94gnAzyc1574V13QrbVftWp2kmxZSYL2KMPNE2OrA5Vhz0IrP13UHdChJSa7UEjvFB/CPqx5Ncm0zw5lRypUhR2rsVzldkz0rUPBN1qqJeeHde/t6JQQi+cI54167TGxxgexH0rhNQTVNJnNve/abWVeNkqtGfyP9Kq2msXkMyzReYJAc+ZESCPxFd9pnxJu5YDZ67aQavaEDMV7EGIHs1D3uCV9jz5tV1FOUuJCOmQ1NOualx/pMn4mvSj4a8BeJVdtOvrjw/fMSVhm/eQMfTnkfnXJa/4E1vw6S9/YebadVu7bLxkeuRyPxFNSBqSOcbU76Ugm4kJJ9adI7vjexYjgljk1qrocTaW2pWupWUscWN9uz7J1P8Aun7w9waypDg4/GmTchPX6UbRSsRTM4oAdtFKQqjmmBsZNRs5JoAcz9u1NVS7hVGS3AHvTe9XtN2i9jLDKrkmgDpLG2Szs1WOaPftBclQcnvVozuqorRhkPJYDIH4Vm+eQ2xHzjnOB0p63KfMu3AOCcYNZON9S07FiR0KlN+5AdxDDaac86tGpU8KfmO0dKggnQMg3gowyCy5JNSysGlQqAoz82BwabC4plDBQrxlCDuAG0fnUexSpOQIsZBVsn8DTJdjSbQUYnJGeDikHyESCIjJ5BPSnbqK4iDCkxEmNugI5rQQYVR14FUTnJDgtu4GcYxV1cbVHsOaxrHTht2Lkj6U4E4+lMJp2SAKwaOtMkycUi4LUZpinmoS0Kb1Jm7Ug60maFxuqbaDvqDYzSN0zSN9+lYkD2qrCbEFIeaAaaScj0xVJCb0EPU04cfhTM80pNU0SmObpxSg0wmnelKw09bi8HPrSjI46im4pRkEfrUsYpHNAPpQ3rR2o6DuISM9cUUn4Yopiua4TbnHA9e9M3heSCR704yFR049aawZ1yMbR615y8zp2EWTfkqo57+lOZEz8xyabHljkAnHr0pXIB6YJ6mn1sg6AqAcqakyQen4jrUW4j60p3EZFJp9QuSFio96TdkdarszD8OtAb5SDx79qrkDmRPt3Hg/nTGZo2PXbUKyl2Cj5j6Lkn9Klv55rCBHubcxhyQgfALfh1qlTk3ZImVWKV2Kz25aFZpjHCzDzZEGSo7496v2/jU+HpJT4ctIrZGUr5s6CR3Hqefxwa43UdVnMXyRBADkZ5JrOXW1OQ8HzdMhuK9GhQlBannVq8ZvQ7e48Sa9r7K17q17MXHEcJIAH+6uBVb+x5Wc71Ifr++ODW7blI7SExrHEgQFFDYZuBTwJcGb7KI1Y8M2Cf171jUqPm3KSVtEZ8WhwYAe6zIw4VFxn+Zq/HpdvGERbeIucFgYyx+vNPmDRxBBDgsBlkOCv5f40yJ0tlLC5feeSJQSW4rNybVx+Q66EpCJCYo41YjDjJYYrnPEFvc3sQtzMF3NwmBgDt/+ut1p0GJWTzG/uMSCP5VCBvHmAHaegVSSPwrSlJp3M5q6seenw5eyTBXCJk4BZsZrR07SPsshBm+cEAqqk5rqGhAmkdLdJSOR5sRyKsWdjPqV35C7Np+aQJwdo6/5NdEqzsYxhqW9J0/7PppvpnDtPmCBSckDozY9+n51S17UYbdVtTlkADygcEqDwv4n9K2NRvoYfMnQbYbZNiIDnAA/yK8/kE+oTz3L8kNuJ5I3dh+AqaMdeZmtSdlyoTy4b2SSa93tcStuYhsDPoPYdKhfSYoSXECOpPBY5ANRkPFIN3GDyc1NHdRfMvlb2xgZYjFdGt7ow0a1FEbbdkdv5hB5KtgY9hUMqJt3IiKRxwxPNXgkc0Ks8sQHXahOaTyIXyBgr2GO/wCFLmDlKQV1xtY5/iC1taZ4l1fScLY3spjAwYWOUI91PFZinEmzDoq9cDOaV5DDG8zn92gyQeppPVlJtIl8W67pmqWCK2g2lpqpYMbq2+QMvfKdMn1rifNcdTke9TXVybmcyt1Jzyc4FVulbRVlYybu7jxMCeRinblbjNQYpKYixxSYBNRKSGrrrSGwu4g8dtExwATggA4pN2Q0m3ZHLbeelX9OiJLvnoNvHWtifS7VmOIQv0JAqBLdbbKIuVPJOTmlzprQfK09RoKrwD044FHm7VKggD365oVXwVUdD1PWmSJhcP2Pc0CJTIFAKtkn5sgcZpyTAA7zl+oIzgVVbICglGXjHqKUHk7cYB5C5p2AvG5B2lyjqByQMZNM89SMkhc9DnjFUhuRgCcq2enYU5gu1cYJHOCMGiwXLLTs4CHY6r781qLnCDtgVgKGJ6orAYFb65wh9hWNU6MPux2OaceBTSeaB2rnOu5L/Dn9KaODS5BpBwealFNjxjFCnDcUDHamqfmqbFXFPDUMcimt9+hjVJEt2AZpD1P0opp5qkJvQTPWlNMXr+PNPJ5pvcm9xOop3IH9abTuQM9qGNCg9M0/NMTHWnY9Kh7lJiHqaXOQc0h4yaB0NAIMgUUmaKdh3Rp8kbS2V9KAFC7SetMV17nH86eRlcKea89prQ1u3qOUheM0pV2GOAKrZIP3sGp1JC5JzQ421GpX0GuGTk8mkEhPQcelL8zfd4Hc04Rk9OQeSaLrqPVifPICEX5jwD1Aq1YrbQrt1C1Mj54nBLAfVO34ZqFS6dGwPanrO496cZuOwSgpLU6mzi07yTMk1pInByuSAfcV5N4i1k3viK6nQ4jRzHEOcBR6fXrXWvMC28IEcdGTINcZr+mpBM11DIWDElw+AQfau7CTi5bHn4mk4q62K0t2Gi8yQBucIp6E+pqkblpZMOEIPoAMVHKSYkxzjg4p1nF506I3CFhk+1eicKPV9M8u70yzmW2SSRo1BYsNwwMcVceQR/JkZzkEcjHpnsaz7bU7QwRRW9lLDCi4jCyAED2+tNR3mkfaCyddjnpXkztzHcjTMapMXU/u35cuctmmSSqWSGPPlLljsI5rPklnPzxQyhc4JYgj8BSea3mYUxpJ3LDg0tClYtNcrIzu/msq91AOPxNC3DSSZjdIj1YuxZse3aqAEqsyu+COnI/QU7bgF94f1JJ+X+lU1ZCVmWZ7uJVJSYoxIBdCSTz+lbm2LTdBknE0aXsoBkZ2GUHOcfyrP8N6dc3WrxSvDbzurAxQSjeGYnA3dsDrzVzxt4S1fTVlWO0a5iLndcMuBIPXjpj0NbRp8yuZuaizjtU1E3UcVnbZKkhmOOp7D+tWBtsrNbcAFFHJBwSe5qjbW67gwlDsoCgKpB3Y5wOc46ZqxcxxqoCpKX+8PNwAauWjUUTHXVlW7W1kwiIXxyTuB7ViXESoQyncCeVz2rYYeUGAhKMeflU4qp5KSZdsbh1JYLWsJW3M5opLdGL5UBWQ9DnNXY7pGbDoVzySTnmmCCORtpGzHY5GaJLGKPDiZATweScVTaZKuieN4kJDhJVI6oSDWZr18rwxW0PyJjcwOc1a+ySqMhvlPAboCaw9TBFxksGBUYIOacUrg27WKB6U2ndqTArQgSkxSgZ+tSiAhdzkIOw7mgCGr+nahJYS70+ZW4ZT0IqoUB+6MCm8qaATtqjvLe6gv4BLbtux99CPmX/PrTJ4484AKsB0PpXI2t3Layia2lMTjuDXQ6frkNypS9wkgBxIBwfyHFYODWqN1NSVmNlRN424U+oJzUD7k3fJuHGeegq8VExLRmN1JwDkEEVBIjxkhlQHrgHNaRv1M5EDKz4Oz5D6cU3btJTjPanjkZZsKehOcZpSoPIIJ7DtVEkAjkXA4AB6HrimhE81izcetWGRmC7kyD3yOKasCCQ7ueMYHrRcRE0YjwquWz0GK21+6n05rMjixuIGQO4JIFaCtworKpqdFB2uTdOtLkf/AF6YT6UoPasLHTck6c9aRSdx9KM/h603PzdealItslpqE7qXPApq9TSS0H1FblqRqCeaRjwKaRL3AHimsev50o9qa/UfSqS1E9hEOaeetRAcg4p5J3fhTa1EnoKTgc0ucCmt/OjtmlYLkg6Uo602lBxU2LuKTnNA549KRjxQOnvRbQL6iHrRTTnPTNFOwXNddg5A/GhiD1H5UYPVTxTCDnqT9K81bnTsgCLuy1SZXGBzUfzL14H60u4cc03dhotSQMPWl8wdMnj0qAyjPQZ/Ojc3b9KOTuCkiw0gPb86arjGO1Vy7jg/jilB3cKaOSyBTJJHAGBz9Kx7+KO5+SVCR2rTJPrUTcnDJu963ovldzKoudWOd/sOPJKuQPSp7SxeylDxhJATyknf8e1apRc9MUbEPQ9K7PbM5FQRp22qweZHvgEEpIB80AqB7N/jWi0lzJ8scW2NuMxneGHtWAFyCHHy+/OabEz2cyyWsxjKnOzJKn8K5/dky3TaWhvhAp8uGGTzlxkHjP160145J18l3eMryRGpAB+tU11tZJd1608BA6w8qf6irkMqMzTr5r7+ykEfnScGiUugzzHjZj/rHxgFxg0Ru7qxmf5j80UaqBkVM0kJn3ywhcKVUsckGuV13XTLeG2h/drDlS6Hk1pTg56EylyI3JNcn0C7iuYpfKdlKMAdwz71Yk8aatqMTJBrs6RKOYRhRj0xXnk6mUAAl2Y8DJJNUpbd0J+dM9MK2TXbCHLG1zCVTm3O8tI1trTzdhaRmLKOgxn+tMnPnZcymLHJBUk5/wAKraRK7aTbhTu3KRgZz+fanXIuTjzAfK775c4rnfxalrYGZljwimJOpIP3qrrGfL3xruAbO1sEtUjQwjGxT5uCUwSc/WiJITuV4Y42znG4ktVKyQndsiUySMzuI8dwcYX/AOvTvLZ4w4UgZ4UDgmpRIkbM08AVTjBRsZ/+vSzoN26L93uAClwWAPr6VXmQwjEkRIW22ucKDt4x71yOqYe+mO3aA5GF5ArsY1QQySu4dkTcS7EDFcPMS8rP/eJJFXT1bYpESondj+AoBiA6Fj+VN24pOR3xWpA/zCOFwv0HNN4PuabznpS/jigCZfu4pjrTQSKdv9elADBxUiPtIIzSfK3ek2ehoAnhkAbJ6Z5FWkkgaYDJwRyfSs3DdqUkqM7vwoA1JLhIYiI5X3dhnjNXYJTcRRvs5I68AZzXObiec8V0GjOZrV4Qo3R8gjrjNJjRbMe7POD2DdKasaxxZIPJ4KnjNWQpYlQu0ZHB61KbcMARkgnAz94n6VKY7FdlcR4bChuwIGacOGUH0p0cQEjovJ6nIJ2mkEUm7IUkAZz7VEzSm7EpIpAT1qPzFc7QeaeMHGeMVlax0c1yYH2zTSVLe9Ln06+lMYjJzwalItvQl6cZpFxSHNC9fWlbQpPUCRnmkYjFIT89I445p2JuOGMfWmSMMUZyKZIeR9KpLUly0FTORTz95qYh5z707d8xoa1BPQXkkelOxTf4hTuaTKQ7mhSMkdqTJ7UDOTUlXFIIoXp9KQ+tKOlHQFuMPWignmimK5pNIemcCmibHAOabtB6GkIAOcfjXGoo3cmTcvyTTHQeufam4IPJ608YHAFK3LsPdEewA5p/J7/gaGODjqe1DZA5HvTbvuTothQDilBUfWo1zgnP4Uu4D60mhp6aknU8ZoKHODxSR7+wqQIT99gKhuzKSuRmNB1OTUTIR9zFWCqDoM0hIHKiqjNicUQBXHLdKd5Kk56mpB8woxzgU3JgooYY+3SmCIQEtBK8THg7Oh/DpUuCO1NJU8HA+lCm0xSimg/taW0j/eWkUpUEqVGQDj+7/wDXrgXlZpGZvvMST9c13TRoecE1zOu20ccgkRdrt1AHBrvw9RPQ4cRTa1KJuHitjtPzy5BPfH/16p7iWB79qlOHhUKeV6imwwtJIFweTjius5DrdGkkXSAkhOxiSq+3rU8lszx4kcozYwD1zVe2tZfKRXZ40GFXcpIBrWtdMnjLsAGB6FAd2frXLNpM2i9LFW2gKHY8x2nKgEgbjVqNSFQv/qySpGRkjP8AD/jWhFapL8ikJGpJAcZJ9cHtTGihR8tdxIiYYKehH+NZc1x7FW6jhyCiJGzdC+CPrUrwtbwsRKWbGBs9anTZclUKxgkZBjXANNa1SGMyTNDuA24ZySR2wBQphy6lDUIBNpMm5EE7IdpJJJPt9a8/kHOegr0aO3326PMpjfp8rYA/KuevPDNxLPNJaTQGMZOGbBrelNK6InFnLZ96TNbLeHdR8veIYnXGfllGarnRL9SQbJyc9sVvzIzM3knAowenFX20m/8Aum3KHGcEgGkXQtQdN627kUXQFAqaMEe9WTZ3Kna0L57jBpjxMhw6uh9CCKYEGDRzUu0Z6ikIweooAYAx9qNuOpp+AOSaApYZRSffFADAueB+tdToMQtkbfF5rSYJC9QKw49NuXlRWTBbkE9MV1Wi2LwxsLj+EgqcnGKiTVio7l97eWX5ordNyjjGM1WNsE2soKODk8EEVqKkb7hG0ibhyQMCopYJPmOZCRgLkdRWPNY15SpHE4+Uyxxu3zEscsfamvvW4BaXzAQcDkDGO1W0gPmEhAHPAZsKQagu13ysjh2ZF4AJGaadyXtocvP8oynHzD+dTR3Ui45yPQ1FcnMI9mGD+NIMrg9+9b2TWpmm0aK3w/jGPWphMkh+U8GswODxnGelGCDnP4is3BdDRVX1NnkKMUqnnFZSXMsf8WRnoasR3qZzIu36c1m6bRvGsmWz973pH6D8ajE6SPlWBpXIwDU2fUrmTWgdhSScsD2xQeB9RSOeMVSJb0FQ5pQRkntTU4BxSL0+tAJk/GQaXOMD86jX79OB59alotMl+lNpCacpBzUl3A9KUcD2pv8AKlHQ0gRGSM9cUUvHpmiqEXlBUY7HtTtpzxwKdz0xTwCx+QE1wufU6OUi25607AxwelO8lt2WYD2pxjRePnPtSc0NIrfxE9/WnbieDz7VPgDhUH1PWmtvzxx9KfOmTYbFFu5PAqYoo6VHhh1znrS72FRK7ZaslYVuTjJppOelKXzwRTSOeDQkMcEyKXyxj+dNDEDrS7ienWl7wtBwRVHXg00tg8Co3mRMAkZ9ByfyohiubmULHCY0PBklBVR/WrjBvcl1Ix0FLEjJqKSVI+XIXPr1NXp9MeGPM96m30QbQ39T+FWrSyjtCbi3h+dvlDYJ59uprWMUldmMqt3ZGXHFczcpbEIf45f3aj8+ab/ZD3QJuWLJgkiIAD/vo8n8K6lFnk5+QleCMHJNZ19p7bjcsCrgjKNLgY9x7e1XCST0MajclqYyeG9NIja2t/Mz98g7j+tPfT7Xb5cNshKMA8kIGQK0xs2rsgR4gMFlk7+mOppELTQD7LE6TuQwjVQAgz61p7SRg4IjtERrfZO2yNOECEkkf41NBIBGUht3CsSR5pIx6e9TrEkNsxmuosscORgDPp61CbMyRFRNcFWGMu2zbjpj2qG77larUrrPN5DhDKix9QgJO7/CpYY4Ltf9JCO5A+Yrjmpw0SFX3kSKoXaknJ570vkeXiTb5wYcAEEZzTeiGr9StM5ChJoI18vlSgIJGe3GOaZBJCZ8GLakmTvYE8Y6VNLExG7MZUDmKNzzQBKTGqTlIZMEGQYYH0pO1rsOo26a28n55ojHnhFJXJqubdJMFfMfHMaSjKValgikkKmGN2U4EjLkD69KgmidY2KNLuQEgxjK0R8glqVHZEK71Ecz5KgRADPrxSywybR51xtBGWLggg5/GpNzz2qJNmTaQ3zDBIx61M0BIO9kZtuTGxLDH1q7tE2uihOr28J+YtuAAL4OBn0p7GU2yu7uyHgBVAB+tTuk7qiIke3jI6D88VFc20tkxuJJg8bAExKwAz+PpTUrrzC1iKMOmVAePOPmMZH5U8LKCUf95GxI8x+D/Knja1wkjNcrGwIBYZAPanTqWhXLGRUbb5gYbs/Sm5MXKim8Nl/qxDbjAxmSMEg1Xh0ux+VwsG0HBVlBIPv7VaktAtiFUmTcc5Xgrz3zSpEEjWBoQpfkuIyOapSdtxNK417eys43dool9AFGcVBErENOoBVjghCOefSrjWaiZl8rzCzBS3pxVv7A7RkK2SBtO35ePemqlkJxuURHPHJxA4XPIYBgRWpArpbKyfu9+NuM4x9KZaESZVT9w7SAeB+fWra2jH5WmCgHj3PrUSbkaRSQpiIiKybGY54UAHFVAiRK6DeSw5eT5QtWDGJRICpLNjBYZx+Pake0Lsu4hkQ87z94/Spe5XQy2ijaNWK+bg4JUDOfWq93vt4FYylWOQp2nGfTjNaVwZI2ZMJGj9JBwFGKrNdCHYJpEYMMH5OG/wADWsX1RnKxyE4OArgq24ZBGDQ468da2dT037Y/mwymP1DnpWLNY6hbM2IvPjXncnTFdEZJoyasxAR0xShhn69TVcXKMSGBRv8AaqUYIyP0qhEgcnj8qUHpioeMUZIGPxoAlOAcg49KkSeRf4sj0NQhz3pQQeg/Ok13Gm1sXFvOMOMfSpTIjjKmqGSRj86Xjt3GBUuC6Fqb2ZpRkEGkHXFUVldBkHjpUsdz/eH41Dgy1NF1c5IFCHofSoo5kPfk1KrDOKho1Uk9h7eopR0yOKacdj3pQODnpUloU5FKSQv1phIJ/rTiQVpWHcaOnXNFNyKKoi5vRBCfu8+/NSsPY1Kn7v7oB/nUgkLds14jm7npqBSIHZaCW7Cr2Fbg8e9HlJ+HrR7RD9mZ3z9dv6UESE4A4+laDIg5Bx9DTWKoNxYAerHApqd9kJwtuUfKc9RQIXI+771bhL3cmy1Tz26EoMKP+BHir8OiXckYMtxHED0EQ3n8zx+laxjNmUpwjuzFaF8ZIAA7kgUkFtcXcojtIXnkPaMZH59P1rrLTRbG2kzdGK6l/hMpJOfp0q+ySxHKNEFLYSMKcAf0rWMbbmMqv8pxw0PVAw8+KK3TOCXfcf04/WrqeGlPzSXRlTHEakAE/wDAef1ropPMtbR3MBJUkuXYkA/4VXlKKrS20O2ZlBcgYMgz61afYxcm92Ztpo6WjSLCBEMckKck+xpFlKMY2edgCVEbKMGtCaZY4tqLPNIMB1WTArMlkWaQobIF0Iba03IP+NUrvcjRE04VYi7K+9Ru2iPOKrJueNndZOeHcZGD9PWpZTJPCiRQSs5xkOwAX8utM+ysuzy3eMdCpYA4H1qbW0DqOtpEVZfLneNgcyAggj8T60rw2l0od7iUSSAqoIBIpqTXHmEC3k9N0hBB+napGCSEBvKdyNp3Eg01ZjZWSCMwmFGjlQYBAGC/5UkkaibBgn+Y4dixUfTjmrLxqmxlEQReACTkH2xThJE0REdyjFTnZk9frVakvuUbvy4ljTyoIwxGDnI68/jU8UeVREGY0JxnII/xpiGV5YpxCAWYhjIAWA9BTiXXDyXX3WIGDgqPQ+tVbQlMilSIxFJPM3K27a0Qzkj2pi3EdszRIpjDY2kn5enYVa82VdsTzxSEn78h5I/CnrBiMMIUdh8wIwDU7rUetyhP5iQ73ZJJjgiOIgEf1/OntFvjJO9yy8sijeD7GnuVkZXSKQsxIaNc5H1xVWVFaRmeYxeTgBeQen45prsMsvcoAEUSPIAMiUZxx/FiknSOWyb9+AGHOzIA/AfyqFGKx/uJirt9zzF4A9PpU8UknmbEh8tgdzg4YHjqDSQtymtvb3B8vfiRflI6j/6xpQlyym3gu43jyQXYAkj2qaGOcxSW9zCjxMxP7tsf/X/GlhiMc6xIiIoHBzkEf0NW2xIr+TdwTK8jxyHkAnggfhUEluJCFu3EkZySCBlT7H/61XrqKeCMEESE5wuMuB/X8agkilSONJIk+zlgxPG9z9KcHfUTXQhtLZCWSyljlVeCkrgnOewpHku7a7k+0NG68MFUjI/DrWikEokaSIWyxN2YAH8x0+lNaNY4zcv5a3SkgA5OR+VHNqPlfQhhltrkq4JEgIxt4/MVZltnwj+aSQwO44yTUcjJEodIkjfG4+v6VaUOuZ3zIqqMqOecVm532KjFdSIwnzd8YeXj5g/Rz+nSpljU/MqCKQk71U5z/SiJJjK80bh4mAwknBUU/YDIXbJYDAQ9OlF76Mq1hjpbpJhF/eEZycUi+YqqoDuR0yAP16VLLBFKqsDtYA7hjOPwqRbhfLCupGMD7wyT+VU7tCsQNI7vzvDEYAAGKhaXyJFUACTGCzYAI+pqN2DTSnzTDjsOcinPJIkGJESRCQCz4H86drCKsssl0dhg2r0DhgcflQ+TJ5Zl8x1GCJEBFMn2xgM+87mwGXgKfQAVCZDHuLQny244bJFadNCH5kN2Qsa7p9shfARQACP14pgCuTHKj7yDlhGQo/Gpmgc5a1lJRlztlAHfn1pJrO5ACGfMa4bDAkY49O9WmQ0Z8mmWMpKyhwGxtMZB3fn0rOk8PqspWKWS3I+b970x+FbUtvL5yZYp/Fh8EfhTpvNDLE0AkJ5EcZyPw/8Ar1XOxcqOWuLW6tJNp8ucAZzEcnFV0nQ8NlG9CK7AiN4dklpJAoOd2QGX8qpXWkW0zbESJnJJJaQ5xWiqLZk8r6GDjPTp600Zxir1xoDxFmgnRAOi7sk1QkhvbbBnt3K+oHWrTT2JJAxHelLk4GKhS4ifjO1vRuKlPPfnvjpTAcH4INODbuM5qLBxRnBzQBLz24/xp6TupBDHt71CJemQc+tOLZA/M4pNDTa2LS3jk/Ov5cVYjuoyMHj1rN5GO317UvTv1xUuCZaqNGqZFI+X9KeSNgrIDkEbTtPf0qZbtwMN8w/KocH0NI1V1Lpzniiqy3SlehopcjHzo7bKE8DB+lKCnGev5U5La7nAMFrK6npJIPLTH1PP5Vbg8N3M+XuLoADkrF8oA92bn9K8ONFs9WdeESk8iJy5CA9MnAoUXEuBBbSMG6Ow2oPxNbFtplpDceZFbx4UD94ZCxJ+rfzFakaGYvIGJGeiDJb862WHSWpzyxTeiOdGjXhUvPcIgBwRBHuOf94/4Vo/2LZ28YdbYyydd8wDEe3P+FahhWOXK5jA5bp1psdk0s/mSSgdx8oOfoa1UYxMHUlLdle3RIoSpESyKAdijIFSGN93EsTktkheucdPaqqm2g1FhZ+VLKxO8A4YVaUxCWaSSLy12gkg5HNFrq4eY+WFRb4Y+X6OpGc5pROVzFEXk/vbWBwaYzeVthIDRgchASVHaoplSFPKRfOV+Hzkflj0pJg2MW7gmkhBV94OCHzkD+X40SPbQh2+6ikhSeTg02OWSxCRKJAWJ4kj5A9vaqN1JtkJRd7k5BHGW/HNXFIlshmvBK3kRZCBceaw6GnLaSBkRSjnbyWXGT2qRIyHcLL8xG5kxgGoUkC3bRrGHlAyQCDx7HtTsTuSGKaNkZwiyHCna2Mn/Clni8z9wJcSNy7cf/Xps8LyRoiE7SuMuB8p9z1qvIEgkMTy5MigluQAc89OaT31Gki6qiCLbuE+O27J/D6VAoihm81YnBOSXuAAAfamm3JlWRRhV+UeWpzJx3Pb60htHEjzyRJKwUKkbyEhePf1pJIdxrTHM0yNJIzHBC4B9OO2KdLsih+0PK8MeMEEZXJ9ahE00sDNbw7JFYK4bIDEdqnhuUztkWPy2H3Qeh78d6vZak2uQ2UTzCQuJXjDnYy5wPpmpY5YJGkSSUSbTtBbCkj6d6ZcDzJvJQzmMg5Q5ANJI0a2uzEbE5GHjIKj29KL3QiV8bkLyRIQ3JjH3R2qT7HG0bSCUgA7huGBVUfY7a0WN3i2FSwG7kinC5SGIBE2qy5ZXJzj6U7JIXUrvCqhds86sSWJiPH49sVHHBJ5UUtxcOzMcoYcFcfU1LDcJFJ5EZAJHRlwAfwq1LbJbwebJ/CdxCAgZzTbs7DtfUotHMsjGKVyWBKJCMkn8eDUrwkrH58xAyG8tSAfx6E1PEHmCuPLLK2V8qTGR6cVFqLILhFaCX5gVaTtj/63tQ3rYXQq3kscl0kb/NHECynB4P1ppjwWmeCSV2PCBuFH0pxCQqpPmCVTtVBJuZRn/PWpoprl5SJ2iWUHcqx4Bx2yaprQVyMj946PBIJCf3ciLjIx0/8A10y3YXaOk5eNQdoGCNo/z3p8Bu2u5dkIl2kg75iATx+dMvJrxZd+5CiH54goAz9T3pLeyHdWHRTQLKbe4gfAyURhyR7f/rqdd4iLvHLHEzHBbkj8qrxM5Vn3bo/vApyVJHcHjFAa4jnEn2kqWGTGvRh7dqGtdQTsTosasLa2KK+dzCTI3Hr+NaFoI238Plh8wyT/ADrMF3uK3Ks90qkq5IA2ir0U6RiORZZAj9VlyFxmoklYqL1FiRDITsO1MglcgnmpJILY7mdsDIJDk0/zY2YujYd+zc8CmeezqSgSRFzuHVs1Cu2X01IjHFy0VwQ4bgsuf1HanlFU7rnDycYIwTTICkwLpcFdvy+WvA/Ko1eOJmX94ZGGSJCAMVr5EjrnzApdIo1RV3EluSPpVZjdS2ru8X7s9d4yWXFIAJsSOyK+TgbTlR/X60txbnJe2mKqQC4Ykr749KqKaSuS2UofvBrU5TqQ+CB+Panfv71dkhjiAPzE4Bb86eyo22W0tJFYn95/dx3zmmrFapmKRHkcnKvJkZHoPpVSa6CSbIZbd5CVtWwRyN2AD/8AqoT7WLkQysgRUBf5tu4+1JO8chId5Qn3UTaQM0jWiv5bF5CyriIxHkfnTi7rUUtxhaOaQo8Unlq3G8jk+tWZgmAYiY5ANw2nHFQGSWWHdMs8b4OCcEkUts1tMux1LFeDsUkk/wBKHpqJEMaP/qk+YgFiXbBPPr70IkPkiRiUQg5LYJBz6jrS/ZoWmeN2ljjbgIQQ4pcrEwtZCZLcnCBSCT71V7bCInsoJCknmIyN8oV1IDU+bTmIymEyODgjb9amubS2cBFSSNF5JByn41XkiNtC/JkVvujk/pRzaaA0jKn06yuCQ0JDA4LA8saoy6G0QZ7a7BC4+Q8nNbzqykDbHH5g5IyCB7dqTMCRbpICqkYDiQda0U2iOVHJyG5tuLm3cL6gcUJPFIcKefeumlsmWIslwTEQMKRxUMumaddKTIdki4UtHjGcegrTnVieVmHjIODj3pBkYHbFTz6RcwFntZfOjHJyMECqryTQkCeAoD0ODiqTTETFj1PNKG6GokkR+FbJznHQ0pWmA9iD7ZpRkj9ajyec9qdu4oAkBHOR39aKj3DvRQB7dbXLzy7Ymyp+7JnccevpVm4jQR7XZJHcY3FeTXEWE9/pO77B88TdYZTgfgeorobPWLS+j8tmKOPvwYw4/wDrfSvKvGXwndKEo7mnDbRSwIEOwxkkFeQPzqMQ3MZZbNwhJOWcZAHtRMizQ7nHlwD+FRgAe/epkDpGNkTqT0HGMUWs9SUV2hu45fmlLowPysCQTii4Fy5HluISvygMhYEU6WbczAjaygZ3cbaahjuAvzFI1+aSRyQWPNDSDUJNPilw6F5JMAnYAoB9aZcPdxRoIojHuIyUAzjPNPtxb28sknkzxuDxISxRhjsKmuIg08Us7HDEKE525pegBb3aSEqHQ9c7jkj603y9haS2lIDL94Hj8KimgtoW3q/zcsMZ24z+tJLcOG2RRIqhQxI7Z+tGgyiTILqSQyiEL3C8kd+v86px3MMF04meSSORgwHPfucdalupRDeJD5R2Y3GU8gD/ABqWZ3YEQqX3MBgDAAp7Incd5YE+2GV4w+S4kAI/AGq89rbQncNjHG0naRg/hUrRs0DSK5k2qRhcDn61X06JpdwdRsA5R2559aSAXzmjVI5VjLfeDFgCxqR7phJvQRKqj5lEg3E/So75I7W3O23PJGEYAgn+eKqWd4nmCNoPKdieWyOfb2p2TQXZamlAVZJPMRs52xnH+c1I93agH50UtgEAjIqrNbrDIZ0njLsPm3xbjnNMjgZZQ4thuUblKsASfwzx7U0kx7E0cTYd3to5CSDGxYggfTt9aasFqszNBbysZVywAyimlWV0dWmfLSdIhgFR/WrNvumLPazIQTtfcc9KTbCxSgZ5j5ZidGUFlAJZSPrQ1zciVbZZnTgEtsB5/wDr1Jcb0uAI5U+c/MFIIY/XtRcRxRSgicCWQ4yvJJ9OKpabE6k7zWybVe1LOxIA8sEnimZu7tdltELONQV2zgHJ9sU8xzKfMYRCUDbgMzZH0HANUkR7gNMxjkZWOCMgqfpSjqL1BLN7eXZdNJKp5wgzg5/SkYO0Lb1li2ktjg4HpU0LFoXd4HjC8eY7hmx61Um0uOSdpYsOCAxDSEKPpTW+o9loMt2EGWz5SNhkkxySetXfOdYZP3XCtnJk4c/zp7RzTxbRCiEDKDO4f59qX7S0EcUbwl3bI8tACSaTlcSWhku0e2YgOZJSN0MS85z3btirENxA6q1zAka9EKkkk/jU0kokuwkgFqw5A3YLn+tSKnl75TDHI0mCN0uCfT2xVt2QralR23koFkYq25fKYoW+p/pUStOkgnnfcgAB3JwBnp65HuKczH7R5QwJAm4lWDgnPb0I96s2sPmZVopY5TnBOQPqOwzTW4uhHeLaxTID+7dsfM0WB7c9KBfXEEDedbR3CY2o0JBI9fpS3En2GQrcrHHBt/17OSR/n2qifEK226PT4vtg/hncGNQf5sPwpqLsPdlyCU4MjgR7hucqRhMf3hSRazbSXez+0Y53HygE7EI+vQ1hzefqMpe+nMgY8xxjag/Dv+NP8iML5aoNvpgYpNwWhpGEmdIbr7LMZGtxIGO1EQEH8O1Oe4SaYbAI5x1WTKn8eK5y3a5spM2s5jA/5Zt8yfkf6VqNrwlXbqFiiMvSaEbgPw60WT+EGnHc1ESaW3Z3UrIvQAjBP86gaRSMyF3BwQmQST/silgukmh3Wc8UwKk7BgEn6Z4/GnW4gdvMIQ84YgBSh/nT5basm+g2LzVYKmQ5yUVgQMfSqt1K8bOkiuztjIGcA/yq4ZbaPy44bjzQzclycqPqabPIURg9xi3bOTkg0J6i2K/2m5gUJMI2zhQq5bH171Dds8rKEUx/LlHKYGc9KcivEwmceWiDbtAy0nv9acsrtP5L2rjJ3b1OAf51Lte473WhnXEjz7YHJVlwSYzgMM/zptvCLZhHDESHJC5lBAPrV+8s4X3bHkj2AcKucf8A1qbY20UsJL9AfkKjaGHqMVSlpoRZ31K7NZJvjvN6SjgyRsSQO3NEbNMXhsIUkhHBZ5COfp3qK5tx5v7lo5Ixk5YElPxP9KsxzTAhCUK5xlVBwMeoqnsO+thslvNHabHKKiLktGOR+FV7O52QAMqOOinBPBqxEl2SfPnnIzgIMEYzwfWhHmeUxPI+B6RDB+tDelg6kMT3MDFEeMx42knjaf8AdqZSI1VDcxGZuiyDAI9u1RNuRcIY0VeXOMg8+lPl0+K4h3wbJiedmdo+vtTaVhJ6DLiATTKlx5bRsMoIySPxFPOmwYDQkJtBPAHNQMkgj2mACF/lM4wCp7Z71btluQWR/KkVQCJGOD0oldLQSs9ysqebKCowAORKuR+VBsyFLO0aSA4HA6Z7U8XvnRySNJuPKiNG5z+NMVEDRSqUV8HIUlix9x2oUmNpETQkMrqwkJJBIU5AptxcJcR+RIkahuAXU9Pw61M9y5mQhPLUHlQcAn39qJbcT7SpdSeVO7cqH29KpPqyWuxlXWjWLlVeDy2ZSyvESAfwNZE2k3tuT5TiRc4IPBWup3SENGcyKvJYg4/OoXt8zl3KISOOSVb6VpGbJlHsci80sMpSeIo1OWRJOhya6uWKK7KmTZ6bioIBrGvtHtlnbY6Z6kJ8uPz4rRSTdibMoYBoqd9EvUbEc6Mh5BJop3Qj0ItkcVG9mkjB2yki/MsinBU+1O3EcUm9h3r5mMmtYn0EkpLUu2uuz28qpqrvNbA/69FBb/gQ/qK6BNRe5TfaBDbcBJFwS/H6VybjOD61VnhayQXFtK0eWG6MfcbnuK7qVbnfLLc5KtHl1R3COIZC/kfMwyXUZI+tRWcxku2ZX8xhxnv+PYfSqVpePqGh211b5tJXIztO4fka0WhjtLd7hzJNI3zsWfGSPoK2ascpYkeUSbJsFWG4AcAVBIZpJ1K/vADnMp4UY9P8aWGEyWTXRkJkPzfN8wGKguJ3WcQOA6kr14qbIdx7jzMODJJtYgLkcn/Cq1+hntFScbixIYHnP/6qmKBL14kSNY8bcKuOKgu9zTRxlvlxnpjFC3EysruYmR4MhcgFRuVh69qrbplDMsBVR8xBYDaPfv8AgKviQxMUIDIONvSq9zqHlDfHEFdXwCTn+lJPURDHeRgAOyCJssCp+YH1I96Qo5behSfofNbg4/rUymG/mczW6boyMMvBPHenGb7O8cO0upOPmPNPrcaKUtpILjzgSgVTgZJIJPT6GpBGkZU3M2+RgSdi4U/U+1LLmW+kEx3RxoSgHysPxFR200c6+XJEWSNdyjeQM/1od7B1DyI42KwnPOQQcnP49BRBHEvmNMyOyt/DnYPy707Pmpm4AYg4Gz5O/f1pu1YS8il1YPj5Wx/SmnpYOpPeJZyxBZGRcg4k2kEH1qCeyjaIIkoVFAywByRTUtZJyXluGcKxYKy5GaSd2hlhSM8zH5i3PbtUu1tA6j5xmKCFwWt3JDyRgEMO2T61XECD/li6xgERp3Iz/OrUKDLMpIJbn0PSkmtI4I3ncvK7Pt5YgKPbHSnHYHuKYHVWVWkKDoNxyOKq7glwiC2MkhGWJBAx6k0+5u50iVUfALYJxk9fU1Zt4QrN5byR4JOFY8/XNNdyXuUnitV1MOso8vBZwuQgPbPqfapUgtiysksl0jMSB2U+9E9hAbeQbSPNIL89agkkaxjby2bjJyGx+H0prUOpcuHktYiz3wjXGAiKQR+P+Iqg5EUAkikzJuLRnBO0nruNXLOOGbMckZcv95mbOePeqF2qWjx3FsvlOOMZyMfSiNglctJGLyIy3rlJAhAxjGPb/wDVUKMs8BWK+/dw42S3C4OP0pzy20Wmtfm2JdxkqJCB/KuYS7udVLh5BFCPlKRryRnuTzWqhfcS7HRXF9YaZlXnjLnny4uWY+3WsuXV9SnJFuptt2AZJWLMB7L0FV4bWCFMxxKp5yccn8amj4OKXMo7I1VJvcrm082bz7t3uZf70pz+nSpn5OB1HT2qbbk4yfrRtGcYrF1ddTVU0loQqCo9/WgyuPuc1KUDNjmpFjUY4pSmlqx8rIE+0NyQOelNaMdGHPfmrxGBmoXUM/NKNW7KcNCC3tY/NDlnjcdGiOCBWrBdy20od4o70Du52OB/I1VRAo4zycVNGowD60SrSQvZRsap1mwuWUPPJA4GPLljAA5H51YmFs0ixsnmfKCFlGR9fSsR0SRNrqGUjoRmopHn0y2aS1nYJ0MUnzofz5H4Gqp1VUdjKdG2poXMqxgmOKTyiwPycjp+YoSC4iK/vSGyWV2JOP6Gq1vqn2zT7d5IFPmHDjPB5rUvFby0WNgg3AjjOK2lEwK91IglRV83z8cBT8pHvVabzGKtGOhGI4uTirT2avEn7yUMfmLBuSaqG2WBygZsOTlhgN09RUR12G73FkZopfKb95vBZIWH7zP06Yp0ERSb55QiNwY2wcH+lU0so5JNxeXeOA+/5h+NXLjT3sljAupJAGBAYdM/571dugX1HT6fIs3mxPgfeId+GFVFtkEpmS7eOSQ7cLjrj8qufZn2B/OPXAG3gD0qsLnyZxEI1ZCu7DDNSnYHuR/Ywt2puSjIo+UyAqN34cZpmoCSMRqF+zxMeXiXcfapftLyM6yhXC8AYwAPTFK1vHII92SjjlM8VfXUWg0nfGh86J5/uhgCpY/TpUTRs6k3BCuCDKIyNuPerBtI1zGFUhW+XcM4xVeNpd0qOYnUcANH7/Wmhak0ETAqsEiR23XzGAYsamhgTlwkc4JOZY+N1SvbFbX7OZSY9nRQFxz7VClv9nJXeWXG7HTmo11GiGGe2e9K8BmHKrk8/wAvwp2+S23hFATdwMYwKqnVQ94qPbjC/dKOVIrR8xooiUPAbBD/ADZ571QirI9wcPtjIU8snyhh6d+az54FmmXbCI8sBkHv7+341oK3nNPtjiQpk8J1+ozVIXZNwGSGJJtvzPgkH8M1cWQy+IIREI1RNh6lD0NVZordlKMoV1IzJg4I/wBqr1ostzdBJZFKbdwATGPyNQ3ieVfNGzu4BG0k8rkdqmL1KdrFVLJGBMFvLsz2j4z7UVcksXt3KQXDIh5wFzzRT5vMnQ//2Q==;" vertex="1" parent="1">
          <mxGeometry x="100" y="90" width="80" height="119.84" as="geometry" />
        </mxCell>
        <mxCell id="nyGkCvH6yq_HEILJswZV-17" value="" style="whiteSpace=wrap;html=1;aspect=fixed;strokeColor=#3399FF;" vertex="1" parent="1">
          <mxGeometry x="305" y="200" width="10" height="10" as="geometry" />
        </mxCell>
        <mxCell id="nyGkCvH6yq_HEILJswZV-20" value="" style="endArrow=classic;html=1;entryX=0;entryY=0.5;entryDx=0;entryDy=0;" edge="1" parent="1" target="nyGkCvH6yq_HEILJswZV-17">
          <mxGeometry width="50" height="50" relative="1" as="geometry">
            <mxPoint x="170" y="180" as="sourcePoint" />
            <mxPoint x="240" y="230" as="targetPoint" />
          </mxGeometry>
        </mxCell>
        <mxCell id="nyGkCvH6yq_HEILJswZV-22" value="" style="rounded=1;arcSize=0;dashed=1;fillColor=none;gradientColor=none;dashPattern=8 3 1 3;strokeWidth=2;strokeColor=#007FFF;" vertex="1" parent="1">
          <mxGeometry x="150" y="170" width="20" height="20" as="geometry" />
        </mxCell>
        <mxCell id="nyGkCvH6yq_HEILJswZV-24" value="" style="verticalLabelPosition=bottom;verticalAlign=top;html=1;shape=mxgraph.flowchart.parallel_mode;pointerEvents=1;strokeColor=#3399FF;rotation=90;" vertex="1" parent="1">
          <mxGeometry x="630" y="70" width="95" height="40" as="geometry" />
        </mxCell>
        <mxCell id="nyGkCvH6yq_HEILJswZV-25" value="" style="verticalLabelPosition=bottom;verticalAlign=top;html=1;shape=mxgraph.flowchart.parallel_mode;pointerEvents=1;strokeColor=#3399FF;rotation=90;" vertex="1" parent="1">
          <mxGeometry x="630" y="169.84" width="95" height="40" as="geometry" />
        </mxCell>
        <mxCell id="nyGkCvH6yq_HEILJswZV-26" value="" style="verticalLabelPosition=bottom;verticalAlign=top;html=1;shape=mxgraph.flowchart.parallel_mode;pointerEvents=1;strokeColor=#3399FF;rotation=90;" vertex="1" parent="1">
          <mxGeometry x="700" y="70.16" width="95" height="40" as="geometry" />
        </mxCell>
        <mxCell id="nyGkCvH6yq_HEILJswZV-27" value="" style="verticalLabelPosition=bottom;verticalAlign=top;html=1;shape=mxgraph.flowchart.parallel_mode;pointerEvents=1;strokeColor=#3399FF;rotation=90;" vertex="1" parent="1">
          <mxGeometry x="700" y="170" width="95" height="40" as="geometry" />
        </mxCell>
        <mxCell id="nyGkCvH6yq_HEILJswZV-29" value="" style="endArrow=none;html=1;entryX=0.296;entryY=0.587;entryDx=0;entryDy=0;entryPerimeter=0;exitX=0.76;exitY=0.437;exitDx=0;exitDy=0;exitPerimeter=0;" edge="1" parent="1" source="nyGkCvH6yq_HEILJswZV-24" target="nyGkCvH6yq_HEILJswZV-27">
          <mxGeometry width="50" height="50" relative="1" as="geometry">
            <mxPoint x="530" y="310" as="sourcePoint" />
            <mxPoint x="580" y="260" as="targetPoint" />
          </mxGeometry>
        </mxCell>
        <mxCell id="nyGkCvH6yq_HEILJswZV-30" value="" style="endArrow=none;html=1;exitX=0.521;exitY=0.337;exitDx=0;exitDy=0;exitPerimeter=0;" edge="1" parent="1" source="nyGkCvH6yq_HEILJswZV-24">
          <mxGeometry width="50" height="50" relative="1" as="geometry">
            <mxPoint x="690.0200000000002" y="124.70000000000005" as="sourcePoint" />
            <mxPoint x="747" y="194" as="targetPoint" />
          </mxGeometry>
        </mxCell>
        <mxCell id="nyGkCvH6yq_HEILJswZV-31" value="" style="endArrow=none;html=1;exitX=0.319;exitY=0.454;exitDx=0;exitDy=0;exitPerimeter=0;" edge="1" parent="1" source="nyGkCvH6yq_HEILJswZV-25">
          <mxGeometry width="50" height="50" relative="1" as="geometry">
            <mxPoint x="700.0200000000002" y="134.70000000000005" as="sourcePoint" />
            <mxPoint x="749" y="207" as="targetPoint" />
          </mxGeometry>
        </mxCell>
        <mxCell id="nyGkCvH6yq_HEILJswZV-32" value="" style="endArrow=none;html=1;entryX=0.744;entryY=0.521;entryDx=0;entryDy=0;entryPerimeter=0;exitX=0.514;exitY=0.404;exitDx=0;exitDy=0;exitPerimeter=0;" edge="1" parent="1" source="nyGkCvH6yq_HEILJswZV-24" target="nyGkCvH6yq_HEILJswZV-26">
          <mxGeometry width="50" height="50" relative="1" as="geometry">
            <mxPoint x="710.0200000000002" y="144.70000000000005" as="sourcePoint" />
            <mxPoint x="774.02" y="200.6199999999999" as="targetPoint" />
          </mxGeometry>
        </mxCell>
        <mxCell id="nyGkCvH6yq_HEILJswZV-33" value="" style="endArrow=none;html=1;entryX=0.498;entryY=0.587;entryDx=0;entryDy=0;entryPerimeter=0;exitX=0.5;exitY=0.438;exitDx=0;exitDy=0;exitPerimeter=0;" edge="1" parent="1" source="nyGkCvH6yq_HEILJswZV-24" target="nyGkCvH6yq_HEILJswZV-26">
          <mxGeometry width="50" height="50" relative="1" as="geometry">
            <mxPoint x="720.0200000000002" y="154.70000000000005" as="sourcePoint" />
            <mxPoint x="784.02" y="210.6199999999999" as="targetPoint" />
          </mxGeometry>
        </mxCell>
        <mxCell id="nyGkCvH6yq_HEILJswZV-35" value="" style="endArrow=none;html=1;entryX=0.274;entryY=0.504;entryDx=0;entryDy=0;entryPerimeter=0;exitX=0.495;exitY=0.504;exitDx=0;exitDy=0;exitPerimeter=0;" edge="1" parent="1" source="nyGkCvH6yq_HEILJswZV-25" target="nyGkCvH6yq_HEILJswZV-26">
          <mxGeometry width="50" height="50" relative="1" as="geometry">
            <mxPoint x="678.6600000000001" y="172.6450000000001" as="sourcePoint" />
            <mxPoint x="748.6600000000001" y="213.37000000000012" as="targetPoint" />
          </mxGeometry>
        </mxCell>
        <mxCell id="nyGkCvH6yq_HEILJswZV-36" value="" style="endArrow=none;html=1;entryX=0.491;entryY=0.504;entryDx=0;entryDy=0;entryPerimeter=0;exitX=0.318;exitY=0.471;exitDx=0;exitDy=0;exitPerimeter=0;" edge="1" parent="1" source="nyGkCvH6yq_HEILJswZV-24" target="nyGkCvH6yq_HEILJswZV-26">
          <mxGeometry width="50" height="50" relative="1" as="geometry">
            <mxPoint x="689.9800000000002" y="100" as="sourcePoint" />
            <mxPoint x="754.0200000000002" y="99.96999999999991" as="targetPoint" />
          </mxGeometry>
        </mxCell>
        <mxCell id="nyGkCvH6yq_HEILJswZV-37" value="" style="endArrow=none;html=1;exitX=0.726;exitY=0.471;exitDx=0;exitDy=0;exitPerimeter=0;entryX=0.549;entryY=0.521;entryDx=0;entryDy=0;entryPerimeter=0;" edge="1" parent="1" source="nyGkCvH6yq_HEILJswZV-25" target="nyGkCvH6yq_HEILJswZV-27">
          <mxGeometry width="50" height="50" relative="1" as="geometry">
            <mxPoint x="689.3399999999999" y="182.6450000000001" as="sourcePoint" />
            <mxPoint x="759" y="217" as="targetPoint" />
          </mxGeometry>
        </mxCell>
        <mxCell id="nyGkCvH6yq_HEILJswZV-38" value="" style="endArrow=none;html=1;entryX=0.74;entryY=0.504;entryDx=0;entryDy=0;entryPerimeter=0;exitX=0.526;exitY=0.554;exitDx=0;exitDy=0;exitPerimeter=0;" edge="1" parent="1" source="nyGkCvH6yq_HEILJswZV-25" target="nyGkCvH6yq_HEILJswZV-26">
          <mxGeometry width="50" height="50" relative="1" as="geometry">
            <mxPoint x="687.3400000000001" y="199.36500000000012" as="sourcePoint" />
            <mxPoint x="757.3400000000001" y="78.69000000000005" as="targetPoint" />
          </mxGeometry>
        </mxCell>
        <mxCell id="nyGkCvH6yq_HEILJswZV-39" value="" style="endArrow=none;dashed=1;html=1;dashPattern=1 3;strokeWidth=2;" edge="1" parent="1">
          <mxGeometry width="50" height="50" relative="1" as="geometry">
            <mxPoint x="700" y="230" as="sourcePoint" />
            <mxPoint x="730" y="230" as="targetPoint" />
          </mxGeometry>
        </mxCell>
        <mxCell id="nyGkCvH6yq_HEILJswZV-41" value="" style="shape=curlyBracket;whiteSpace=wrap;html=1;rounded=1;rotation=-90;size=0.5;" vertex="1" parent="1">
          <mxGeometry x="705" y="215" width="20" height="155" as="geometry" />
        </mxCell>
        <mxCell id="nyGkCvH6yq_HEILJswZV-45" value="" style="line;strokeWidth=2;html=1;" vertex="1" parent="1">
          <mxGeometry x="600" y="144.92" width="30" height="10" as="geometry" />
        </mxCell>
        <mxCell id="nyGkCvH6yq_HEILJswZV-46" value="" style="line;strokeWidth=2;direction=south;html=1;" vertex="1" parent="1">
          <mxGeometry x="610" y="134.92000000000002" width="10" height="30" as="geometry" />
        </mxCell>
        <mxCell id="nyGkCvH6yq_HEILJswZV-47" value="" style="shape=curlyBracket;whiteSpace=wrap;html=1;rounded=1;rotation=-90;" vertex="1" parent="1">
          <mxGeometry x="340" y="40" width="20" height="505" as="geometry" />
        </mxCell>
        <mxCell id="nyGkCvH6yq_HEILJswZV-48" value="&lt;font style=&quot;font-size: 14px&quot;&gt;卷积+池化层&lt;/font&gt;" style="text;html=1;align=center;verticalAlign=middle;resizable=0;points=[];autosize=1;" vertex="1" parent="1">
          <mxGeometry x="305" y="310" width="90" height="20" as="geometry" />
        </mxCell>
        <mxCell id="nyGkCvH6yq_HEILJswZV-49" value="&lt;font style=&quot;font-size: 14px&quot;&gt;全连接层&lt;/font&gt;" style="text;html=1;align=center;verticalAlign=middle;resizable=0;points=[];autosize=1;" vertex="1" parent="1">
          <mxGeometry x="680" y="310" width="70" height="20" as="geometry" />
        </mxCell>
        <mxCell id="nyGkCvH6yq_HEILJswZV-50" value="&lt;font style=&quot;font-size: 14px&quot;&gt;最大池化&lt;/font&gt;" style="text;html=1;align=center;verticalAlign=middle;resizable=0;points=[];autosize=1;" vertex="1" parent="1">
          <mxGeometry x="405" y="250" width="70" height="20" as="geometry" />
        </mxCell>
        <mxCell id="nyGkCvH6yq_HEILJswZV-51" value="&lt;font style=&quot;font-size: 14px&quot;&gt;卷积+非线性&lt;/font&gt;" style="text;html=1;align=center;verticalAlign=middle;resizable=0;points=[];autosize=1;" vertex="1" parent="1">
          <mxGeometry x="175" y="250" width="90" height="20" as="geometry" />
        </mxCell>
      </root>
    </mxGraphModel>
  </diagram>
</mxfile>
